<?xml version="1.0" encoding="utf-8"?>
<!-- Generator: Adobe Illustrator 27.5.0, SVG Export Plug-In . SVG Version: 6.00 Build 0)  -->
<svg version="1.1" xmlns="http://www.w3.org/2000/svg" xmlns:xlink="http://www.w3.org/1999/xlink" x="0px" y="0px"
	 viewBox="0 0 500 500" style="enable-background:new 0 0 500 500;" xml:space="preserve">
<g id="BACKGROUND">
	<g>
		<rect style="fill:#FFFFFF;" width="500" height="500"/>
		<g>
			<g>
				<g>
					<path style="fill:#FFB24D;" d="M36.329,150.901c-8.417-2.688-8.407-1.703-13.734,7.191c3.336-9.816,4.094-10.445-3.402-15.125
						c8.417,2.688,8.407,1.703,13.734-7.191C29.592,145.592,28.834,146.221,36.329,150.901z"/>
				</g>
				<g>
					<path style="fill:#FFB24D;" d="M463.755,455.195c-8.335-2.932-8.354-1.947-13.938,6.788c3.62-9.715,4.396-10.322-2.96-15.218
						c8.335,2.932,8.354,1.947,13.938-6.788C457.175,449.692,456.399,450.299,463.755,455.195z"/>
				</g>
				<g>
					<path style="fill:#FFB24D;" d="M308.519,101.469c-4.684-1.392-4.667-0.848-7.513,4.129c1.735-5.464,2.147-5.821-2.049-8.324
						c4.684,1.392,4.667,0.848,7.513-4.129C304.734,98.609,304.323,98.965,308.519,101.469z"/>
				</g>
				<g>
					<path style="fill:#FFB24D;" d="M379.618,378.044c-4.481,1.948-4.118,2.354-3.094,7.995c-2.188-5.299-2.102-5.837-6.925-5.053
						c4.481-1.948,4.118-2.354,3.094-7.995C374.881,378.289,374.795,378.827,379.618,378.044z"/>
				</g>
				<g>
					<path style="fill:#FFB24D;" d="M404.076,34.652c-4.481,1.948-4.118,2.354-3.094,7.995c-2.188-5.299-2.102-5.837-6.925-5.053
						c4.481-1.948,4.118-2.354,3.094-7.995C399.339,34.898,399.253,35.436,404.076,34.652z"/>
				</g>
				<g>
					<path style="fill:#FFB24D;" d="M84.925,436.114c-3.792,3.082-3.333,3.375-0.829,8.533c-3.533-4.515-3.595-5.056-8.029-3.004
						c3.792-3.082,3.333-3.375,0.829-8.533C80.429,437.625,80.491,438.166,84.925,436.114z"/>
				</g>
				<g>
					<path style="fill:#FFB24D;" d="M170.602,36.43c-3.792,3.082-3.333,3.375-0.829,8.533c-3.533-4.515-3.595-5.056-8.029-3.004
						c3.792-3.082,3.333-3.375,0.829-8.533C166.106,37.941,166.167,38.482,170.602,36.43z"/>
				</g>
				<g>
					<path style="fill:#FFB24D;" d="M95.999,303.266c-8.245-3.178-8.292-2.194-14.133,6.371c3.907-9.603,4.701-10.187-2.507-15.299
						c8.245,3.178,8.292,2.195,14.133-6.371C89.585,297.57,88.792,298.154,95.999,303.266z"/>
				</g>
				<g>
					<path style="fill:#FFB24D;" d="M437.334,159.715c-7.454-4.745-7.695-3.791-15.114,3.451c5.728-8.641,6.621-9.057,0.567-15.492
						c7.453,4.745,7.695,3.79,15.114-3.451C432.172,152.864,431.279,153.279,437.334,159.715z"/>
				</g>
			</g>
			<g>
				<g>
					<path style="fill:#F2EEFF;" d="M321.207,41.119c8.417-2.688,8.407-1.703,13.734,7.191c-3.336-9.816-4.094-10.445,3.401-15.125
						c-8.417,2.688-8.407,1.703-13.734-7.191C327.945,35.81,328.703,36.439,321.207,41.119z"/>
				</g>
				<g>
					<path style="fill:#F2EEFF;" d="M24.509,467.176c8.335-2.932,8.354-1.947,13.938,6.788c-3.62-9.715-4.396-10.322,2.96-15.218
						c-8.335,2.932-8.354,1.947-13.938-6.788C31.09,461.673,31.865,462.28,24.509,467.176z"/>
				</g>
				<g>
					<path style="fill:#F2EEFF;" d="M170.109,122.091c4.684-1.392,4.667-0.848,7.513,4.129c-1.735-5.464-2.147-5.821,2.049-8.324
						c-4.684,1.392-4.667,0.848-7.513-4.129C173.893,119.231,174.305,119.587,170.109,122.091z"/>
				</g>
				<g>
					<path style="fill:#F2EEFF;" d="M390.302,192.908c4.481,1.948,4.118,2.354,3.094,7.995c2.188-5.299,2.102-5.837,6.925-5.053
						c-4.481-1.948-4.118-2.354-3.094-7.995C395.039,193.154,395.125,193.691,390.302,192.908z"/>
				</g>
				<g>
					<path style="fill:#F2EEFF;" d="M458.505,94.686c4.481,1.948,4.118,2.354,3.094,7.995c2.188-5.299,2.102-5.837,6.925-5.053
						c-4.481-1.948-4.118-2.354-3.094-7.995C463.243,94.932,463.328,95.47,458.505,94.686z"/>
				</g>
				<g>
					<path style="fill:#F2EEFF;" d="M95.993,195.456c4.481,1.948,4.118,2.354,3.094,7.995c2.188-5.299,2.102-5.837,6.925-5.053
						c-4.481-1.948-4.118-2.354-3.094-7.995C100.729,195.702,100.815,196.24,95.993,195.456z"/>
				</g>
				<g>
					<path style="fill:#F2EEFF;" d="M405.391,461.173c3.792,3.082,3.333,3.375,0.829,8.533c3.533-4.515,3.595-5.056,8.029-3.004
						c-3.792-3.082-3.333-3.375-0.829-8.533C409.888,462.685,409.826,463.226,405.391,461.173z"/>
				</g>
				<g>
					<path style="fill:#F2EEFF;" d="M464.1,319.747c8.245-3.178,8.292-2.195,14.133,6.371c-3.907-9.603-4.701-10.187,2.507-15.299
						c-8.245,3.178-8.292,2.195-14.133-6.371C470.514,314.051,471.307,314.635,464.1,319.747z"/>
				</g>
				<g>
					<path style="fill:#F2EEFF;" d="M30.68,55.135c7.454-4.745,7.695-3.79,15.114,3.451c-5.729-8.641-6.622-9.057-0.567-15.492
						c-7.453,4.745-7.695,3.79-15.114-3.451C35.842,48.284,36.735,48.699,30.68,55.135z"/>
				</g>
			</g>
		</g>
	</g>
</g>
<g id="OBJECTS">
	<g>
		<g>
			<g>
				<g>
					<text transform="matrix(1 0 0 1 414.0526 403.3076)" style="fill:#47194B; font-family:'SpartanMB-Black'; font-size:9px;">COFFEE</text>
					<g>
						<text transform="matrix(1 0 0 1 421.2029 415.8477)" style="fill:#FF597B; font-family:'SpartanMB-Bold'; font-size:9px;">10%</text>
					</g>
				</g>
				<g>
					
						<ellipse transform="matrix(0.7071 -0.7071 0.7071 0.7071 -121.4912 406.7121)" style="fill:#F2EEFF;" cx="430.199" cy="350.009" rx="39.102" ry="39.102"/>
					<g>
						
							<rect x="410.152" y="338.799" transform="matrix(0.9664 0.2572 -0.2572 0.9664 102.3799 -99.48)" style="fill:#47194B;" width="42.591" height="5.605"/>
						<polygon style="fill:#FF597B;" points="431.568,383.74 410.395,378.105 413.05,339.605 448.403,349.015 						"/>
						
							<rect x="416.784" y="334.864" transform="matrix(0.9664 0.2572 -0.2572 0.9664 101.2159 -99.9587)" style="fill:#47194B;" width="31.822" height="4.099"/>
						<path style="fill:#47194B;" d="M445.569,354.861c-0.639-1.118-1.371-2.18-3.105-2.642c-3.829-1.019-4.878,2.923-8.707,1.904
							c-3.827-1.019-2.778-4.961-6.606-5.98c-3.826-1.018-4.876,2.924-8.702,1.905c-3.498-0.931-2.932-4.298-5.73-5.649
							l-1.983,28.754c0.383,0.258,0.832,0.477,1.396,0.627c3.827,1.018,4.876-2.924,8.702-1.905c3.827,1.019,2.778,4.961,6.606,5.98
							c3.571,0.951,4.726-2.411,7.971-2.042L445.569,354.861z"/>
						<g>
							<g>
								<path style="fill:#47194B;" d="M433.965,330.444c0.766-0.012,1.423-0.43,1.828-0.994c0.427-0.549,0.589-1.237,0.613-1.928
									c0.042-1.404-0.519-2.78-0.797-4.334c-0.258-1.578-0.042-3.228,0.609-4.662c0.632-1.442,1.706-2.678,3.022-3.444
									c-1.074,1.076-1.83,2.368-2.295,3.729c-0.452,1.368-0.593,2.817-0.35,4.213c0.218,1.403,0.797,2.923,0.585,4.563
									c-0.095,0.8-0.422,1.627-1.027,2.192C435.562,330.321,434.717,330.665,433.965,330.444z"/>
							</g>
							<g>
								<path style="fill:#47194B;" d="M426.124,328.208c1.194-0.231,1.945-1.227,2.255-2.221c0.303-1.04,0.228-2.172,0.114-3.332
									c-0.093-1.161-0.23-2.427,0.133-3.668c0.339-1.215,1.313-2.384,2.563-2.504c-1.09,0.534-1.62,1.629-1.802,2.678
									c-0.168,1.086-0.014,2.219,0.101,3.404c0.094,1.18,0.149,2.49-0.381,3.693c-0.263,0.604-0.686,1.122-1.208,1.494
									C427.377,328.116,426.723,328.324,426.124,328.208z"/>
							</g>
							<g>
								<path style="fill:#47194B;" d="M440.589,332.365c1.187-0.491,1.963-1.5,2.403-2.57c0.429-1.081,0.471-2.284,0.283-3.457
									c-0.146-1.203-0.63-2.283-0.944-3.597c-0.14-0.644-0.163-1.402,0.144-2.042c0.293-0.61,0.882-1.166,1.552-1.134
									c-0.616,0.202-0.974,0.744-1.092,1.301c-0.146,0.553-0.032,1.115,0.15,1.676c0.194,0.557,0.45,1.123,0.682,1.739
									c0.217,0.614,0.387,1.251,0.495,1.906c0.192,1.304,0.098,2.733-0.568,3.94C443.071,331.318,441.884,332.264,440.589,332.365
									z"/>
							</g>
						</g>
						<g>
							<path style="fill:#FFFFFF;" d="M432.085,363.788c-1.169,4.392-4.579,7.297-7.617,6.489c-3.038-0.809-4.552-5.025-3.383-9.417
								c1.169-4.392,4.579-7.297,7.617-6.489C431.739,355.18,433.254,359.396,432.085,363.788z"/>
							<path style="fill:none;stroke:#47194B;stroke-linecap:round;stroke-linejoin:round;stroke-miterlimit:10;" d="
								M424.468,370.277c0,0,5.319-2.639,2.117-7.953c-2.386-3.959,2.117-7.953,2.117-7.953"/>
						</g>
					</g>
				</g>
			</g>
			<g>
				<g>
					
						<ellipse transform="matrix(0.1602 -0.9871 0.9871 0.1602 -180.9919 253.3672)" style="fill:#F2EEFF;" cx="58.403" cy="233.049" rx="39.102" ry="39.102"/>
					<g>
						<g>
							
								<rect x="27.401" y="202.982" transform="matrix(0.2479 -0.9688 0.9688 0.2479 -176.1443 227.4146)" style="fill:#00CEBF;" width="62.004" height="48.356"/>
						</g>
						<g>
							<g>
								
									<rect x="7.742" y="218.243" transform="matrix(0.248 -0.9688 0.9688 0.248 -186.0542 204.5829)" style="fill:#FF597B;" width="62.004" height="7.771"/>
							</g>
						</g>
						<g>
							<path style="fill:#47194B;" d="M73.31,226.3c1.394-1.437,2.426-3.222,2.948-5.264c0.523-2.043,0.483-4.134-0.057-6.034
								c-0.014-0.069-0.037-0.104-0.057-0.142c-1.117-3.903-4.227-7.133-8.464-8.218c-4.208-1.077-8.488,0.262-11.371,3.141
								c-0.038,0.023-0.083,0.074-0.12,0.096c-1.385,1.407-2.418,3.191-2.949,5.265c-1.623,6.341,2.201,12.796,8.544,14.419
								c4.207,1.077,8.487-0.262,11.371-3.142C73.227,226.373,73.265,226.35,73.31,226.3L73.31,226.3z M54.271,215.983l3.879,0.993
								c-0.323,1.519-0.399,3.068-0.274,4.574l-3.517-0.9C54.008,219.148,53.964,217.568,54.271,215.983L54.271,215.983z
								 M56.867,210.851l3.517,0.9c-0.867,1.251-1.506,2.624-1.949,4.111l-3.879-0.993C55.048,213.33,55.846,211.966,56.867,210.851
								L56.867,210.851z M75.264,220.17l-3.817-0.977c0.323-1.518,0.391-3.037,0.267-4.542l3.455,0.884
								C75.529,217.004,75.573,218.583,75.264,220.17L75.264,220.17z M70.334,218.908l-4.869-1.246l1.107-4.327l3.936,1.007
								C70.706,215.834,70.668,217.36,70.334,218.908L70.334,218.908z M66.86,212.223l1.077-4.207
								c1.142,1.54,1.953,3.254,2.356,5.053l-3.425-0.877L66.86,212.223z M66.807,207.792l-1.054,4.118l-3.366-0.862
								C63.598,209.692,65.098,208.602,66.807,207.792L66.807,207.792z M65.461,213.051l-1.107,4.327l-4.808-1.23
								c0.446-1.487,1.151-2.875,2.04-4.088L65.461,213.051z M59.261,217.26l4.808,1.231l-1.115,4.358l-3.875-0.992
								C58.891,220.335,58.938,218.779,59.261,217.26L59.261,217.26z M62.669,223.959l-1.054,4.118
								c-1.122-1.503-1.901-3.208-2.312-4.98L62.669,223.959z M62.714,228.421l1.069-4.177l3.425,0.877
								C65.96,226.499,64.456,227.618,62.714,228.421L62.714,228.421z M64.067,223.133l1.116-4.358l4.869,1.246
								c-0.454,1.518-1.159,2.906-2.048,4.119L64.067,223.133z M71.162,220.306l3.817,0.977c-0.49,1.541-1.297,2.936-2.348,4.043
								l-3.425-0.877C70.039,223.188,70.716,221.793,71.162,220.306L71.162,220.306z M74.762,214.245l-3.245-0.83
								c-0.305-1.679-0.936-3.347-1.838-4.826C72.024,209.8,73.813,211.826,74.762,214.245L74.762,214.245z M65.116,207.391
								c-1.54,0.887-2.854,2.024-3.97,3.372l-3.302-0.845C59.846,208.219,62.423,207.278,65.116,207.391L65.116,207.391z
								 M54.768,221.936l3.275,0.838c0.328,1.717,0.936,3.346,1.861,4.865C57.524,226.422,55.715,224.358,54.768,221.936
								L54.768,221.936z M64.509,228.785c1.51-0.894,2.855-2.024,3.931-3.349l3.217,0.823
								C69.698,227.904,67.148,228.852,64.509,228.785L64.509,228.785z M64.509,228.785"/>
						</g>
						<g>
							
								<rect x="44.671" y="234.973" transform="matrix(0.9688 0.2479 -0.2479 0.9688 60.7437 -7.4106)" style="fill:#FFFFFF;" width="30.244" height="4.965"/>
							
								<rect x="45.96" y="242.386" transform="matrix(0.9688 0.2479 -0.2479 0.9688 62.5221 -6.7087)" style="fill:#FFFFFF;" width="23.871" height="4.965"/>
						</g>
					</g>
				</g>
				<g>
					<text transform="matrix(1 0 0 1 42.5171 286.3496)" style="fill:#47194B; font-family:'SpartanMB-Black'; font-size:9px;">TRAVEL</text>
					<g>
						<text transform="matrix(1 0 0 1 49.4067 297.3135)" style="fill:#FF597B; font-family:'SpartanMB-Bold'; font-size:9px;">25%</text>
					</g>
				</g>
			</g>
			<g>
				<g>
					<text transform="matrix(1 0 0 1 114.6605 168.8555)" style="fill:#47194B; font-family:'SpartanMB-Black'; font-size:9px;">ROCK</text>
					<g>
						<text transform="matrix(1 0 0 1 117.3201 181.3955)" style="fill:#FF597B; font-family:'SpartanMB-Bold'; font-size:9px;">15%</text>
					</g>
				</g>
				<g>
					
						<ellipse transform="matrix(0.7071 -0.7071 0.7071 0.7071 -44.7131 123.1645)" style="fill:#F2EEFF;" cx="126.316" cy="115.556" rx="39.102" ry="39.102"/>
					<g>
						<path style="fill:#CC887A;" d="M146.007,123.852l-6.085-7.606c0,0,3.381-4.835,2.028-13.083
							c-1.352-8.248-9.195-14.874-10.682-17.173c-1.124-1.737-4.101-14.668-5.489-20.885c-0.433-1.942-2.155-3.32-4.145-3.32l0,0
							c-2.61,0-4.603,2.331-4.196,4.91l3.553,22.541l-14.535,7.881L85.019,74.154c-1.576-1.689-4.213-1.808-5.936-0.269l-0.246,0.22
							c-1.687,1.507-1.896,4.072-0.477,5.833l44.254,56.718L146.007,123.852z"/>
						<path style="fill:#CC887A;" d="M103.843,84.495l-0.473,0.304c-2.107,1.357-2.717,4.164-1.364,6.274l7.959,12.406
							c1.384,2.157,4.276,2.743,6.39,1.296l0,0c1.972-1.35,2.562-3.997,1.349-6.056l-7.487-12.71
							C108.909,83.785,106.013,83.098,103.843,84.495z"/>
						<path style="fill:#CC887A;" d="M112.255,79.415l-0.483,0.288c-2.153,1.284-2.859,4.068-1.579,6.223l7.529,12.672
							c1.309,2.203,4.179,2.888,6.342,1.515l0,0c2.018-1.281,2.698-3.906,1.556-6.006l-7.046-12.96
							C117.342,78.88,114.471,78.093,112.255,79.415z"/>
						<g>
							<path style="fill:#47194B;" d="M102.007,91.073c2.135,2.946,4.178,5.951,6.207,8.965l1.517,2.264
								c0.523,0.777,0.928,1.516,1.609,1.969c1.302,0.987,3.204,1.076,4.571,0.191c1.402-0.826,2.188-2.561,1.88-4.171
								c-0.102-0.81-0.578-1.507-1.036-2.324l-1.337-2.375l-2.645-4.765c-0.85-1.607-1.73-3.197-2.554-4.819
								c1.02,1.507,1.983,3.048,2.977,4.57l2.886,4.624l1.429,2.32c0.236,0.4,0.47,0.751,0.708,1.19
								c0.237,0.438,0.415,0.914,0.505,1.408c0.411,1.979-0.55,4.147-2.287,5.191c-1.716,1.085-4.079,0.961-5.665-0.288
								c-0.398-0.304-0.75-0.67-1.031-1.082c-0.288-0.411-0.494-0.778-0.745-1.169l-1.426-2.322
								C105.675,97.351,103.795,94.242,102.007,91.073z"/>
						</g>
						<g>
							<path style="fill:#47194B;" d="M110.193,85.926c2.033,3.018,3.971,6.091,5.895,9.173l1.438,2.314
								c0.496,0.794,0.876,1.547,1.541,2.023c1.268,1.032,3.165,1.186,4.562,0.348c1.43-0.778,2.274-2.484,2.023-4.103
								c-0.074-0.813-0.526-1.526-0.956-2.358l-1.254-2.419l-2.48-4.854c-0.795-1.635-1.619-3.254-2.387-4.904
								c0.967,1.542,1.877,3.114,2.818,4.67l2.725,4.72l1.348,2.368c0.222,0.408,0.444,0.767,0.667,1.214
								c0.222,0.446,0.383,0.928,0.456,1.424c0.343,1.992-0.692,4.125-2.464,5.11c-1.752,1.025-4.109,0.82-5.652-0.482
								c-0.388-0.317-0.727-0.695-0.993-1.117c-0.274-0.421-0.467-0.794-0.704-1.194l-1.345-2.37
								C113.644,92.327,111.871,89.155,110.193,85.926z"/>
						</g>
						<path style="fill:#CC887A;" d="M121.532,138.186c0.069,0.062-1.925-7.689-9.819-11.359
							c-7.52-3.496-14.656-8.249-14.792-17.038c-0.097-6.279,8.227-12.076,12.989-14.874c1.825-1.073,4.151-0.697,5.532,0.907l0,0
							c1.517,1.763,1.384,4.407-0.304,6.009l-4.965,4.713c0,0,15.55-4.598,18.525,13.117"/>
						<g>
							<path style="fill:#47194B;" d="M96.921,109.789c-0.087-1.683,0.468-3.353,1.289-4.821c0.826-1.476,1.888-2.815,3.082-4.006
								c2.389-2.387,5.117-4.402,7.982-6.164c0.345-0.212,0.744-0.457,1.176-0.619c0.431-0.16,0.883-0.26,1.341-0.297
								c0.918-0.077,1.853,0.133,2.667,0.566c1.639,0.872,2.67,2.756,2.501,4.617c-0.069,0.923-0.41,1.833-0.981,2.567
								c-0.283,0.385-0.629,0.683-0.919,0.958l-0.914,0.858l-3.655,3.431l-0.449-0.778c2.205-0.546,4.435-0.653,6.657-0.375
								c2.211,0.296,4.374,1.135,6.149,2.492c0.483,0.288,0.848,0.72,1.257,1.096l0.6,0.58c0.184,0.206,0.337,0.44,0.507,0.659
								c0.319,0.452,0.689,0.872,0.964,1.35l0.752,1.473c0.279,0.477,0.438,1.005,0.612,1.525l0.525,1.554
								c0.247,1.063,0.425,2.142,0.634,3.206l-0.842-3.143l-0.602-1.505c-0.199-0.501-0.381-1.009-0.68-1.46l-0.807-1.391
								c-0.292-0.446-0.655-0.842-0.977-1.265c-0.17-0.204-0.322-0.424-0.505-0.616l-0.592-0.533
								c-0.402-0.344-0.759-0.745-1.228-1.001c-1.72-1.236-3.78-1.931-5.876-2.176c-2.09-0.244-4.277-0.105-6.285,0.416
								l-0.012,0.003c-0.247,0.064-0.5-0.084-0.564-0.331c-0.044-0.168,0.011-0.338,0.128-0.45l3.617-3.471l0.904-0.868
								c0.31-0.303,0.601-0.557,0.817-0.845c0.461-0.578,0.741-1.3,0.804-2.039c0.153-1.488-0.658-3.016-1.977-3.739
								c-1.33-0.737-2.996-0.643-4.306,0.286c-2.854,1.685-5.624,3.551-8.036,5.822c-1.197,1.139-2.32,2.37-3.2,3.771
								C97.605,106.52,96.97,108.107,96.921,109.789z"/>
						</g>
						<polygon style="fill:#FFB24D;" points="146.007,95.654 147.125,78.589 151.599,81.142 159.394,68.665 154.176,87.928 
							149.668,85.761 						"/>
						<polygon style="fill:#FFB24D;" points="103.019,74.264 98.006,57.913 103.094,58.711 105.952,44.281 107.913,64.141 
							102.93,63.716 						"/>
						<polygon style="fill:#FFB24D;" points="85.234,104.036 68.457,100.721 71.567,96.614 60.203,87.272 78.63,94.937 
							75.898,99.126 						"/>
						<g>
							<polygon style="fill:#47194B;" points="115.041,138.997 151.551,118.308 157.458,127.098 120.044,148.327 							"/>
							<g>
								<path style="fill:#00CEBF;" d="M123.121,141.977c0,1.066-0.864,1.931-1.931,1.931c-1.066,0-1.931-0.864-1.931-1.931
									c0-1.066,0.864-1.931,1.931-1.931C122.256,140.046,123.121,140.911,123.121,141.977z"/>
								<path style="fill:#FFB24D;" d="M130.629,137.647c0,1.066-0.865,1.931-1.931,1.931c-1.066,0-1.931-0.864-1.931-1.931
									c0-1.066,0.865-1.931,1.931-1.931C129.765,135.717,130.629,136.581,130.629,137.647z"/>
								<circle style="fill:#00CEBF;" cx="136.207" cy="133.318" r="1.931"/>
								<circle style="fill:#FFB24D;" cx="143.716" cy="128.988" r="1.931"/>
								<circle style="fill:#00CEBF;" cx="151.225" cy="124.658" r="1.931"/>
							</g>
						</g>
					</g>
				</g>
			</g>
			<g>
				<g>
					<text transform="matrix(1 0 0 1 216.7161 117.8628)" style="fill:#47194B; font-family:'SpartanMB-Black'; font-size:9px;">PHOTOGRAPHY</text>
					<g>
						<text transform="matrix(1 0 0 1 240.305 130.4029)" style="fill:#FF597B; font-family:'SpartanMB-Bold'; font-size:9px;">25%</text>
					</g>
				</g>
				<g>
					
						<ellipse transform="matrix(0.2298 -0.9732 0.9732 0.2298 129.1879 292.3611)" style="fill:#F2EEFF;" cx="249.301" cy="64.563" rx="39.102" ry="39.102"/>
					<g>
						
							<rect x="219.112" y="39.029" transform="matrix(0.9892 0.1463 -0.1463 0.9892 8.425 -32.2051)" style="fill:#47194B;" width="8.103" height="4.294"/>
						
							<rect x="231.14" y="40.808" transform="matrix(0.9892 0.1463 -0.1463 0.9892 8.8148 -33.9461)" style="fill:#47194B;" width="8.103" height="4.294"/>
						
							<rect x="276.903" y="47.576" transform="matrix(0.9892 0.1463 -0.1463 0.9892 10.2973 -40.5683)" style="fill:#47194B;" width="8.103" height="4.294"/>
						<path style="fill:#47194B;" d="M277.35,93l-63.605-9.407c-3.926-0.581-6.638-4.234-6.058-8.16l4.072-27.533
							c0.581-3.926,4.234-6.638,8.16-6.058l63.606,9.407c3.926,0.581,6.638,4.234,6.058,8.16l-4.072,27.533
							C284.93,90.869,281.277,93.581,277.35,93z"/>
						<path style="fill:#FF597B;" d="M283.525,51.249l-11.107-1.643l-0.318-3.364l-3.687-8.027l-17.263-2.553l-6.82,6.473
							l-1.278,3.128l-23.132-3.421c-3.926-0.581-7.58,2.132-8.16,6.058l-0.233,1.575l77.824,11.509l0.233-1.575
							C290.163,55.484,287.451,51.83,283.525,51.249z"/>
						<g>
							
								<ellipse transform="matrix(0.8029 -0.596 0.596 0.8029 8.4607 165.4459)" style="fill:#47194B;" cx="254.453" cy="69.927" rx="21.052" ry="21.052"/>
							<g>
								<path style="fill:#FFFFFF;" d="M275.279,73.007c-0.297,2.744-1.193,5.43-2.556,7.86c-1.388,2.419-3.269,4.56-5.493,6.271
									c-4.456,3.437-10.345,4.915-15.929,4.108c-5.58-0.842-10.788-3.965-14.059-8.542c-1.634-2.282-2.814-4.877-3.443-7.594
									c-0.6-2.721-0.681-5.551-0.17-8.263c-0.617,5.483,0.922,11.104,4.231,15.399c1.661,2.133,3.686,3.986,6.014,5.351
									c2.32,1.375,4.91,2.275,7.574,2.661c2.662,0.404,5.402,0.29,8.02-0.354c2.623-0.635,5.099-1.819,7.307-3.381
									C271.183,83.369,274.283,78.434,275.279,73.007z"/>
							</g>
							<g>
								<path style="fill:#00CEBF;" d="M272.282,72.563c-1.456,9.846-10.619,16.648-20.465,15.192
									c-9.846-1.456-16.648-10.619-15.192-20.465s10.619-16.648,20.465-15.192C266.936,53.555,273.738,62.717,272.282,72.563z"/>
							</g>
							<g style="opacity:0.4;">
								<path style="fill:#FFFFFF;" d="M272.455,69.814c-0.007-1.31-0.152-2.594-0.432-3.838l-26.436,19.624
									c1.109,0.628,2.296,1.139,3.548,1.524L272.455,69.814z"/>
								<path style="fill:#FFFFFF;" d="M267.408,57.423l-28.672,21.284c1.113,1.989,2.593,3.753,4.369,5.197l28.013-20.795
									C270.249,60.992,268.989,59.064,267.408,57.423z"/>
								<path style="fill:#FFFFFF;" d="M236.452,70.039c0.01,1.899,0.316,3.743,0.887,5.484l27.426-20.359
									c-1.502-1.051-3.178-1.877-4.993-2.436L236.452,70.039z"/>
							</g>
						</g>
					</g>
				</g>
			</g>
			<g>
				<g>
					<text transform="matrix(1 0 0 1 349.8987 167.7705)" style="fill:#47194B; font-family:'SpartanMB-Black'; font-size:9px;">DOG LOVER</text>
					<g>
						<text transform="matrix(1 0 0 1 368.2449 180.3076)" style="fill:#FF597B; font-family:'SpartanMB-Bold'; font-size:9px;">5%</text>
					</g>
				</g>
				<g>
					
						<ellipse transform="matrix(0.2326 -0.9726 0.9726 0.2326 176.1922 452.2344)" style="fill:#F2EEFF;" cx="374.663" cy="114.47" rx="39.102" ry="39.102"/>
					<g>
						<g>
							<path style="fill:#FFB24D;" d="M371.233,84.956c0,0-2.075-18.189-12.477-21.007c-10.402-2.818-19.125,11.417-19.076,17.29
								c0.049,5.873,8.912,8.696,17.594-1.825l6.428,5.613L371.233,84.956z"/>
						</g>
						<g>
							<path style="fill:#FFB24D;" d="M395.032,92.36c0,0,13.546-12.314,23.228-7.58c9.682,4.735,6.862,21.191,2.956,25.576
								c-3.907,4.385-12.434,0.668-12.032-12.966l-8.534-0.014L395.032,92.36z"/>
						</g>
						<g>
							<path style="fill:#FF597B;" d="M347.859,120.256c0,0,5.553,11.968,18.121,17.175c12.568,5.207,21.016,0.84,21.016,0.84
								L347.859,120.256z"/>
							<path style="fill:#00CEBF;" d="M368.837,139.003c0.481-0.12,0.906-0.445,1.125-0.932c0.38-0.845,0.004-1.838-0.841-2.218
								c-0.845-0.38-1.838-0.004-2.218,0.841c-0.048,0.105-0.083,0.213-0.108,0.322l-2.993-1.348c0.065-0.09,0.122-0.188,0.17-0.294
								c0.38-0.845,0.004-1.838-0.841-2.218c-0.845-0.381-1.838-0.004-2.218,0.841c-0.219,0.487-0.18,1.02,0.048,1.46
								c-0.481,0.12-0.906,0.445-1.126,0.932c-0.38,0.845-0.004,1.838,0.841,2.218c0.845,0.38,1.838,0.004,2.218-0.841
								c0.018-0.04,0.026-0.082,0.041-0.123l2.954,1.331c-0.021,0.038-0.047,0.072-0.065,0.112
								c-0.381,0.845-0.004,1.838,0.841,2.218c0.845,0.38,1.838,0.004,2.218-0.841C369.104,139.976,369.066,139.442,368.837,139.003
								z"/>
						</g>
						<g>
							<g>
								<path style="fill:#FFB24D;" d="M387.729,87.032c12.738,5.413,22.988,15.284,21.985,31.717
									c-1.003,16.433-20.928,24.814-42.972,15.31s-28.531-27.82-21.335-38.534C352.603,84.81,367.071,78.253,387.729,87.032z"/>
							</g>
						</g>
						<path style="fill:#FFFFFF;" d="M378.56,105.433c-2.134-1.304-20.933,3.951-17.055,13.477
							c3.878,9.526,18.868,11.188,22.808,5.48S382.529,107.859,378.56,105.433z"/>
						<g>
							<g>
								
									<line style="fill:none;stroke:#47194B;stroke-linecap:round;stroke-linejoin:round;stroke-miterlimit:10;" x1="377.501" y1="109" x2="375.717" y2="112.309"/>
								<path style="fill:#47194B;" d="M377.501,109c0,0-3.295-2.2-3.208-4.723c0.115-3.341,4.123-2.988,5.076,0.449
									c0,0,2.195-1.657,3.741,0.054C385.449,107.371,380.914,109.892,377.501,109z"/>
								<path style="fill:none;stroke:#47194B;stroke-linecap:round;stroke-linejoin:round;stroke-miterlimit:10;" d="
									M380.394,114.921c-0.768,0.699-2.412,1.047-3.666-0.382c-1.254-1.429-0.556-3.073-0.556-3.073s-1.387,2.43-3.744,1.818
									c-2.089-0.542-2.263-2.476-2.263-2.476"/>
							</g>
							<g>
								<g>
									<g>
										<path style="fill:#47194B;" d="M391.6,106.778c-0.352-1.212-1.126-2.417-2.329-2.859
											c-0.585-0.226-1.236-0.287-1.867-0.178c-0.317,0.038-0.622,0.153-0.935,0.225l-0.895,0.369
											c-0.025,0.01-0.053-0.002-0.063-0.026c-0.007-0.016-0.004-0.034,0.006-0.047l0.012-0.017
											c0.218-0.296,0.486-0.535,0.764-0.777c0.309-0.179,0.619-0.396,0.982-0.503c0.71-0.27,1.572-0.259,2.361,0.023
											c0.785,0.313,1.419,0.915,1.753,1.603c0.343,0.681,0.48,1.429,0.308,2.164l-0.005,0.02
											c-0.006,0.026-0.032,0.042-0.058,0.036C391.618,106.807,391.605,106.794,391.6,106.778z"/>
									</g>
								</g>
								<g>
									<g>
										<path style="fill:#47194B;" d="M368.765,96.864c0.423-0.625,1.066-1.031,1.799-1.242c0.732-0.221,1.605-0.164,2.367,0.2
											c0.743,0.389,1.335,1.015,1.619,1.719c0.167,0.339,0.218,0.714,0.297,1.062c0.012,0.368,0.018,0.727-0.052,1.088
											l-0.004,0.021c-0.005,0.026-0.03,0.043-0.056,0.038c-0.017-0.003-0.03-0.015-0.036-0.03l-0.336-0.908
											c-0.159-0.279-0.281-0.581-0.469-0.839c-0.349-0.538-0.835-0.975-1.398-1.251c-1.14-0.584-2.551-0.336-3.68,0.228
											c-0.024,0.012-0.053,0.002-0.065-0.021c-0.008-0.016-0.006-0.035,0.003-0.048L368.765,96.864z"/>
									</g>
								</g>
							</g>
							<g style="opacity:0.3;">
								<path style="fill:#FFFFFF;" d="M367.476,102.484c-4.395-1.962-5.943,1.158-1.385,3.082
									C370.216,107.308,372.336,104.655,367.476,102.484z"/>
								<path style="fill:#FFFFFF;" d="M388.872,112.505c-4.395-1.962-5.943,1.158-1.385,3.082
									C391.612,117.328,393.732,114.675,388.872,112.505z"/>
							</g>
						</g>
					</g>
				</g>
			</g>
			<g>
				<g>
					<text transform="matrix(1 0 0 1 410.6602 285.2901)" style="fill:#47194B; font-family:'SpartanMB-Black'; font-size:9px;">VIDEO GAMES</text>
					<g>
						<text transform="matrix(1 0 0 1 431.2027 297.8301)" style="fill:#FF597B; font-family:'SpartanMB-Bold'; font-size:9px;">90%</text>
					</g>
				</g>
				<g>
					<circle style="fill:#F2EEFF;" cx="440.199" cy="231.992" r="39.102"/>
					<g>
						<path style="fill:#47194B;" d="M452.899,236.052l-23.336,4.024c0,0-7.043,21.026-15.757,21.459
							c-8.713,0.432-9.232-10.04-8.875-21.171c0.357-11.131,5.257-22.154,8.999-26.159c3.742-4.005,37.138-11.125,42.748-9.79
							c5.61,1.335,12.65,8.959,15.435,14.313c2.785,5.354,10.045,20.331,8.325,23.863
							C477.822,247.963,472.944,251.189,452.899,236.052z"/>
						<g>
							<path style="fill:#FFB24D;" d="M477.495,230.193c-3.157,1.375-7.479,3.425-7.346,4.289c0.124,0.808,4.976,0.243,8.878-0.346
								C478.571,232.858,478.049,231.527,477.495,230.193z"/>
							<path style="fill:#00CEBF;" d="M476.206,227.21c-1.032-2.308-2.081-4.492-2.962-6.258c-2.271,3.106-6.813,9.503-6.359,10.384
								C467.306,232.15,472.87,229.121,476.206,227.21z"/>
							<path style="fill:#FFB24D;" d="M404.917,247.862c0.062,1.439,0.173,2.82,0.356,4.113c3.701-1.123,8.014-2.607,7.789-3.364
								C412.82,247.799,408.326,247.768,404.917,247.862z"/>
							<path style="fill:#00CEBF;" d="M404.98,237.972c-0.009,0.788-0.023,1.585-0.049,2.392c-0.046,1.449-0.077,2.885-0.078,4.289
								c3.856,0.296,9.783,0.606,9.814-0.282C414.7,243.427,408.49,239.893,404.98,237.972z"/>
						</g>
						<g style="opacity:0.4;">
							<path style="fill:#FFFFFF;" d="M475.369,246.968c-3.084-3.84-7.177-8.35-10.756-10.326c-3.738-2.064-6.911-0.168-8.78,1.568
								C465.996,245.508,471.803,247.542,475.369,246.968z"/>
							<path style="fill:#FFFFFF;" d="M419.261,248.14c-2.13,3.211-3.625,8.629-4.594,13.287
								c5.826-1.129,10.682-10.492,13.057-15.968C425.265,244.794,421.606,244.603,419.261,248.14z"/>
						</g>
						<g>
							<g>
								<path style="fill:#00CEBF;" d="M433.492,234.632L433.492,234.632c-0.558,0.095-1.086-0.28-1.181-0.838l-0.566-3.323
									c-0.095-0.557,0.28-1.087,0.838-1.181l0,0c0.557-0.095,1.086,0.28,1.181,0.838l0.566,3.323
									C434.424,234.008,434.049,234.537,433.492,234.632z"/>
								<path style="fill:#FF597B;" d="M437.888,233.883L437.888,233.883c-0.557,0.095-1.086-0.28-1.181-0.837l-0.566-3.323
									c-0.095-0.557,0.28-1.087,0.837-1.181l0,0c0.558-0.095,1.087,0.28,1.182,0.837l0.566,3.323
									C438.82,233.259,438.445,233.788,437.888,233.883z"/>
								<path style="fill:#FFB24D;" d="M442.284,233.134L442.284,233.134c-0.557,0.095-1.087-0.28-1.181-0.838l-0.566-3.323
									c-0.095-0.558,0.28-1.087,0.837-1.181l0,0c0.557-0.095,1.086,0.28,1.181,0.838l0.566,3.323
									C443.216,232.51,442.841,233.039,442.284,233.134z"/>
								<path style="fill:#FFFFFF;" d="M446.68,232.385L446.68,232.385c-0.558,0.095-1.087-0.28-1.182-0.837l-0.566-3.323
									c-0.095-0.557,0.28-1.086,0.838-1.181l0,0c0.557-0.095,1.086,0.28,1.181,0.837l0.566,3.323
									C447.612,231.761,447.237,232.29,446.68,232.385z"/>
							</g>
							<g>
								<path style="fill:#FFB24D;" d="M415.801,221.454l0.71-1.795c0.192-0.486,0.832-0.595,1.174-0.2l1.264,1.458
									c0.356,0.41,0.126,1.052-0.409,1.143l-1.974,0.337C416.03,222.488,415.601,221.958,415.801,221.454z"/>
								<path style="fill:#FFB24D;" d="M420.731,231.377l-0.71,1.794c-0.192,0.486-0.832,0.595-1.174,0.2l-1.264-1.458
									c-0.356-0.41-0.126-1.052,0.409-1.143l1.973-0.336C420.502,230.343,420.931,230.872,420.731,231.377z"/>
								<path style="fill:#FF597B;" d="M423.228,223.95l1.794,0.71c0.486,0.192,0.595,0.832,0.2,1.174l-1.458,1.264
									c-0.41,0.356-1.052,0.126-1.143-0.409l-0.336-1.973C422.194,224.18,422.723,223.751,423.228,223.95z"/>
								<path style="fill:#FF597B;" d="M413.304,228.881l-1.794-0.71c-0.486-0.192-0.595-0.832-0.2-1.174l1.458-1.264
									c0.41-0.356,1.052-0.126,1.143,0.409l0.336,1.973C414.338,228.651,413.809,229.08,413.304,228.881z"/>
								<path style="opacity:0.4;fill:#FFFFFF;" d="M421.242,225.908c0.28,1.643-0.825,3.203-2.469,3.483
									c-1.643,0.28-3.203-0.825-3.483-2.468c-0.28-1.643,0.825-3.203,2.469-3.483C419.402,223.16,420.961,224.265,421.242,225.908
									z"/>
								<path style="opacity:0.4;fill:#FFFFFF;" d="M463.109,216.656c0.526,3.088-1.55,6.018-4.638,6.544
									c-3.088,0.527-6.018-1.55-6.544-4.638c-0.526-3.088,1.55-6.018,4.638-6.544
									C459.653,211.492,462.583,213.568,463.109,216.656z"/>
							</g>
							<g>
								<path style="fill:#FF597B;" d="M454.779,211.524L454.779,211.524c0.566-1.431,2.448-1.752,3.456-0.589l0,0
									c1.047,1.208,0.371,3.096-1.205,3.365h0C455.455,214.568,454.191,213.011,454.779,211.524z"/>
								<path style="fill:#FF597B;" d="M460.443,223.891L460.443,223.891c-0.566,1.431-2.448,1.752-3.456,0.589l0,0
									c-1.047-1.208-0.371-3.096,1.205-3.365l0,0C459.767,220.848,461.031,222.405,460.443,223.891z"/>
								<path style="fill:#00CEBF;" d="M463.795,214.875L463.795,214.875c1.432,0.566,1.753,2.449,0.589,3.458h0
									c-1.208,1.047-3.097,0.371-3.366-1.205l0,0C460.75,215.551,462.308,214.287,463.795,214.875z"/>
								<path style="fill:#00CEBF;" d="M451.428,220.541L451.428,220.541c-1.432-0.566-1.753-2.449-0.589-3.458l0,0
									c1.208-1.047,3.097-0.371,3.366,1.205l0,0C454.473,219.865,452.915,221.129,451.428,220.541z"/>
							</g>
							<g style="opacity:0.4;">
								<path style="fill:#FFFFFF;" d="M432.566,220.845l-5.697,1.395l-1.326-5.412c-0.437-1.786,0.656-3.588,2.441-4.025
									l2.464-0.604L432.566,220.845z"/>
								
									<rect x="433.565" y="210.849" transform="matrix(0.9713 -0.2379 0.2379 0.9713 -38.6882 110.0258)" style="fill:#FFFFFF;" width="5.865" height="8.901"/>
								<path style="fill:#FFFFFF;" d="M448.244,217.005l-5.697,1.395l-2.117-8.645l2.464-0.604
									c1.786-0.437,3.588,0.656,4.025,2.441L448.244,217.005z"/>
							</g>
						</g>
					</g>
				</g>
			</g>
			<g>
				<g>
					<text transform="matrix(1 0 0 1 35.1838 404.7598)" style="fill:#47194B; font-family:'SpartanMB-Black'; font-size:9px;">HEALTHY FOOD</text>
					<g>
						<text transform="matrix(1 0 0 1 59.4069 417.2959)" style="fill:#FF597B; font-family:'SpartanMB-Bold'; font-size:9px;">10%</text>
					</g>
				</g>
				<g>
					<circle style="fill:#F2EEFF;" cx="68.403" cy="351.459" r="39.102"/>
					<g>
						<g>
							<path style="fill:#FFB24D;" d="M58.564,326.778c0,0,24.404,1.579,18.856,26.16C77.42,352.938,56.255,353.684,58.564,326.778z
								"/>
							<g>
								<g>
									<path style="fill:#47194B;" d="M58.564,326.778c2.223,1.576,4.237,3.432,6.139,5.387c1.914,1.948,3.655,4.062,5.266,6.269
										c0.818,1.095,1.546,2.254,2.3,3.392c0.676,1.188,1.429,2.331,2.011,3.57c1.291,2.408,2.302,4.956,3.14,7.541
										c-0.65-1.201-1.157-2.457-1.84-3.63l-0.948-1.791c-0.325-0.592-0.685-1.165-1.025-1.747
										c-1.375-2.32-2.847-4.58-4.447-6.748c-1.568-2.191-3.263-4.291-5.022-6.339c-0.878-1.026-1.788-2.025-2.72-3.006
										C60.501,328.68,59.541,327.725,58.564,326.778z"/>
								</g>
								<g>
									<path style="fill:#47194B;" d="M58.407,331.91c1.115-0.242,2.187-0.182,3.249-0.05c1.058,0.163,2.106,0.399,3.111,0.94
										c-1.115,0.244-2.187,0.184-3.249,0.05C60.46,332.685,59.412,332.449,58.407,331.91z"/>
								</g>
								<g>
									<path style="fill:#47194B;" d="M67.953,329.222c0.294,1.138,0.283,2.247,0.201,3.351c-0.114,1.101-0.301,2.195-0.795,3.262
										c-0.296-1.138-0.285-2.248-0.201-3.351C67.274,331.384,67.461,330.289,67.953,329.222z"/>
								</g>
								<g>
									<path style="fill:#47194B;" d="M70.493,331.196c0.148,1.15-0.003,2.233-0.224,3.301c-0.252,1.061-0.576,2.106-1.2,3.084
										c-0.15-1.15,0.001-2.234,0.224-3.301C69.547,333.219,69.871,332.174,70.493,331.196z"/>
								</g>
							</g>
						</g>
						<path style="fill:#47194B;" d="M96.365,332.676c0,0-19.014,34.769-21.26,39.1c-2.247,4.331,3.246,5.673,4.904,2.954
							c1.658-2.718,9.133-17.272,9.133-17.272s6.069-2.056,8.313-8.656C99.699,342.203,98.962,335.121,96.365,332.676z"/>
						<path style="fill:#47194B;" d="M51.459,352.338l13.318,21.657c0.807,1.312,2.505,1.753,3.848,1.001l0,0
							c1.433-0.803,1.902-2.642,1.028-4.032l-13.708-21.807c0,0,2.535-1.781,1.405-4.812c-0.988-2.65-7.25-11.522-8.81-13.711
							c-0.198-0.277-0.576-0.354-0.866-0.176l-0.568,0.348c-0.298,0.183-0.397,0.569-0.225,0.872l3.977,6.998
							c0.181,0.318,0.062,0.723-0.261,0.893l-0.149,0.078c-0.305,0.161-0.682,0.055-0.859-0.241l-4.035-6.762
							c-0.192-0.322-0.616-0.414-0.924-0.201l-0.536,0.369c-0.281,0.193-0.363,0.571-0.189,0.864l3.947,6.643
							c0.186,0.313,0.078,0.717-0.24,0.896l-0.116,0.065c-0.302,0.17-0.685,0.072-0.868-0.223l-4.106-6.614
							c-0.189-0.304-0.588-0.397-0.892-0.209l-0.44,0.273c-0.308,0.191-0.4,0.597-0.203,0.902l4.169,6.468
							c0.193,0.3,0.108,0.699-0.191,0.894l0,0c-0.296,0.193-0.692,0.113-0.89-0.18l-4.384-6.476c-0.2-0.296-0.602-0.374-0.898-0.174
							l-0.489,0.329c-0.28,0.188-0.369,0.559-0.204,0.853c1.279,2.283,6.403,11.377,7.784,13.073
							C47.585,352.285,50.193,353.346,51.459,352.338z"/>
						<path style="fill:#00CEBF;" d="M72.217,352.659c0,0-5.499-4.579-0.366-14.132c4.488-8.353,15.301-7.388,15.301-7.388
							s3.023,8.473-2.791,16.521C78.548,355.708,72.217,352.659,72.217,352.659z"/>
						<g>
							<g>
								<path style="fill:#47194B;" d="M72.217,352.659c1.075-1.911,2.24-3.759,3.419-5.598c1.17-1.845,2.404-3.646,3.638-5.447
									c1.254-1.787,2.509-3.573,3.828-5.314l1.981-2.61c0.691-0.849,1.353-1.718,2.068-2.55c-0.529,0.961-1.111,1.886-1.665,2.83
									l-1.752,2.77c-1.17,1.845-2.404,3.646-3.639,5.446c-1.255,1.786-2.51,3.572-3.83,5.314
									C74.955,349.245,73.631,350.984,72.217,352.659z"/>
							</g>
							<g>
								<path style="fill:#47194B;" d="M82.634,331.404c0.384,1.06,0.462,2.118,0.468,3.174c-0.025,1.056-0.124,2.112-0.531,3.164
									c-0.386-1.06-0.464-2.118-0.468-3.174C82.13,333.511,82.229,332.456,82.634,331.404z"/>
							</g>
							<g>
								<path style="fill:#47194B;" d="M79.371,332.738c0.602,1.178,0.903,2.409,1.133,3.651c0.199,1.248,0.325,2.508,0.148,3.82
									c-0.604-1.178-0.905-2.408-1.133-3.651C79.322,335.31,79.196,334.05,79.371,332.738z"/>
							</g>
							<g>
								<path style="fill:#47194B;" d="M77.312,345.085c1.47-0.49,2.959-0.674,4.453-0.787c1.496-0.082,2.996-0.09,4.517,0.21
									c-1.469,0.492-2.959,0.677-4.453,0.787C80.333,345.375,78.832,345.382,77.312,345.085z"/>
							</g>
							<g>
								<path style="fill:#47194B;" d="M71.635,338.947c0.858,1.633,1.42,3.347,1.914,5.08c0.463,1.741,0.855,3.502,0.95,5.345
									c-0.86-1.633-1.422-3.346-1.914-5.08C72.124,342.55,71.732,340.789,71.635,338.947z"/>
							</g>
						</g>
					</g>
				</g>
			</g>
		</g>
		<g>
			<g>
				<circle style="fill:#F2EEFF;" cx="250" cy="282.004" r="139.03"/>
				<circle style="fill:#F2EEFF;" cx="250" cy="282.004" r="120.111"/>
			</g>
			<g>
				<g>
					<g>
						<g>
							<path style="fill:#CC887A;" d="M281.658,287.567c0,0,0,40.487,0,46.052s10.232,22.591,31.513,28.811
								c21.281,6.221,76.284,17.68,74.647,96.256H112.147c0,0-0.327-34.377,9.495-51.729c9.822-17.352,31.103-33.068,52.712-38.961
								c21.608-5.893,36.014-14.078,40.598-21.281c4.584-7.203,5.178-21.608,5.178-21.608L281.658,287.567z"/>
						</g>
						<path style="opacity:0.3;fill:#CC887A;" d="M239.075,357.503c27.721-5.655,38.924-19.542,42.583-33.537
							c0-13.746,0-36.399,0-36.399l-10.672,6.511c-2.461,4.972-9.243,10.888-17.163,10.472l-33.694,20.557
							c0,0-0.595,14.406-5.178,21.608c-2.033,3.195-6.003,6.583-11.672,9.879C213.391,359.469,225.483,360.276,239.075,357.503z"/>
						<g>
							<path style="fill:#00CEBF;" d="M121.642,406.957c9.822-17.352,31.103-33.068,52.712-38.961
								c3.813-1.04,7.395-2.152,10.745-3.316c7.002,6.589,19.898,14.403,42.952,17.395c35.144,4.56,66.989-15.273,77.349-22.589
								c2.405,1.132,4.992,2.132,7.772,2.945c21.281,6.221,76.284,17.68,74.647,96.256H112.147
								C112.147,458.687,111.82,424.31,121.642,406.957z"/>
							<g style="opacity:0.5;">
								<path style="fill:#FFFFFF;" d="M170.548,426.269c4.806,0,4.814-7.469,0-7.469
									C165.742,418.8,165.734,426.269,170.548,426.269z"/>
								<path style="fill:#FFFFFF;" d="M170.548,454.864c4.806,0,4.814-7.469,0-7.469
									C165.742,447.396,165.734,454.864,170.548,454.864z"/>
								<path style="fill:#FFFFFF;" d="M289.665,418.8c-4.806,0-4.814,7.469,0,7.469C294.471,426.269,294.479,418.8,289.665,418.8z"
									/>
								<path style="fill:#FFFFFF;" d="M209.713,427.371c4.806,0,4.814-7.469,0-7.469
									C204.907,419.902,204.899,427.371,209.713,427.371z"/>
								<path style="fill:#FFFFFF;" d="M209.713,455.967c4.806,0,4.814-7.469,0-7.469
									C204.907,448.498,204.899,455.967,209.713,455.967z"/>
								<path style="fill:#FFFFFF;" d="M209.713,391.663c-4.806,0-4.814,7.469,0,7.469
									C214.519,399.132,214.527,391.663,209.713,391.663z"/>
								<path style="fill:#FFFFFF;" d="M129.889,398.029c3.303,0,4.339-3.527,3.102-5.734c-1.718,1.727-3.339,3.502-4.843,5.317
									C128.636,397.868,129.209,398.029,129.889,398.029z"/>
								<path style="fill:#FFFFFF;" d="M170.548,390.56c-4.806,0-4.814,7.469,0,7.469
									C175.354,398.029,175.362,390.56,170.548,390.56z"/>
								<path style="fill:#FFFFFF;" d="M129.889,426.269c4.806,0,4.814-7.469,0-7.469
									C125.083,418.8,125.075,426.269,129.889,426.269z"/>
								<path style="fill:#FFFFFF;" d="M129.889,454.864c4.806,0,4.814-7.469,0-7.469
									C125.083,447.396,125.075,454.864,129.889,454.864z"/>
								<path style="fill:#FFFFFF;" d="M330.3,454.864c4.806,0,4.814-7.469,0-7.469C325.494,447.396,325.486,454.864,330.3,454.864z
									"/>
								<path style="fill:#FFFFFF;" d="M330.3,426.269c4.806,0,4.814-7.469,0-7.469C325.494,418.8,325.486,426.269,330.3,426.269z"
									/>
								<path style="fill:#FFFFFF;" d="M370.952,447.396c-4.806,0-4.814,7.469,0,7.469
									C375.758,454.864,375.766,447.396,370.952,447.396z"/>
								<path style="fill:#FFFFFF;" d="M330.3,390.56c-4.806,0-4.814,7.469,0,7.469C335.105,398.029,335.113,390.56,330.3,390.56z"
									/>
								<path style="fill:#FFFFFF;" d="M289.665,454.864c4.806,0,4.814-7.469,0-7.469
									C284.859,447.396,284.851,454.864,289.665,454.864z"/>
								<path style="fill:#FFFFFF;" d="M370.952,418.8c-4.806,0-4.814,7.469,0,7.469C375.758,426.269,375.766,418.8,370.952,418.8z"
									/>
								<path style="fill:#FFFFFF;" d="M370.952,398.029c0.507,0,0.949-0.098,1.349-0.247c-1.39-1.991-2.842-3.869-4.35-5.631
									C366.577,394.344,367.567,398.029,370.952,398.029z"/>
								<path style="fill:#FFFFFF;" d="M250.042,454.864c4.806,0,4.814-7.469,0-7.469
									C245.236,447.396,245.228,454.864,250.042,454.864z"/>
								<path style="fill:#FFFFFF;" d="M289.665,390.56c-4.806,0-4.814,7.469,0,7.469
									C294.471,398.029,294.479,390.56,289.665,390.56z"/>
								<path style="fill:#FFFFFF;" d="M250.042,390.56c-4.806,0-4.814,7.469,0,7.469
									C254.848,398.029,254.856,390.56,250.042,390.56z"/>
								<path style="fill:#FFFFFF;" d="M250.042,426.269c4.806,0,4.814-7.469,0-7.469
									C245.236,418.8,245.228,426.269,250.042,426.269z"/>
							</g>
							<g style="opacity:0.5;">
								<path style="fill:#00CEBF;" d="M149.901,392.06c6.643,0,10-4.024,12.697-7.258c2.526-3.028,4.111-4.742,7.321-4.742
									c3.208,0,4.793,1.713,7.319,4.741c2.697,3.234,6.053,7.259,12.695,7.259c6.643,0,9.999-4.024,12.696-7.259
									c2.525-3.028,4.111-4.741,7.32-4.741c3.211,0,4.796,1.714,7.322,4.742c2.697,3.233,6.054,7.258,12.697,7.258
									c6.643,0,9.999-4.024,12.696-7.258c0.73-0.876,1.381-1.628,2.016-2.274c-3.114,0.216-6.28,0.271-9.486,0.141
									c-1.532,1.538-2.983,2.39-5.225,2.39c-2.801,0-4.365-1.305-6.396-3.649c-8.584-1.426-15.625-3.543-21.388-5.976
									c-2.037,1.416-3.569,3.25-4.932,4.883c-2.525,3.028-4.111,4.742-7.32,4.742c-3.208,0-4.793-1.713-7.319-4.741
									c-2.697-3.234-6.053-7.259-12.695-7.259c-6.643,0-10,4.025-12.697,7.258c-2.526,3.028-4.111,4.742-7.321,4.742
									c-2.323,0-3.797-0.909-5.391-2.554c-1.917,1.382-3.774,2.824-5.558,4.32C141.401,389.503,144.605,392.06,149.901,392.06z"/>
								<path style="fill:#00CEBF;" d="M387.53,445.501c-1.685-0.709-2.988-2.152-4.727-4.236c-2.698-3.233-6.056-7.258-12.7-7.258
									c-6.644,0-10.001,4.024-12.698,7.258c-2.527,3.028-4.113,4.742-7.324,4.742c-3.21,0-4.796-1.714-7.323-4.742
									c-2.697-3.233-6.054-7.258-12.698-7.258c-6.643,0-10.001,4.024-12.698,7.258c-2.526,3.028-4.112,4.742-7.323,4.742
									c-3.211,0-4.797-1.714-7.323-4.742c-2.697-3.233-6.055-7.258-12.698-7.258c-6.643,0-10,4.024-12.697,7.258
									c-2.526,3.028-4.111,4.742-7.321,4.742c-3.21,0-4.795-1.714-7.321-4.742c-2.697-3.233-6.054-7.258-12.697-7.258
									c-6.643,0-9.999,4.024-12.696,7.258c-2.525,3.029-4.111,4.742-7.32,4.742c-3.211,0-4.796-1.714-7.322-4.742
									c-2.697-3.233-6.054-7.258-12.697-7.258c-6.642,0-9.998,4.024-12.696,7.258c-2.525,3.028-4.111,4.742-7.32,4.742
									c-3.208,0-4.793-1.713-7.319-4.741c-2.697-3.234-6.053-7.259-12.695-7.259c-6.643,0-10,4.024-12.697,7.258
									c-2.526,3.028-4.111,4.742-7.321,4.742c-3.209,0-4.795-1.713-7.321-4.742c-2.697-3.233-6.054-7.258-12.697-7.258
									c-6.643,0-9.999,4.024-12.696,7.258c-1.668,2-2.934,3.412-4.521,4.15c-0.207,2.814-0.333,5.333-0.408,7.403
									c5.097-0.829,7.952-4.249,10.304-7.07c2.526-3.028,4.111-4.741,7.32-4.741c3.21,0,4.795,1.714,7.322,4.742
									c2.697,3.233,6.054,7.258,12.696,7.258c6.643,0,10-4.024,12.697-7.258c2.526-3.028,4.111-4.742,7.321-4.742
									c3.208,0,4.793,1.713,7.319,4.741c2.697,3.234,6.053,7.259,12.695,7.259c6.643,0,9.999-4.024,12.696-7.259
									c2.525-3.028,4.111-4.741,7.32-4.741c3.211,0,4.796,1.714,7.322,4.742c2.697,3.233,6.054,7.258,12.697,7.258
									c6.643,0,9.999-4.024,12.696-7.258c2.525-3.029,4.111-4.742,7.32-4.742c3.21,0,4.795,1.714,7.321,4.742
									c2.697,3.233,6.054,7.258,12.697,7.258c6.643,0,10-4.024,12.697-7.258c2.526-3.028,4.111-4.742,7.321-4.742
									c3.21,0,4.796,1.714,7.323,4.742c2.697,3.233,6.055,7.258,12.698,7.258c6.643,0,10-4.024,12.698-7.258
									c2.526-3.028,4.112-4.742,7.323-4.742c3.211,0,4.796,1.714,7.323,4.742c2.697,3.233,6.054,7.258,12.698,7.258
									c6.644,0,10.001-4.024,12.699-7.258c2.527-3.028,4.112-4.742,7.323-4.742c3.211,0,4.798,1.714,7.325,4.742
									c2.366,2.836,5.242,6.28,10.397,7.083C387.786,450.318,387.688,447.873,387.53,445.501z"/>
								<path style="fill:#00CEBF;" d="M257.304,384.803c2.697,3.233,6.054,7.258,12.697,7.258c6.643,0,10-4.024,12.697-7.258
									c2.526-3.028,4.111-4.742,7.321-4.742c3.21,0,4.796,1.714,7.323,4.742c2.697,3.233,6.055,7.258,12.698,7.258
									c6.643,0,10-4.024,12.698-7.258c2.526-3.028,4.112-4.742,7.323-4.742c3.211,0,4.796,1.714,7.323,4.742
									c2.697,3.233,6.054,7.258,12.698,7.258c5.929,0,9.238-3.204,11.799-6.192c-1.753-1.61-3.55-3.102-5.374-4.489
									c-2.045,2.364-3.611,3.681-6.425,3.681c-3.21,0-4.796-1.714-7.323-4.742c-2.697-3.233-6.054-7.258-12.698-7.258
									c-6.643,0-10.001,4.025-12.698,7.258c-2.526,3.028-4.112,4.742-7.323,4.742c-3.211,0-4.797-1.714-7.323-4.742
									c-2.697-3.233-6.055-7.258-12.698-7.258c-6.643,0-10,4.025-12.697,7.258c-2.526,3.028-4.111,4.742-7.321,4.742
									c-3.21,0-4.795-1.714-7.321-4.742c-0.173-0.208-0.35-0.419-0.53-0.633c-2.64,0.668-5.351,1.246-8.12,1.717
									C255.094,382.207,256.091,383.349,257.304,384.803z"/>
								<path style="fill:#00CEBF;" d="M122.563,415.275c2.526-3.028,4.111-4.741,7.32-4.741c3.21,0,4.795,1.714,7.322,4.742
									c2.697,3.233,6.054,7.258,12.696,7.258c6.643,0,10-4.024,12.697-7.258c2.526-3.028,4.111-4.742,7.321-4.742
									c3.208,0,4.793,1.713,7.319,4.741c2.697,3.234,6.053,7.259,12.695,7.259c6.643,0,9.999-4.024,12.696-7.259
									c2.525-3.028,4.111-4.741,7.32-4.741c3.211,0,4.796,1.714,7.322,4.742c2.697,3.233,6.054,7.258,12.697,7.258
									c6.643,0,9.999-4.024,12.696-7.258c2.525-3.029,4.111-4.742,7.32-4.742c3.21,0,4.795,1.714,7.321,4.742
									c2.697,3.233,6.054,7.258,12.697,7.258c6.643,0,10-4.024,12.697-7.258c2.526-3.028,4.111-4.742,7.321-4.742
									c3.21,0,4.796,1.714,7.323,4.742c2.697,3.233,6.055,7.258,12.698,7.258c6.643,0,10-4.024,12.698-7.258
									c2.526-3.028,4.112-4.742,7.323-4.742c3.211,0,4.796,1.714,7.323,4.742c2.697,3.233,6.054,7.258,12.698,7.258
									c6.644,0,10.001-4.024,12.699-7.258c2.527-3.028,4.112-4.742,7.323-4.742c3.211,0,4.798,1.714,7.325,4.742
									c1.547,1.854,3.315,3.966,5.792,5.432c-1.716-5.701-3.852-10.812-6.308-15.404c-1.823-1.059-4.025-1.77-6.809-1.77
									c-6.644,0-10.001,4.024-12.698,7.258c-2.527,3.028-4.113,4.742-7.324,4.742c-3.21,0-4.796-1.714-7.323-4.742
									c-2.697-3.233-6.054-7.258-12.698-7.258c-6.643,0-10.001,4.024-12.698,7.258c-2.526,3.028-4.112,4.742-7.323,4.742
									c-3.211,0-4.797-1.714-7.323-4.742c-2.697-3.233-6.055-7.258-12.698-7.258c-6.643,0-10,4.024-12.697,7.258
									c-2.526,3.028-4.111,4.742-7.321,4.742c-3.21,0-4.795-1.714-7.321-4.742c-2.697-3.233-6.054-7.258-12.697-7.258
									c-6.643,0-9.999,4.024-12.696,7.258c-2.525,3.029-4.111,4.742-7.32,4.742c-3.211,0-4.796-1.714-7.322-4.742
									c-2.697-3.233-6.054-7.258-12.697-7.258c-6.642,0-9.998,4.024-12.696,7.258c-2.525,3.028-4.111,4.742-7.32,4.742
									c-3.208,0-4.793-1.713-7.319-4.741c-2.697-3.234-6.053-7.259-12.695-7.259c-6.643,0-10,4.024-12.697,7.258
									c-2.526,3.028-4.111,4.742-7.321,4.742c-3.209,0-4.795-1.713-7.321-4.742c-2.697-3.233-6.054-7.258-12.697-7.258
									c-3.166,0-5.58,0.919-7.537,2.226c-0.239,0.398-0.478,0.797-0.704,1.197c-2.248,3.971-3.959,8.837-5.269,13.975
									C119.059,419.463,120.934,417.228,122.563,415.275z"/>
							</g>
							<path style="fill:#47194B;" d="M243.283,391.031c-37.889,1.261-55.903-17.009-60.941-25.424
								c0.935-0.305,1.856-0.614,2.757-0.927c7.002,6.589,19.898,14.403,42.952,17.395c35.144,4.56,66.989-15.273,77.349-22.589
								c0.701,0.33,1.422,0.645,2.154,0.951C302.397,367.202,284.996,389.643,243.283,391.031z"/>
						</g>
					</g>
				</g>
				<g>
					<g>
						<g>
							<g>
								<path style="fill:#CC887A;" d="M208.323,333.265c27.822,5.226,73.335-15.696,73.335-33.729s0-67.596,0-80.301
									c0-12.705-28.399-40.573-65.582-35.04s-46.898,20.901-44.812,40.368s1.857,44.814-0.41,60.592
									C168.418,302.097,180.501,328.039,208.323,333.265z"/>
							</g>
							<path style="opacity:0.3;fill:#CC887A;" d="M216.076,184.195c-37.182,5.533-46.898,20.901-44.812,40.368
								c0.182,1.695,0.345,3.437,0.491,5.211c0.092-0.75,2.887-22.698,15.374-22.698c12.704,0,18.944,8.915,40.118,7.132
								c21.173-1.783,27.637-7.801,36.774-5.795c9.138,2.006,8.692,16.493,7.801,31.202c-0.266,4.385,3.866,7.422,9.836,8.765
								c0-12.742,0-23.985,0-29.146C281.658,206.531,253.259,178.663,216.076,184.195z"/>
						</g>
						<g>
							<path style="fill:#47194B;" d="M272.468,232.623c0,0-1.912,9.906,0.419,48.327c0.362,5.971-11.842,19.205-24.719,12.446
								c-12.877-6.759-14.779-18.456-36.862-18.977c-22.083-0.521-18.166,14.794-28.203,16.912
								c-10.038,2.118-12.555-3.764-12.555-3.764s-4.029,20.741,2.109,35.6c6.138,14.859,31.558,32.325,67.335,25.026
								s44.051-28.309,44.085-45.567c0.034-17.258-3.218-54.686-3.218-54.686L272.468,232.623z"/>
							<g style="opacity:0.4;">
								<g>
									<path style="fill:#FFFFFF;" d="M210.644,284.962c-0.154,2.598-0.256,5.195-0.265,7.794l-0.019,3.895l0.079,3.893
										c0.158,5.188,0.495,10.369,1.122,15.516c0.253,2.581,0.646,5.143,1.033,7.708c0.192,1.282,0.469,2.549,0.7,3.825
										c0.239,1.274,0.471,2.55,0.772,3.811l0.849,3.798l1.028,3.754l0.497,1.885l0.598,1.853l1.18,3.72
										c-1.969-4.813-3.718-9.75-4.901-14.835c-1.249-5.066-2.149-10.22-2.748-15.404c-0.547-5.189-0.901-10.402-0.895-15.618
										C209.684,295.342,209.929,290.122,210.644,284.962z"/>
								</g>
								<g>
									<path style="fill:#FFFFFF;" d="M202.381,284.618c-0.317,2.533-0.595,5.068-0.771,7.611c-0.22,2.538-0.377,5.081-0.46,7.625
										c-0.182,5.086-0.215,10.177,0.114,15.251c0.297,5.074,0.935,10.119,1.923,15.102c0.613,2.459,1.101,4.965,1.977,7.352
										c0.666,2.466,1.78,4.755,2.726,7.133c-2.473-4.478-4.202-9.343-5.454-14.317c-1.155-5-1.792-10.101-2.169-15.211
										c-0.247-5.119-0.23-10.246,0.119-15.351C200.75,294.711,201.335,289.62,202.381,284.618z"/>
								</g>
								<g>
									<path style="fill:#FFFFFF;" d="M193.603,285.306c-1.01,4.737-1.537,9.551-1.768,14.367
										c-0.217,4.815-0.205,9.647,0.286,14.441c0.397,4.798,1.107,9.578,2.218,14.27c0.988,4.727,2.525,9.309,4.084,13.898
										l-1.406-3.352c-0.457-1.123-0.956-2.233-1.316-3.393c-0.759-2.305-1.552-4.605-2.11-6.973
										c-1.276-4.695-1.987-9.527-2.466-14.365c-0.412-4.848-0.439-9.73-0.055-14.576c0.191-2.423,0.501-4.835,0.877-7.233
										C192.401,290.005,192.87,287.619,193.603,285.306z"/>
								</g>
								<g>
									<path style="fill:#FFFFFF;" d="M181.898,295.806c-0.099,1.741-0.19,3.476-0.18,5.214c-0.034,1.736-0.011,3.471,0.052,5.203
										c0.138,3.464,0.41,6.917,0.889,10.342c0.432,3.434,1.209,6.807,2.098,10.146l0.751,2.484
										c0.253,0.828,0.603,1.62,0.896,2.436c0.524,1.662,1.374,3.178,2.034,4.798c-1.817-2.972-3.335-6.155-4.416-9.492
										c-1.077-3.332-1.893-6.76-2.353-10.234c-0.461-3.472-0.709-6.973-0.665-10.47
										C181.048,302.739,181.276,299.241,181.898,295.806z"/>
								</g>
								<g>
									<path style="fill:#FFFFFF;" d="M173.807,295.118c-0.623,2.678-0.897,5.405-0.959,8.123
										c-0.032,2.718,0.087,5.439,0.509,8.122c0.069,0.676,0.231,1.337,0.341,2.007c0.117,0.669,0.241,1.336,0.418,1.992
										l0.476,1.983l0.587,1.955c0.771,2.617,1.857,5.125,2.931,7.662c-0.698-1.181-1.405-2.37-2.03-3.601
										c-0.554-1.262-1.19-2.498-1.629-3.813c-1.035-2.576-1.625-5.306-2.083-8.04c-0.406-2.748-0.502-5.542-0.285-8.305
										c0.102-1.382,0.305-2.755,0.557-4.114C172.952,297.741,173.276,296.392,173.807,295.118z"/>
								</g>
								<g>
									<path style="fill:#FFFFFF;" d="M222.865,282.38c-0.377,2.68-0.687,5.366-0.911,8.058c-0.251,2.689-0.433,5.384-0.543,8.08
										c-0.222,5.391-0.249,10.791,0.151,16.165c0.322,5.377,1.072,10.725,2.309,15.963c1.245,5.233,3.083,10.338,5.707,15.078
										c-1.492-2.261-2.73-4.686-3.828-7.172c-1.053-2.507-1.894-5.097-2.625-7.717c-1.406-5.259-2.157-10.67-2.56-16.085
										c-0.319-5.424-0.307-10.864,0.082-16.275C221.048,293.067,221.71,287.673,222.865,282.38z"/>
								</g>
								<g>
									<path style="fill:#FFFFFF;" d="M231.299,285.134c-0.132,2.537-0.238,5.071-0.23,7.607c-0.038,2.535-0.005,5.069,0.076,7.6
										c0.167,5.062,0.501,10.117,1.134,15.136c0.527,5.035,1.51,10.003,2.64,14.93l0.946,3.675
										c0.309,1.228,0.755,2.413,1.122,3.625c0.666,2.452,1.729,4.756,2.573,7.157c-2.231-4.563-4.065-9.34-5.387-14.265
										c-0.386-1.217-0.619-2.471-0.916-3.711c-0.287-1.242-0.578-2.483-0.78-3.741l-0.669-3.764l-0.522-3.786
										c-0.554-5.064-0.905-10.152-0.908-15.243C230.387,295.266,230.614,290.172,231.299,285.134z"/>
								</g>
								<g>
									<path style="fill:#FFFFFF;" d="M240.767,293.052c-0.069,2.159-0.124,4.314-0.107,6.471
										c-0.018,2.155-0.006,4.309,0.071,6.461c0.134,4.302,0.307,8.605,0.822,12.873c0.452,4.269,1.047,8.535,2.087,12.7
										c0.196,1.059,0.545,2.073,0.827,3.109l0.445,1.548c0.151,0.515,0.37,1.006,0.548,1.512c0.39,0.997,0.677,2.046,1.154,3.009
										c0.469,0.966,0.928,1.941,1.382,2.924c-2.357-3.638-3.913-7.743-5.101-11.91c-0.278-1.048-0.55-2.1-0.805-3.155
										l-0.608-3.196c-0.224-1.063-0.348-2.14-0.508-3.212c-0.152-1.073-0.322-2.145-0.415-3.224
										c-0.436-4.313-0.625-8.644-0.595-12.971C240.013,301.666,240.21,297.34,240.767,293.052z"/>
								</g>
								<g>
									<path style="fill:#FFFFFF;" d="M275.537,289.782c1.363,2.618,2.296,5.451,2.98,8.33c0.703,2.88,1.058,5.844,1.137,8.812
										c0.075,1.484-0.04,2.97-0.101,4.452c-0.192,1.473-0.277,2.96-0.635,4.405c-0.162,0.724-0.273,1.457-0.475,2.17
										l-0.616,2.133c-0.195,0.713-0.483,1.397-0.76,2.081c-0.271,0.687-0.553,1.368-0.842,2.043
										c0.789-2.84,1.589-5.655,1.935-8.556c0.241-1.437,0.318-2.894,0.449-4.341c0.031-1.454,0.137-2.907,0.047-4.361
										c-0.053-2.908-0.373-5.81-0.888-8.682c-0.257-1.436-0.573-2.863-0.949-4.277
										C276.466,292.569,276.03,291.17,275.537,289.782z"/>
								</g>
								<g>
									<path style="fill:#FFFFFF;" d="M267.275,295.979c1.216,2.905,2.066,5.955,2.732,9.037c0.669,3.086,1.053,6.232,1.225,9.39
										c0.179,3.159,0.006,6.339-0.439,9.469c-0.424,3.139-1.32,6.197-2.486,9.112c0.32-1.547,0.851-3.022,1.044-4.582
										c0.133-0.77,0.307-1.53,0.415-2.302l0.263-2.323c0.258-3.101,0.402-6.216,0.204-9.327c-0.144-3.11-0.496-6.211-0.979-9.297
										c-0.249-1.542-0.535-3.079-0.877-4.606C268.077,299.013,267.682,297.498,267.275,295.979z"/>
								</g>
								<g>
									<path style="fill:#FFFFFF;" d="M258.841,299.421c0.891,3.016,1.557,6.091,2.14,9.18c0.59,3.089,1.016,6.207,1.359,9.335
										c0.319,3.13,0.507,6.276,0.528,9.425c0.01,3.148-0.154,6.3-0.583,9.413c-0.031-1.575,0.054-3.137-0.03-4.703
										c0.002-1.564-0.084-3.127-0.156-4.688c-0.201-3.12-0.414-6.236-0.753-9.345c-0.315-3.11-0.713-6.212-1.12-9.315
										c-0.205-1.552-0.43-3.102-0.673-4.649C259.344,302.519,259.077,300.975,258.841,299.421z"/>
								</g>
								<g>
									<path style="fill:#FFFFFF;" d="M251.095,299.077c-0.075,1.767-0.152,3.529-0.149,5.294
										c-0.036,1.762-0.029,3.524,0.006,5.285c0.083,3.52,0.248,7.035,0.567,10.535c0.271,3.507,0.803,6.982,1.392,10.447
										l0.501,2.59c0.172,0.863,0.412,1.709,0.611,2.567c0.34,1.734,0.94,3.391,1.375,5.111c-1.367-3.26-2.471-6.647-3.24-10.113
										c-0.774-3.462-1.338-6.977-1.635-10.513c-0.296-3.535-0.437-7.084-0.337-10.627
										C250.282,306.112,250.524,302.571,251.095,299.077z"/>
								</g>
							</g>
						</g>
						<g>
							<g>
								<g>
									<path style="fill:#47194B;" d="M226.378,247.94c1.489-2.071,3.564-3.747,5.906-4.902c2.34-1.165,5-1.814,7.662-1.736
										c2.643,0.129,5.29,0.714,7.585,1.967c0.601,0.255,1.151,0.597,1.683,0.969l1.597,1.086
										c0.985,0.826,1.915,1.712,2.796,2.615c-1.16-0.558-2.223-1.212-3.321-1.785l-1.689-0.76l-0.829-0.391
										c-0.275-0.131-0.576-0.201-0.861-0.304c-0.579-0.187-1.151-0.38-1.715-0.59c-0.575-0.173-1.172-0.261-1.752-0.397
										l-0.871-0.202l-0.887-0.087c-0.592-0.033-1.179-0.176-1.772-0.123c-2.371-0.109-4.736,0.379-7.013,1.167
										C230.618,245.28,228.444,246.467,226.378,247.94z"/>
								</g>
								<path style="fill:#47194B;" d="M237.052,247.646c0,3.68,2.984,6.664,6.664,6.664s6.664-2.983,6.664-6.664
									c0-0.801-0.164-1.558-0.423-2.269c-3.715-2.22-7.142-3.059-10.168-3.091C238.137,243.499,237.052,245.439,237.052,247.646z"
									/>
							</g>
							<g>
								<g>
									<path style="fill:#47194B;" d="M176.826,245.244c1.606-1.489,3.584-2.623,5.745-3.258c2.154-0.666,4.48-0.815,6.73-0.506
										c2.249,0.339,4.404,1.123,6.33,2.242c1.946,1.093,3.612,2.584,5.054,4.219c-1.965-0.987-3.796-2.051-5.746-2.82
										c-1.938-0.768-3.903-1.39-5.92-1.661c-2.01-0.312-4.057-0.267-6.095,0.041
										C180.877,243.809,178.872,244.458,176.826,245.244z"/>
								</g>
								<path style="fill:#47194B;" d="M184.129,247.646c0,3.68,2.984,6.664,6.664,6.664c3.68,0,6.664-2.983,6.664-6.664
									c0-0.801-0.164-1.558-0.423-2.269c-3.715-2.22-7.142-3.059-10.168-3.091C185.214,243.499,184.129,245.439,184.129,247.646z"
									/>
							</g>
							<g>
								<g>
									<g>
										<path style="fill:#FFFFFF;" d="M196.807,295.336c1.919,1.34,3.932,2.396,6.032,3.106c0.537,0.142,1.049,0.346,1.586,0.461
											c0.539,0.103,1.065,0.259,1.606,0.32c0.543,0.047,1.079,0.136,1.619,0.191l1.628-0.001
											c0.542,0.014,1.081-0.096,1.623-0.135c0.27-0.033,0.544-0.043,0.811-0.094c0.266-0.064,0.53-0.135,0.799-0.189
											c0.532-0.129,1.084-0.193,1.606-0.375c0.519-0.191,1.045-0.366,1.579-0.535c0.545-0.141,1.04-0.408,1.556-0.634
											l1.563-0.682c1.014-0.519,2.006-1.1,3.087-1.595c-0.805,0.842-1.664,1.654-2.565,2.426l-1.468,1.007
											c-0.493,0.338-0.992,0.668-1.545,0.906c-2.115,1.155-4.538,1.743-6.982,1.896c-2.46,0.097-4.927-0.473-7.099-1.533
											C200.069,298.824,198.148,297.272,196.807,295.336z"/>
									</g>
								</g>
							</g>
							<g>
								<path style="fill:#CC887A;" d="M210.128,245.725c0,0,2.18,11.662-3.117,18.247c-5.297,6.585-9.855,6.871-9.437,11.023
									c0.418,4.151,8.018,6.34,13.732,5.583c4.556-0.604,8.079-2.005,8.079-5.022"/>
								<path style="fill:#47194B;" d="M210.128,245.725c0.626,2.452,0.88,4.997,0.879,7.555c-0.037,2.554-0.377,5.153-1.314,7.626
									c-0.468,1.233-1.095,2.427-1.913,3.504c-0.788,1.04-1.643,2.009-2.553,2.938c-0.915,0.92-1.902,1.767-2.896,2.568
									c-0.982,0.802-2.014,1.556-2.782,2.349c-0.791,0.795-1.108,1.57-1.006,2.627c0.077,0.91,0.695,1.762,1.563,2.451
									c1.768,1.381,4.191,2.09,6.558,2.477c2.4,0.382,4.856,0.269,7.289-0.204c1.205-0.23,2.397-0.57,3.45-1.167
									c1.045-0.58,1.906-1.601,1.98-2.894c0.048,0.628-0.073,1.287-0.382,1.869c-0.307,0.585-0.786,1.063-1.304,1.464
									c-1.054,0.797-2.292,1.26-3.52,1.64c-2.455,0.711-5.089,1.083-7.694,0.812c-2.59-0.247-5.215-0.876-7.521-2.506
									c-1.127-0.801-2.183-2.112-2.36-3.749c-0.072-0.728-0.034-1.546,0.26-2.304c0.279-0.761,0.76-1.393,1.245-1.899
									c0.996-1.009,2.033-1.713,3.003-2.495c0.979-0.763,1.902-1.558,2.789-2.396c0.883-0.836,1.731-1.728,2.499-2.667
									c0.732-0.908,1.345-1.929,1.847-3.017c0.971-2.195,1.515-4.623,1.776-7.085
									C210.296,250.755,210.313,248.241,210.128,245.725z"/>
							</g>
							<g>
								<g>
									<path style="fill:#47194B;" d="M228.303,236.234c0,0,3.216-7.67,6.433-9.402c3.216-1.732,17.319-1.237,23.875,3.464
										c0,0,1.979,3.093,2.721,5.938C261.332,236.234,247.972,229.925,228.303,236.234z"/>
									<path style="fill:#47194B;" d="M227.046,236.234c0,0,2.415-6.248,6.48-9.37
										C233.527,226.864,227.577,227.459,227.046,236.234z"/>
									<path style="fill:#47194B;" d="M226.378,235.878c0,0-0.157-5.538,3.908-8.425
										C230.286,227.453,224.944,228.985,226.378,235.878z"/>
								</g>
								<g>
									<circle style="fill:#FFFFFF;" cx="255.56" cy="236.82" r="1.296"/>
									<path style="fill:#FFFFFF;" d="M257.799,226.157c0,0.716-0.58,1.296-1.296,1.296c-0.716,0-1.296-0.58-1.296-1.296
										c0-0.716,0.58-1.296,1.296-1.296C257.219,224.861,257.799,225.441,257.799,226.157z"/>
								</g>
							</g>
							<g>
								<g>
									<path style="fill:#47194B;" d="M205.686,234.938c0,0-3.216-7.67-6.433-9.402c-3.216-1.732-17.319-1.237-23.875,3.464
										c0,0-1.979,3.093-2.721,5.938C172.657,234.938,186.017,228.629,205.686,234.938z"/>
									<path style="fill:#47194B;" d="M206.943,234.938c0,0-2.415-6.248-6.48-9.37
										C200.463,225.568,206.413,226.163,206.943,234.938z"/>
									<path style="fill:#47194B;" d="M207.611,234.581c0,0,0.157-5.538-3.908-8.425
										C203.703,226.157,209.045,227.689,207.611,234.581z"/>
								</g>
							</g>
						</g>
					</g>
					<g>
						<g>
							<path style="fill:#47194B;" d="M331.248,170.904c-2.752,5.862-6.514,10.842-11.799,14.645
								c-0.304,0.219-0.613,0.424-0.923,0.623c1.715-2.03,3.108-4.538,4.121-7.582c5.356-8.438,6.43-21.019,5.991-29.596
								c-0.005-0.089-0.137-0.104-0.142-0.01c-0.465,7.69-1.337,16.442-4.48,23.818c0.523-3.418,0.695-7.318,0.471-11.75
								c-1.419-28.03-22.176-40.449-46.481-24.393c-5.242,3.463-8.483,7.175-10.349,10.867c1.402-3.932,3.658-7.477,6.667-10.56
								c3.703-3.794,8.428-9.529,13.631-11.186c0.038-0.012,0.018-0.077-0.021-0.068c-5.948,1.375-11.702,7.952-15.664,12.299
								c-3.715,4.077-6.382,9.649-6.647,15.196c-0.006,0.12,0.045,0.208,0.117,0.268c-1.703,11.117,6.589,20.654,6.589,20.654
								l19.692,18.146c9.474,1.809,17.727,1.097,23.558-3.309c1.739-0.742,3.415-1.687,5.009-2.903
								c5.215-3.98,8.616-8.927,10.975-14.993C331.643,170.865,331.348,170.691,331.248,170.904z"/>
							<g style="opacity:0.4;">
								<g>
									<path style="fill:#FFFFFF;" d="M274.952,168.815c-1.841-4.65-2.312-9.88-1.311-14.854c0.507-2.489,1.363-4.908,2.75-7.09
										c1.395-2.161,3.24-3.972,5.254-5.525c2.082-1.464,4.316-2.686,6.655-3.658c2.363-0.896,4.783-1.689,7.296-2.029
										c0.618-0.135,1.256-0.145,1.883-0.217c0.629-0.056,1.256-0.136,1.891-0.113l1.894,0l1.886,0.186
										c2.49,0.378,4.952,1.115,7.072,2.464c-4.484-2.301-9.677-2.453-14.497-1.561c-2.429,0.449-4.79,1.197-7.077,2.112
										c-2.266,0.974-4.416,2.19-6.41,3.621c-1.956,1.472-3.74,3.187-5.083,5.211c-1.339,2.016-2.169,4.396-2.767,6.765
										c-0.578,2.392-0.792,4.877-0.67,7.351C273.81,163.952,274.199,166.432,274.952,168.815z"/>
								</g>
								<g>
									<path style="fill:#FFFFFF;" d="M302.32,140.878c1.502-0.066,3.008,0.212,4.449,0.656c1.45,0.434,2.822,1.121,4.086,1.962
										c2.521,1.714,4.535,4.123,5.961,6.808c2.785,5.417,3.904,11.619,3.361,17.686c-0.306,3.031-1.089,6.022-2.379,8.795
										c-1.33,2.741-3.149,5.308-5.568,7.201c-2.374,1.937-5.231,3.224-8.19,3.864c-2.972,0.614-6.03,0.613-8.995,0.191
										c2.987,0.197,6.011,0.094,8.884-0.668c2.871-0.721,5.591-2.049,7.81-3.978c2.24-1.903,3.992-4.334,5.234-6.995
										c1.215-2.679,1.939-5.573,2.21-8.508c0.611-5.867-0.495-11.925-3.046-17.233c-1.3-2.643-3.174-5.018-5.561-6.763
										C308.219,142.12,305.31,141.035,302.32,140.878z"/>
								</g>
								<g>
									<path style="fill:#FFFFFF;" d="M313.113,164.088c0.138-1.334,0.101-2.678-0.057-3.999c-0.056-0.664-0.22-1.312-0.338-1.963
										c-0.201-0.632-0.318-1.289-0.59-1.894c-0.898-2.48-2.451-4.707-4.518-6.311c-4.155-3.13-9.705-4.529-14.821-3.719
										c-0.63,0.148-1.284,0.22-1.898,0.422l-1.826,0.669l-1.7,0.943c-0.543,0.35-1.03,0.785-1.55,1.173
										c-1.97,1.704-3.382,3.976-4.311,6.419c-0.193,0.626-0.479,1.228-0.599,1.876l-0.402,1.938
										c-0.094,0.653-0.12,1.316-0.185,1.975c-0.021,0.33-0.071,0.66-0.067,0.991l0.029,0.995
										c-0.059,2.67,0.536,5.297,1.121,7.911c-0.803-2.551-1.503-5.182-1.611-7.894l-0.067-1.014
										c-0.015-0.338,0.024-0.677,0.034-1.016c0.042-0.677,0.047-1.358,0.121-2.033l0.347-2.014
										c0.103-0.676,0.375-1.312,0.555-1.971c0.854-2.597,2.373-5.003,4.437-6.848c0.547-0.421,1.065-0.889,1.641-1.27
										l1.807-1.027l1.942-0.738c0.655-0.221,1.345-0.313,2.018-0.471c2.731-0.414,5.522-0.207,8.166,0.489
										c2.616,0.748,5.204,1.827,7.308,3.622c2.116,1.763,3.667,4.155,4.494,6.746c0.243,0.638,0.329,1.32,0.496,1.975
										c0.085,0.673,0.214,1.339,0.233,2.016C313.413,161.411,313.358,162.768,313.113,164.088z"/>
								</g>
								<g>
									<path style="fill:#FFFFFF;" d="M301.934,153.974c3.21,1.512,6.005,4.177,7.372,7.599c0.694,1.702,0.936,3.567,0.867,5.404
										c-0.18,1.834-0.563,3.613-1.211,5.325c-0.678,1.694-1.587,3.313-2.786,4.708c-1.199,1.391-2.686,2.542-4.338,3.323
										c-1.646,0.793-3.425,1.265-5.217,1.449c-1.796,0.152-3.602,0.062-5.347-0.301c3.533,0.301,7.158-0.172,10.211-1.832
										c3.081-1.623,5.317-4.488,6.544-7.705c0.632-1.611,1.001-3.332,1.201-5.031c0.116-1.715-0.095-3.438-0.643-5.071
										c-0.551-1.633-1.479-3.141-2.634-4.453C304.818,156.053,303.449,154.906,301.934,153.974z"/>
								</g>
								<g>
									<path style="fill:#FFFFFF;" d="M296.329,157.679c-1.742,0.783-3.35,1.791-4.817,2.93c-1.451,1.16-2.729,2.521-3.632,4.101
										c-0.501,0.767-0.787,1.635-1.1,2.488l-0.299,1.336c-0.065,0.221-0.088,0.449-0.092,0.679l-0.049,0.688
										c-0.129,0.921,0.029,1.845,0.072,2.783c0.083,0.936,0.358,1.844,0.489,2.8c-0.18-0.44-0.354-0.886-0.516-1.339
										c-0.146-0.456-0.379-0.895-0.455-1.373c-0.164-0.95-0.432-1.904-0.37-2.891c-0.083-0.989,0.136-1.958,0.307-2.936
										c0.307-0.94,0.62-1.892,1.148-2.737c1.002-1.713,2.423-3.145,4.038-4.227C292.667,158.898,294.46,158.096,296.329,157.679z
										"/>
								</g>
							</g>
						</g>
						<path style="fill:#FFB24D;" d="M261.876,160.434c0-2.033,0.176-5.807,7.661-3.669c7.485,2.139,24.432,13.186,34.724,26.552
							c10.292,13.366-2.462,15.421-2.462,15.421l-38.705-34.668L261.876,160.434z"/>
						<path style="fill:#47194B;" d="M281.658,256.156c0,0-11.688-7.636-9.016-25.787c2.047-13.907,1.354-26.021-9.695-28.215
							c-11.282-2.24-19.84,8.797-41.98,6.757c-20.686-1.906-21.83-11.011-33.813-7.822c-9.389,2.499-17.313,12.419-15.184,31.483
							c0,0-9.139-18.639,3.819-45.72c12.958-27.081,51.833-42.806,92.746-26.79c40.913,16.016,51.688,60.569,49.067,93.62
							c-2.621,33.051-24.862,53.58-35.945,48.048V256.156z"/>
						<g style="opacity:0.4;">
							<g>
								<path style="fill:#FFFFFF;" d="M222.678,209.043c-0.35-2.267-0.342-4.574-0.285-6.871c0.154-2.292,0.396-4.586,0.839-6.846
									c0.228-1.128,0.409-2.271,0.755-3.371c0.332-1.103,0.565-2.238,0.979-3.315c0.39-1.085,0.757-2.179,1.166-3.256l1.39-3.169
									c0.451-1.063,1.084-2.035,1.617-3.057l0.835-1.514c0.282-0.502,0.626-0.967,0.936-1.453l1.907-2.882
									c0.697-0.916,1.428-1.808,2.152-2.701l1.086-1.34c0.367-0.442,0.788-0.837,1.179-1.258l2.389-2.483
									c0.39-0.421,0.82-0.802,1.263-1.168l1.308-1.119c0.868-0.749,1.743-1.488,2.622-2.218c-1.594,1.65-3.312,3.159-4.843,4.848
									l-2.266,2.558c-0.37,0.432-0.771,0.838-1.116,1.29l-1.02,1.368l-2.049,2.723l-1.842,2.865
									c-0.299,0.482-0.632,0.944-0.903,1.442l-0.802,1.501c-0.512,1.012-1.12,1.976-1.553,3.025
									c-2.029,4.063-3.421,8.415-4.442,12.835C222.991,199.909,222.459,204.471,222.678,209.043z"/>
							</g>
							<g>
								<path style="fill:#FFFFFF;" d="M215.053,208.087c-0.575-3.925-0.443-7.941,0.088-11.883
									c0.527-3.949,1.552-7.833,2.992-11.554c1.498-3.691,3.293-7.291,5.643-10.515c1.093-1.669,2.422-3.157,3.703-4.674
									c0.622-0.775,1.379-1.429,2.084-2.126c0.711-0.692,1.43-1.373,2.152-2.047c-2.631,2.96-5.234,5.927-7.301,9.277l-0.793,1.24
									c-0.275,0.406-0.54,0.819-0.763,1.257l-1.417,2.577c-0.484,0.853-0.83,1.775-1.252,2.659l-0.606,1.339
									c-0.188,0.452-0.342,0.918-0.517,1.375c-0.337,0.919-0.738,1.817-1.024,2.754l-0.869,2.81l-0.697,2.859
									c-0.218,0.956-0.372,1.926-0.576,2.887c-0.193,0.964-0.294,1.942-0.446,2.914c-0.12,0.975-0.2,1.956-0.287,2.937
									C215.009,204.136,214.963,206.11,215.053,208.087z"/>
							</g>
							<g>
								<path style="fill:#FFFFFF;" d="M207.856,206.161c-0.64-3.52-0.671-7.142-0.347-10.719c0.328-3.582,1.153-7.121,2.38-10.51
									c0.57-1.715,1.403-3.322,2.164-4.956l1.385-2.325c0.241-0.38,0.439-0.788,0.716-1.145l0.815-1.079
									c0.557-0.708,1.054-1.461,1.658-2.128l1.836-1.973c0.594-0.674,1.296-1.238,1.983-1.813c0.682-0.581,1.37-1.151,2.062-1.712
									c-0.623,0.644-1.248,1.28-1.88,1.905c-0.631,0.626-1.274,1.237-1.805,1.954l-1.704,2.037
									c-0.559,0.685-1.01,1.452-1.519,2.173c-1.048,1.424-1.821,3.021-2.704,4.543c-0.716,1.611-1.526,3.18-2.066,4.863
									c-1.222,3.305-2.055,6.754-2.558,10.257l-0.304,2.639c-0.05,0.884-0.14,1.768-0.159,2.655
									C207.704,202.6,207.74,204.379,207.856,206.161z"/>
							</g>
							<g>
								<path style="fill:#FFFFFF;" d="M200.463,202.928c-0.5-4.013-0.283-8.11,0.391-12.113c0.661-4.013,1.926-7.923,3.617-11.627
									l0.644-1.386c0.233-0.452,0.501-0.887,0.75-1.332c0.519-0.876,0.984-1.786,1.548-2.633c1.181-1.659,2.268-3.391,3.69-4.858
									l1.008-1.144l0.504-0.571l0.556-0.522l2.231-2.071c0.722-0.713,1.579-1.269,2.387-1.876
									c0.814-0.602,1.633-1.193,2.455-1.774c-3.07,2.621-6.11,5.267-8.552,8.453l-0.939,1.168c-0.33,0.376-0.617,0.785-0.89,1.204
									l-1.682,2.479c-0.54,0.838-0.982,1.738-1.477,2.603c-0.237,0.439-0.493,0.868-0.715,1.314l-0.612,1.366
									c-1.732,3.595-2.96,7.43-3.771,11.349c-0.202,0.98-0.361,1.969-0.544,2.955c-0.123,0.994-0.268,1.988-0.359,2.987
									C200.486,198.898,200.41,200.91,200.463,202.928z"/>
							</g>
							<g>
								<path style="fill:#FFFFFF;" d="M193.105,200.48c-0.223-1.682-0.169-3.388-0.088-5.087c0.158-1.693,0.383-3.386,0.75-5.051
									c0.718-3.333,1.849-6.59,3.402-9.635c0.351-0.78,0.831-1.493,1.24-2.242c0.421-0.744,0.842-1.487,1.351-2.174l1.465-2.099
									c0.529-0.669,1.086-1.316,1.636-1.966c1.053-1.342,2.339-2.473,3.518-3.692c0.591-0.61,1.297-1.098,1.938-1.651
									c0.653-0.541,1.313-1.071,1.977-1.593c-1.171,1.23-2.442,2.34-3.569,3.591c-1.097,1.277-2.306,2.451-3.269,3.832
									l-1.525,1.997l-1.378,2.098c-0.482,0.685-0.895,1.411-1.297,2.145c-0.394,0.737-0.857,1.438-1.194,2.203
									c-1.543,2.969-2.668,6.135-3.55,9.363C193.661,193.756,193.127,197.097,193.105,200.48z"/>
							</g>
							<g>
								<path style="fill:#FFFFFF;" d="M186.089,201.412c-0.24-1.354-0.262-2.735-0.277-4.113c0.051-1.376,0.153-2.754,0.351-4.121
									c0.392-2.733,1.089-5.433,2.12-8.003c1.054-2.554,2.274-5.061,3.892-7.304c0.742-1.165,1.655-2.206,2.508-3.283
									c0.422-0.543,0.941-1.004,1.412-1.504c0.478-0.493,0.963-0.978,1.454-1.454c-1.678,2.171-3.358,4.311-4.726,6.658
									c-1.438,2.298-2.598,4.751-3.608,7.252c-1.03,2.5-1.732,5.121-2.295,7.767C186.383,195.963,186.068,198.673,186.089,201.412
									z"/>
							</g>
							<g>
								<path style="fill:#FFFFFF;" d="M177.641,207.061c-0.515-2.672-0.345-5.439,0.065-8.129c0.416-2.701,1.221-5.329,2.217-7.87
									c1.054-2.518,2.308-4.952,3.811-7.222c0.722-1.152,1.577-2.216,2.361-3.321c0.87-1.043,1.754-2.072,2.66-3.074
									c-0.731,1.145-1.533,2.228-2.262,3.36c-0.696,1.153-1.471,2.253-2.103,3.437c-0.633,1.183-1.332,2.326-1.883,3.548
									c-0.626,1.183-1.133,2.42-1.658,3.648c-0.996,2.477-1.806,5.027-2.391,7.635c-0.292,1.304-0.523,2.626-0.648,3.96
									C177.648,204.365,177.583,205.709,177.641,207.061z"/>
							</g>
							<g>
								<path style="fill:#FFFFFF;" d="M230.286,209.018c-0.417-3.476-0.319-7.005,0.048-10.495
									c0.368-3.495,1.13-6.948,2.192-10.304c0.514-1.686,1.194-3.313,1.872-4.938c0.352-0.807,0.784-1.578,1.172-2.368
									l0.598-1.177l0.699-1.122c1.743-3.066,4.08-5.742,6.54-8.209c-0.532,0.697-1.068,1.385-1.612,2.064l-0.81,1.021
									c-0.255,0.352-0.48,0.726-0.722,1.087l-1.456,2.155l-1.272,2.266c-1.641,3.042-3.045,6.218-4.057,9.527
									c-1.066,3.288-1.841,6.672-2.385,10.098l-0.352,2.58c-0.078,0.864-0.187,1.727-0.24,2.595
									C230.336,205.53,230.286,207.271,230.286,209.018z"/>
							</g>
							<g>
								<path style="fill:#FFFFFF;" d="M241.064,207.061c-0.24-1.732-0.231-3.487-0.207-5.238c0.094-1.748,0.249-3.496,0.516-5.23
									c0.529-3.467,1.4-6.894,2.662-10.174c1.283-3.265,2.764-6.475,4.706-9.402c0.893-1.51,1.988-2.886,3.018-4.298
									c0.507-0.713,1.129-1.336,1.697-1.999c0.576-0.657,1.161-1.305,1.75-1.945c-2.069,2.811-4.13,5.605-5.807,8.64
									c-1.762,2.979-3.188,6.139-4.429,9.356c-1.264,3.216-2.143,6.569-2.843,9.953
									C241.459,200.117,241.049,203.575,241.064,207.061z"/>
							</g>
							<g>
								<path style="fill:#FFFFFF;" d="M248.097,204.718c-0.208-1.45-0.2-2.92-0.186-4.387c0.077-1.464,0.205-2.929,0.424-4.383
									c0.433-2.907,1.162-5.779,2.208-8.532c1.067-2.74,2.299-5.434,3.92-7.891c0.748-1.266,1.658-2.424,2.519-3.608
									c0.425-0.596,0.944-1.121,1.42-1.676c0.481-0.551,0.971-1.093,1.467-1.628c-1.683,2.391-3.372,4.751-4.744,7.304
									c-1.441,2.509-2.619,5.154-3.645,7.848c-1.049,2.69-1.786,5.49-2.391,8.316C248.511,198.913,248.14,201.799,248.097,204.718
									z"/>
							</g>
							<g>
								<path style="fill:#FFFFFF;" d="M255.56,202.928c-0.227-2.396-0.018-4.825,0.417-7.201c0.42-2.384,1.161-4.711,2.135-6.932
									c0.459-1.124,1.071-2.178,1.644-3.245c0.667-1.014,1.264-2.074,2.057-2.997c0.719-0.976,1.551-1.856,2.381-2.731
									c0.406-0.446,0.878-0.827,1.333-1.22c0.454-0.396,0.915-0.781,1.379-1.158c-1.592,1.8-3.19,3.561-4.47,5.559
									c-1.334,1.952-2.474,4.028-3.409,6.193c-0.97,2.15-1.715,4.4-2.302,6.694c-0.294,1.148-0.535,2.311-0.725,3.485
									C255.787,200.547,255.653,201.731,255.56,202.928z"/>
							</g>
							<g>
								<path style="fill:#FFFFFF;" d="M261.332,201.928c0.182-2.361,0.733-4.683,1.445-6.946c0.698-2.271,1.647-4.463,2.758-6.566
									c0.538-1.062,1.187-2.063,1.803-3.079c0.698-0.965,1.324-1.979,2.117-2.871c1.463-1.875,3.19-3.526,5.012-5.023
									c-0.739,0.93-1.585,1.744-2.28,2.694l-1.098,1.368c-0.361,0.459-0.679,0.952-1.02,1.424
									c-1.348,1.904-2.576,3.887-3.651,5.953c-1.109,2.048-2.061,4.18-2.918,6.353c-0.431,1.086-0.82,2.19-1.176,3.306
									C261.944,199.655,261.628,200.784,261.332,201.928z"/>
							</g>
							<g>
								<path style="fill:#FFFFFF;" d="M266.907,202.928c1.093-1.54,2.097-3.122,3.102-4.699c0.987-1.588,1.963-3.18,2.877-4.808
									c0.92-1.624,1.823-3.26,2.678-4.924l2.568-5.019c-0.506,1.819-1.104,3.62-1.862,5.352c-0.72,1.751-1.598,3.431-2.516,5.086
									C271.854,197.182,269.669,200.33,266.907,202.928z"/>
							</g>
							<g>
								<path style="fill:#FFFFFF;" d="M271.248,208.087c1.549-1.354,2.94-2.848,4.299-4.36c1.342-1.528,2.624-3.104,3.829-4.739
									c1.19-1.645,2.355-3.312,3.422-5.048c1.089-1.723,2.103-3.495,3.142-5.276c-0.342,0.97-0.719,1.93-1.113,2.883
									c-0.441,0.93-0.841,1.887-1.353,2.783c-0.944,1.84-2.095,3.565-3.294,5.251c-1.245,1.654-2.587,3.237-4.071,4.681
									C274.634,205.709,273.029,207.043,271.248,208.087z"/>
							</g>
							<g>
								<path style="fill:#FFFFFF;" d="M273.111,213.788c1.285-1.189,2.529-2.401,3.772-3.606c1.231-1.218,2.445-2.446,3.613-3.715
									c1.189-1.251,2.292-2.575,3.39-3.906c1.082-1.346,2.095-2.742,3.094-4.185c-0.654,1.622-1.469,3.197-2.466,4.647
									c-0.99,1.454-2.087,2.837-3.285,4.123C278.824,209.703,276.142,212.018,273.111,213.788z"/>
							</g>
							<g>
								<path style="fill:#FFFFFF;" d="M273.536,220.714c1.056-0.533,2.105-1.061,3.117-1.661c1.029-0.565,2.034-1.168,3.022-1.795
									c1.969-1.265,3.883-2.603,5.694-4.07c1.841-1.432,3.515-3.057,5.124-4.741l1.179-1.296l1.086-1.376
									c0.792-0.876,1.35-1.91,2.082-2.849c-1.002,2.135-2.227,4.203-3.765,6.025c-1.507,1.844-3.212,3.534-5.078,5.015
									c-1.866,1.479-3.839,2.825-5.932,3.951C277.974,219.047,275.807,220.041,273.536,220.714z"/>
							</g>
							<g>
								<path style="fill:#FFFFFF;" d="M272.642,230.369c2.506-0.48,4.933-1.228,7.284-2.146c2.339-0.942,4.639-1.986,6.796-3.287
									c2.164-1.279,4.266-2.682,6.214-4.287c1.997-1.554,3.782-3.352,5.606-5.144c-0.77,1.014-1.539,2.043-2.387,3.004
									c-0.887,0.923-1.743,1.886-2.719,2.724c-1.867,1.775-4.008,3.239-6.212,4.567c-2.221,1.309-4.594,2.357-7.042,3.145
									c-1.224,0.395-2.471,0.713-3.724,0.985C275.191,230.143,273.923,230.355,272.642,230.369z"/>
							</g>
							<g>
								<path style="fill:#FFFFFF;" d="M272.342,238.116c1.275,0.1,2.544,0.133,3.811,0.059c0.632-0.022,1.263-0.075,1.892-0.118
									c0.626-0.083,1.254-0.145,1.876-0.244c2.486-0.393,4.928-1.045,7.229-2.032c2.308-0.958,4.517-2.186,6.503-3.728
									c2.056-1.467,3.784-3.324,5.537-5.189c-0.362,0.524-0.733,1.046-1.114,1.562c-0.389,0.509-0.73,1.064-1.184,1.52
									c-0.885,0.931-1.738,1.908-2.758,2.708c-1.931,1.73-4.218,3.038-6.602,4.051c-2.395,0.999-4.94,1.649-7.517,1.868
									C277.445,238.811,274.833,238.719,272.342,238.116z"/>
							</g>
						</g>
					</g>
					<g>
						<g>
							<path style="fill:#CC887A;" d="M296.4,241.414c-12.322-2.031-15.54,14.834-15.54,14.834v22.97c0,0,5.173,7.24,15.277,3.757
								c10.103-3.484,13.15-19.671,12.625-26.462C308.085,247.771,302.974,242.497,296.4,241.414z"/>
							<path style="fill:none;stroke:#FFFFFF;stroke-linecap:round;stroke-linejoin:round;stroke-miterlimit:10;" d="
								M286.815,281.392c-1.783,0.141-3.113,1.701-2.972,3.483s1.701,3.113,3.483,2.972c1.783-0.141,3.113-1.7,2.972-3.483"/>
							<path style="fill:none;stroke:#FFFFFF;stroke-linecap:round;stroke-linejoin:round;stroke-miterlimit:10;" d="
								M293.902,280.837c-1.619,0.758-2.317,2.686-1.559,4.305c0.758,1.619,2.686,2.317,4.305,1.559
								c1.619-0.759,2.317-2.686,1.559-4.305"/>
							<g>
								<path style="fill:#47194B;" d="M301.425,259.691c-0.673-2.056-1.872-3.938-3.527-5.079
									c-0.826-0.569-1.757-0.929-2.726-1.098c-0.24-0.049-0.493-0.048-0.736-0.076l-0.367-0.033l-0.35,0.031
									c-0.231,0.026-0.462,0.029-0.689,0.065c-0.223,0.071-0.445,0.135-0.669,0.193c-0.872,0.315-1.712,0.8-2.428,1.496
									c-0.382,0.305-0.698,0.714-1.055,1.061c-0.314,0.402-0.657,0.773-0.942,1.205c-1.177,1.668-2.191,3.566-2.95,5.457
									l-1.743-0.818c0.854-1.385,1.865-2.558,3.061-3.651c0.613-0.528,1.275-1.021,2.052-1.381
									c0.777-0.352,1.67-0.577,2.588-0.482c0.923,0.132,1.713,0.565,2.345,1.177c0.628,0.618,0.996,1.418,1.163,2.202
									c0.345,1.575,0.159,3.139-0.26,4.588c0.084-1.5-0.038-3.025-0.535-4.343c-0.253-0.654-0.638-1.225-1.133-1.61
									c-0.489-0.378-1.12-0.605-1.697-0.628c-0.59-0.002-1.183,0.191-1.749,0.505c-0.564,0.327-1.086,0.778-1.592,1.249
									c-0.989,0.971-1.854,2.179-2.575,3.351l-0.019,0.03c-0.279,0.454-0.873,0.596-1.327,0.317
									c-0.401-0.247-0.558-0.74-0.397-1.165c0.813-2.142,1.819-4.12,3.19-5.956c0.678-0.911,1.431-1.798,2.355-2.535
									c0.884-0.769,1.982-1.363,3.16-1.71c2.463-0.596,4.938,0.144,6.705,1.695C300.324,255.319,301.244,257.527,301.425,259.691z
									"/>
							</g>
							<g>
								
									<line style="fill:none;stroke:#FFFFFF;stroke-linecap:round;stroke-linejoin:round;stroke-miterlimit:10;" x1="297.403" y1="244" x2="298.542" y2="239.741"/>
								
									<line style="fill:none;stroke:#FFFFFF;stroke-linecap:round;stroke-linejoin:round;stroke-miterlimit:10;" x1="300.672" y1="245.585" x2="303.198" y2="241.244"/>
							</g>
						</g>
					</g>
				</g>
			</g>
			<g>
				<rect x="141.582" y="426.373" style="fill:#47194B;" width="216.837" height="42.046"/>
				
					<text transform="matrix(1 0 0 1 174.272 460.4727)" style="fill:#FFFFFF; font-family:'SpartanMB-Black'; font-size:29px; letter-spacing:2;">ABOUT ME</text>
			</g>
		</g>
	</g>
</g>
</svg>
