<?xml version="1.0" encoding="utf-8"?>
<!-- Generator: Adobe Illustrator 27.5.0, SVG Export Plug-In . SVG Version: 6.00 Build 0)  -->
<svg version="1.1" xmlns="http://www.w3.org/2000/svg" xmlns:xlink="http://www.w3.org/1999/xlink" x="0px" y="0px"
	 viewBox="0 0 500 500" style="enable-background:new 0 0 500 500;" xml:space="preserve">
<g id="Background_simple">
	<g>
		<path style="fill:#C6FF00;" d="M424.572,219.768c1.531-41.415-13.355-83.336-46.152-103.29
			c-16.195-9.853-35.125-15.618-54.063-14.77c-20.315,0.91-39.447,9.178-58.611,15.981c-19.164,6.803-39.906,12.274-59.657,7.434
			c-14.293-3.503-26.864-12.151-41.042-16.095c-55.671-15.486-104.176,47.722-76.917,97.937
			c6.69,12.324,17.012,22.203,25.666,33.237c8.653,11.034,15.94,24.346,14.775,38.32c-0.963,11.565-7.561,21.872-10.289,33.152
			c-5.224,21.605,5.132,45.378,23.043,58.542c17.91,13.163,42.071,16.273,63.629,10.859c21.558-5.414,40.594-18.682,55.569-35.107
			c8.018-8.793,15.832-19.076,27.35-22.064c11.044-2.865,22.439,1.793,33.646,3.934c20.649,3.945,42.857-1.106,59.769-13.595
			C408.393,294.225,423.189,257.203,424.572,219.768z"/>
		<path style="opacity:0.7;fill:#FFFFFF;" d="M424.572,219.768c1.531-41.415-13.355-83.336-46.152-103.29
			c-16.195-9.853-35.125-15.618-54.063-14.77c-20.315,0.91-39.447,9.178-58.611,15.981c-19.164,6.803-39.906,12.274-59.657,7.434
			c-14.293-3.503-26.864-12.151-41.042-16.095c-55.671-15.486-104.176,47.722-76.917,97.937
			c6.69,12.324,17.012,22.203,25.666,33.237c8.653,11.034,15.94,24.346,14.775,38.32c-0.963,11.565-7.561,21.872-10.289,33.152
			c-5.224,21.605,5.132,45.378,23.043,58.542c17.91,13.163,42.071,16.273,63.629,10.859c21.558-5.414,40.594-18.682,55.569-35.107
			c8.018-8.793,15.832-19.076,27.35-22.064c11.044-2.865,22.439,1.793,33.646,3.934c20.649,3.945,42.857-1.106,59.769-13.595
			C408.393,294.225,423.189,257.203,424.572,219.768z"/>
	</g>
</g>
<g id="Shadow">
	<g>
		<ellipse style="fill:#C6FF00;" cx="246.386" cy="422.159" rx="135.21" ry="27.042"/>
		<ellipse style="opacity:0.5;fill:#FFFFFF;" cx="246.386" cy="422.159" rx="135.21" ry="27.042"/>
	</g>
</g>
<g id="Graphics_2">
	<g id="XMLID_98_">
		<path id="XMLID_4_" style="fill:#FFFFFF;stroke:#263238;stroke-linecap:round;stroke-linejoin:round;stroke-miterlimit:10;" d="
			M389.92,181.976h-97.48c-3.332,0-6.034-2.701-6.034-6.033V68.483c0-3.332,2.701-6.034,6.034-6.034h97.48
			c3.332,0,6.033,2.701,6.033,6.034v107.46C395.953,179.275,393.252,181.976,389.92,181.976z"/>
		<path id="XMLID_57_" style="fill:#263238;stroke:#263238;stroke-linecap:round;stroke-linejoin:round;stroke-miterlimit:10;" d="
			M395.953,74.743H286.406v-6.26c0-3.332,2.701-6.034,6.034-6.034h97.48c3.332,0,6.033,2.701,6.033,6.034V74.743z"/>
		<g id="XMLID_95_">
			<g id="XMLID_72_">
				
					<line id="XMLID_73_" style="fill:none;stroke:#263238;stroke-linecap:round;stroke-linejoin:round;stroke-miterlimit:10;" x1="292.38" y1="126.265" x2="336.458" y2="126.265"/>
				
					<line id="XMLID_74_" style="fill:none;stroke:#263238;stroke-linecap:round;stroke-linejoin:round;stroke-miterlimit:10;" x1="292.38" y1="131.958" x2="336.458" y2="131.958"/>
				
					<line id="XMLID_75_" style="fill:none;stroke:#263238;stroke-linecap:round;stroke-linejoin:round;stroke-miterlimit:10;" x1="292.38" y1="137.65" x2="336.458" y2="137.65"/>
				
					<line id="XMLID_76_" style="fill:none;stroke:#263238;stroke-linecap:round;stroke-linejoin:round;stroke-miterlimit:10;" x1="292.38" y1="143.342" x2="336.458" y2="143.342"/>
				
					<line id="XMLID_77_" style="fill:none;stroke:#263238;stroke-linecap:round;stroke-linejoin:round;stroke-miterlimit:10;" x1="292.38" y1="149.035" x2="336.458" y2="149.035"/>
				
					<line id="XMLID_78_" style="fill:none;stroke:#263238;stroke-linecap:round;stroke-linejoin:round;stroke-miterlimit:10;" x1="292.38" y1="154.727" x2="336.458" y2="154.727"/>
				
					<line id="XMLID_79_" style="fill:none;stroke:#263238;stroke-linecap:round;stroke-linejoin:round;stroke-miterlimit:10;" x1="292.38" y1="160.42" x2="336.458" y2="160.42"/>
				
					<line id="XMLID_80_" style="fill:none;stroke:#263238;stroke-linecap:round;stroke-linejoin:round;stroke-miterlimit:10;" x1="292.38" y1="166.112" x2="336.458" y2="166.112"/>
				
					<line id="XMLID_81_" style="fill:none;stroke:#263238;stroke-linecap:round;stroke-linejoin:round;stroke-miterlimit:10;" x1="292.38" y1="171.805" x2="336.458" y2="171.805"/>
			</g>
			<g id="XMLID_83_">
				
					<line id="XMLID_92_" style="fill:none;stroke:#263238;stroke-linecap:round;stroke-linejoin:round;stroke-miterlimit:10;" x1="344.212" y1="126.265" x2="388.289" y2="126.265"/>
				
					<line id="XMLID_91_" style="fill:none;stroke:#263238;stroke-linecap:round;stroke-linejoin:round;stroke-miterlimit:10;" x1="344.212" y1="131.958" x2="388.289" y2="131.958"/>
				
					<line id="XMLID_90_" style="fill:none;stroke:#263238;stroke-linecap:round;stroke-linejoin:round;stroke-miterlimit:10;" x1="344.212" y1="137.65" x2="388.289" y2="137.65"/>
				
					<line id="XMLID_89_" style="fill:none;stroke:#263238;stroke-linecap:round;stroke-linejoin:round;stroke-miterlimit:10;" x1="344.212" y1="143.342" x2="388.289" y2="143.342"/>
				
					<line id="XMLID_88_" style="fill:none;stroke:#263238;stroke-linecap:round;stroke-linejoin:round;stroke-miterlimit:10;" x1="344.212" y1="149.035" x2="388.289" y2="149.035"/>
				
					<line id="XMLID_87_" style="fill:none;stroke:#263238;stroke-linecap:round;stroke-linejoin:round;stroke-miterlimit:10;" x1="344.212" y1="154.727" x2="388.289" y2="154.727"/>
				
					<line id="XMLID_86_" style="fill:none;stroke:#263238;stroke-linecap:round;stroke-linejoin:round;stroke-miterlimit:10;" x1="344.212" y1="160.42" x2="388.289" y2="160.42"/>
				
					<line id="XMLID_85_" style="fill:none;stroke:#263238;stroke-linecap:round;stroke-linejoin:round;stroke-miterlimit:10;" x1="344.212" y1="166.112" x2="388.289" y2="166.112"/>
				
					<line id="XMLID_84_" style="fill:none;stroke:#263238;stroke-linecap:round;stroke-linejoin:round;stroke-miterlimit:10;" x1="344.212" y1="171.805" x2="388.289" y2="171.805"/>
			</g>
		</g>
		<path style="fill:#C6FF00;" d="M321.855,90.242c0.229-0.646,0.343-1.483,0.343-2.091c0-2.585-2.624-2.738-5.21-2.738h-0.646
			v-0.608h11.256v0.608c-2.929,0-3.955,1.863-4.905,4.639l-5.971,17.91c-0.456,1.331-0.836,2.32-2.243,2.32h-0.114l-5.285-17.111
			l-4.943,14.792c-0.456,1.331-0.836,2.32-2.243,2.32h-0.114l-7.681-24.869h-2.7v-0.608h9.887v0.608h-2.814l5.704,19.621h0.229
			l4.297-13.081l-2.016-6.541h-2.7v-0.608h9.887v0.608h-2.813l5.703,19.621h0.228L321.855,90.242z"/>
		<g id="XMLID_94_">
			
				<rect id="XMLID_64_" x="343.243" y="79.133" style="fill:#C6FF00;stroke:#263238;stroke-width:2;stroke-linecap:round;stroke-linejoin:round;stroke-miterlimit:10;" width="45.361" height="40.996"/>
			<path id="XMLID_97_" style="fill:#263238;stroke:#263238;stroke-linecap:round;stroke-linejoin:round;stroke-miterlimit:10;" d="
				M388.604,96.266c-1.227,0.062-2.719,0.245-4.527,0.638c-6.891,1.498-8.688,11.385-16.478,11.385
				c-6.897,0-7.49-9.288-17.377-10.486c-2.986-0.362-5.257,0.235-6.979,1.242v21.085h45.361V96.266z"/>
			<path id="XMLID_93_" style="fill:#FFFFFF;stroke:#263238;stroke-linecap:round;stroke-linejoin:round;stroke-miterlimit:10;" d="
				M358.311,88.515c0,2.813-2.28,5.093-5.093,5.093s-5.093-2.28-5.093-5.093c0-2.813,2.28-5.093,5.093-5.093
				S358.311,85.702,358.311,88.515z"/>
		</g>
		
			<rect id="XMLID_96_" x="289.702" y="66.045" style="fill:#FFFFFF;stroke:#263238;stroke-linecap:round;stroke-linejoin:round;stroke-miterlimit:10;" width="100.966" height="3.895"/>
	</g>
	<g>
		<path id="XMLID_125_" style="fill:#263238;stroke:#263238;stroke-linecap:round;stroke-linejoin:round;stroke-miterlimit:10;" d="
			M384.374,205.833H340.66c-3.577,0-6.477,2.9-6.477,6.477v23.38c0,3.577,2.9,6.477,6.477,6.477h1.361
			c-1.357,3.017-3.967,7.601-8.171,10.333c0,0,8.867-0.618,18.109-10.333h32.415c3.577,0,6.477-2.9,6.477-6.477v-23.38
			C390.85,208.733,387.951,205.833,384.374,205.833z"/>
		<g>
			
				<path id="XMLID_122_" style="fill:#C6FF00;stroke:#263238;stroke-linecap:round;stroke-linejoin:round;stroke-miterlimit:10;" d="
				M355,223.167c0-1.841-1.492-3.333-3.333-3.333c-1.841,0-3.333,1.492-3.333,3.333c0,1.841,1.492,3.333,3.333,3.333
				C353.508,226.5,355,225.008,355,223.167z"/>
			
				<path id="XMLID_124_" style="fill:#C6FF00;stroke:#263238;stroke-linecap:round;stroke-linejoin:round;stroke-miterlimit:10;" d="
				M366.333,223.167c0-1.841-1.492-3.333-3.333-3.333c-1.841,0-3.333,1.492-3.333,3.333c0,1.841,1.492,3.333,3.333,3.333
				C364.841,226.5,366.333,225.008,366.333,223.167z"/>
			
				<path id="XMLID_126_" style="fill:#C6FF00;stroke:#263238;stroke-linecap:round;stroke-linejoin:round;stroke-miterlimit:10;" d="
				M377.667,223.167c0-1.841-1.492-3.333-3.333-3.333c-1.841,0-3.333,1.492-3.333,3.333c0,1.841,1.492,3.333,3.333,3.333
				C376.174,226.5,377.667,225.008,377.667,223.167z"/>
		</g>
	</g>
</g>
<g id="Graphics_1">
	<g id="XMLID_71_">
		<path id="XMLID_65_" style="fill:#C6FF00;stroke:#263238;stroke-linecap:round;stroke-linejoin:round;stroke-miterlimit:10;" d="
			M222.425,132.972h-84.851V83.091c0-3.569,2.894-6.463,6.463-6.463h71.925c3.57,0,6.463,2.894,6.463,6.463V132.972z"/>
		
			<rect id="XMLID_66_" x="137.575" y="124.948" style="fill:#263238;stroke:#263238;stroke-linecap:round;stroke-linejoin:round;stroke-miterlimit:10;" width="84.851" height="8.024"/>
		
			<rect id="XMLID_67_" x="141.459" y="127.691" style="fill:#FFFFFF;stroke:#263238;stroke-linecap:round;stroke-linejoin:round;stroke-miterlimit:10;" width="77.082" height="2.538"/>
		<g id="XMLID_70_">
			
				<circle id="XMLID_68_" style="fill:#263238;stroke:#263238;stroke-linecap:round;stroke-linejoin:round;stroke-miterlimit:10;" cx="180" cy="102.215" r="11.719"/>
			
				<polygon id="XMLID_69_" style="fill:#FFFFFF;stroke:#263238;stroke-linecap:round;stroke-linejoin:round;stroke-miterlimit:10;" points="
				174.712,94.915 187.356,102.215 174.712,109.515 			"/>
		</g>
	</g>
	<g id="XMLID_123_">
		<path id="XMLID_100_" style="fill:#263238;stroke:#263238;stroke-linecap:round;stroke-linejoin:round;stroke-miterlimit:10;" d="
			M185.724,189.833h-80.54c-1.555,0-2.815-1.26-2.815-2.815v-30.703c0-1.555,1.26-2.815,2.815-2.815h80.54
			c1.555,0,2.815,1.26,2.815,2.815v30.703C188.54,188.573,187.279,189.833,185.724,189.833z"/>
		<g>
			<path style="fill:#C6FF00;" d="M112.631,158.449l0.418,0.696c-1.903,1.067-3.667,2.924-3.667,5.106
				c0,1.903,1.346,3.017,2.692,3.017c0.278,0,0.464-0.139,0.464-0.418c0-0.232-0.139-0.371-0.417-0.417
				c-0.65-0.139-1.207-0.743-1.207-1.764c0-1.346,1.114-2.228,2.46-2.228c1.439,0,2.507,1.161,2.507,2.6
				c0,1.81-1.485,3.11-3.296,3.11c-2.321,0-4.038-1.485-4.038-3.899C108.546,161.698,110.496,159.656,112.631,158.449z
				 M121.218,158.449l0.417,0.696c-1.903,1.067-3.666,2.924-3.666,5.106c0,1.903,1.346,3.017,2.692,3.017
				c0.279,0,0.464-0.139,0.464-0.418c0-0.232-0.139-0.371-0.418-0.417c-0.65-0.139-1.207-0.743-1.207-1.764
				c0-1.346,1.114-2.228,2.46-2.228c1.439,0,2.506,1.161,2.506,2.6c0,1.81-1.485,3.11-3.295,3.11c-2.321,0-4.039-1.485-4.039-3.899
				C117.133,161.698,119.083,159.656,121.218,158.449z"/>
		</g>
		
			<line id="XMLID_102_" style="fill:none;stroke:#FFFFFF;stroke-linecap:round;stroke-linejoin:round;stroke-miterlimit:10;" x1="129.444" y1="165.852" x2="178.477" y2="165.852"/>
		
			<line id="XMLID_103_" style="fill:none;stroke:#FFFFFF;stroke-linecap:round;stroke-linejoin:round;stroke-miterlimit:10;" x1="129.444" y1="170.063" x2="178.477" y2="170.063"/>
		
			<line id="XMLID_104_" style="fill:none;stroke:#FFFFFF;stroke-linecap:round;stroke-linejoin:round;stroke-miterlimit:10;" x1="129.444" y1="174.275" x2="178.477" y2="174.275"/>
		
			<line id="XMLID_105_" style="fill:none;stroke:#FFFFFF;stroke-linecap:round;stroke-linejoin:round;stroke-miterlimit:10;" x1="129.444" y1="178.486" x2="178.477" y2="178.486"/>
	</g>
	<g id="XMLID_121_">
		
			<ellipse id="XMLID_119_" transform="matrix(0.9869 -0.1611 0.1611 0.9869 -34.5278 29.8528)" style="fill:#263238;stroke:#263238;stroke-linecap:round;stroke-linejoin:round;stroke-miterlimit:10;" cx="166.816" cy="227.833" rx="18.574" ry="18.574"/>
		
			<ellipse id="XMLID_116_" transform="matrix(0.6598 -0.7514 0.7514 0.6598 -114.4522 202.8553)" style="fill:#FFFFFF;stroke:#263238;stroke-linecap:round;stroke-linejoin:round;stroke-miterlimit:10;" cx="166.816" cy="227.833" rx="15.667" ry="15.667"/>
		
			<polyline id="XMLID_120_" style="fill:none;stroke:#263238;stroke-width:2;stroke-linecap:round;stroke-linejoin:round;stroke-miterlimit:10;" points="
			166.816,216.5 166.816,227.833 174.482,227.833 		"/>
	</g>
</g>
<g id="Character">
	<g>
		<g>
			<g>
				<defs>
					<path id="XMLID_19_" d="M282.969,227.872c0,0,10.648,22.731,10.648,23.927c0,1.196-9.451,6.341-11.246,7.418
						c-1.794,1.077-4.307,2.153-4.307,2.153l1.077,10.528c0,0,16.271-3.709,23.09-7.417c6.819-3.709,6.58-7.896,5.025-14.117
						s-12.083-30.268-12.083-30.268L282.969,227.872z"/>
				</defs>
				<use xlink:href="#XMLID_19_"  style="overflow:visible;fill:#FFFFFF;"/>
				<clipPath id="XMLID_00000032623683999861122890000011125988614734692273_">
					<use xlink:href="#XMLID_19_"  style="overflow:visible;"/>
				</clipPath>
				<path style="opacity:0.5;clip-path:url(#XMLID_00000032623683999861122890000011125988614734692273_);fill:#C6FF00;" d="
					M302.231,264.481c6.819-3.709,6.58-7.896,5.025-14.117c-1.555-6.221-12.083-30.268-12.083-30.268l-1.699,1.083l-0.542,1.026
					c0,0,9.806,24.071,10.401,32.094c0.399,5.387-10.45,12.11-17.626,15.949C291.015,268.82,298.24,266.651,302.231,264.481z"/>
				
					<use xlink:href="#XMLID_19_"  style="overflow:visible;fill:none;stroke:#263238;stroke-linecap:round;stroke-linejoin:round;stroke-miterlimit:10;"/>
			</g>
			<g>
				<defs>
					<path id="XMLID_30_" d="M206.162,222.847c0,0-7.776,28.474-8.016,33.499c-0.239,5.025,15.433,14.955,16.031,15.553
						s-0.888-17.302-0.888-17.302l5.315-26.007L206.162,222.847z"/>
				</defs>
				<use xlink:href="#XMLID_30_"  style="overflow:visible;fill:#FFFFFF;"/>
				<clipPath id="XMLID_00000118388488646937871540000015811213596887370169_">
					<use xlink:href="#XMLID_30_"  style="overflow:visible;"/>
				</clipPath>
				<path style="opacity:0.5;clip-path:url(#XMLID_00000118388488646937871540000015811213596887370169_);fill:#C6FF00;" d="
					M209.724,225.176l-0.173-0.766l-3.388-1.564c0,0-7.776,28.474-8.016,33.498c-0.239,5.025,15.433,14.955,16.031,15.553
					c0.237,0.237,0.146-2.436-0.049-5.747c-4.661-3.953-11.35-9.508-12.131-11.853"/>
				
					<use xlink:href="#XMLID_30_"  style="overflow:visible;fill:none;stroke:#263238;stroke-linecap:round;stroke-linejoin:round;stroke-miterlimit:10;"/>
			</g>
		</g>
		<g>
			<path id="XMLID_18_" style="fill:#C6FF00;stroke:#263238;stroke-linecap:round;stroke-linejoin:round;stroke-miterlimit:10;" d="
				M242.651,194.254c0,0-2.991,2.154-8.853,2.393c-5.862,0.239-6.127-3.983-13.399-3.948c-8.804,0.042-19.86,27.876-19.86,27.876
				s5.503,5.384,10.887,7.657c5.384,2.273,9.332,2.752,9.332,2.752l0.837,18.305h59.34l0.718-18.305l18.544-12.083
				c0,0-9.092-16.271-13.519-22.372c-4.427-6.102-11.844-3.828-14.117-2.273s-8.973,1.914-11.485,1.555
				c-2.512-0.359-9.571-2.632-9.571-2.632S247.676,189.947,242.651,194.254z"/>
			
				<line id="XMLID_20_" style="fill:none;stroke:#263238;stroke-width:0.5;stroke-linecap:round;stroke-linejoin:round;stroke-miterlimit:10;" x1="221.356" y1="200.714" x2="221.117" y2="231.102"/>
			
				<path id="XMLID_21_" style="fill:none;stroke:#263238;stroke-width:0.5;stroke-linecap:round;stroke-linejoin:round;stroke-miterlimit:10;" d="
				M223.509,203.466c0,0,0.838,14.835,3.948,23.09"/>
			
				<path id="XMLID_22_" style="fill:none;stroke:#263238;stroke-width:0.5;stroke-linecap:round;stroke-linejoin:round;stroke-miterlimit:10;" d="
				M228.056,227.752c0,0,1.555,4.426,2.512,5.862"/>
			
				<path id="XMLID_23_" style="fill:none;stroke:#263238;stroke-width:0.5;stroke-linecap:round;stroke-linejoin:round;stroke-miterlimit:10;" d="
				M225.424,201.791c0,0,1.795,8.853,4.786,15.792"/>
			
				<path id="XMLID_24_" style="fill:none;stroke:#263238;stroke-width:0.5;stroke-linecap:round;stroke-linejoin:round;stroke-miterlimit:10;" d="
				M276.987,204.423c0,0-2.871,11.724-5.384,16.988"/>
			
				<line id="XMLID_25_" style="fill:none;stroke:#263238;stroke-width:0.5;stroke-linecap:round;stroke-linejoin:round;stroke-miterlimit:10;" x1="281.653" y1="230.982" x2="281.534" y2="207.294"/>
			
				<path id="XMLID_26_" style="fill:none;stroke:#263238;stroke-width:0.5;stroke-linecap:round;stroke-linejoin:round;stroke-miterlimit:10;" d="
				M280.337,207.773c0,0-2.154,14.955-7.417,22.851"/>
			
				<path id="XMLID_27_" style="fill:none;stroke:#263238;stroke-width:0.5;stroke-linecap:round;stroke-linejoin:round;stroke-miterlimit:10;" d="
				M277.705,227.632c0,0-2.393,4.546-4.068,6.939"/>
			
				<path id="XMLID_28_" style="fill:none;stroke:#263238;stroke-width:0.5;stroke-linecap:round;stroke-linejoin:round;stroke-miterlimit:10;" d="
				M239.302,196.048c0,0,1.675,10.289,4.068,15.553c2.393,5.264,6.58,6.341,10.169,4.786c3.589-1.555,6.221-9.212,5.982-19.022"/>
		</g>
		<g>
			<g>
				<g>
					
						<path id="XMLID_13_" style="fill:#C6FF00;stroke:#263238;stroke-linecap:round;stroke-linejoin:round;stroke-miterlimit:10;" d="
						M230.807,174.514c0,0-2.273-3.948-4.068-1.914c-1.795,2.034,1.436,6.7,3.23,8.255c1.795,1.555,3.111,0.598,2.991-1.077
						C232.841,178.103,230.807,174.514,230.807,174.514z"/>
					<path id="XMLID_128_" style="opacity:0.5;fill:#FFFFFF;" d="M230.807,174.514c0,0-2.273-3.948-4.068-1.914
						c-1.795,2.034,1.436,6.7,3.23,8.255c1.795,1.555,3.111,0.598,2.991-1.077C232.841,178.103,230.807,174.514,230.807,174.514z"/>
				</g>
				<path id="XMLID_1_" style="fill:none;stroke:#263238;stroke-linecap:round;stroke-linejoin:round;stroke-miterlimit:10;" d="
					M230.807,174.514c0,0-2.273-3.948-4.068-1.914c-1.795,2.034,1.436,6.7,3.23,8.255c1.795,1.555,3.111,0.598,2.991-1.077
					C232.841,178.103,230.807,174.514,230.807,174.514z"/>
			</g>
			<g>
				<g>
					
						<path id="XMLID_16_" style="fill:#C6FF00;stroke:#263238;stroke-linecap:round;stroke-linejoin:round;stroke-miterlimit:10;" d="
						M267.018,174.514c0,0,2.273-3.948,4.068-1.914c1.795,2.034-1.436,6.7-3.23,8.255c-1.795,1.555-3.111,0.598-2.991-1.077
						C264.984,178.103,267.018,174.514,267.018,174.514z"/>
					<path id="XMLID_129_" style="opacity:0.5;fill:#FFFFFF;" d="M267.018,174.514c0,0,2.273-3.948,4.068-1.914
						c1.795,2.034-1.436,6.7-3.23,8.255c-1.795,1.555-3.111,0.598-2.991-1.077C264.984,178.103,267.018,174.514,267.018,174.514z"/>
				</g>
				<path id="XMLID_5_" style="fill:none;stroke:#263238;stroke-linecap:round;stroke-linejoin:round;stroke-miterlimit:10;" d="
					M267.018,174.514c0,0,2.273-3.948,4.068-1.914c1.795,2.034-1.436,6.7-3.23,8.255c-1.795,1.555-3.111,0.598-2.991-1.077
					C264.984,178.103,267.018,174.514,267.018,174.514z"/>
			</g>
			<path id="XMLID_17_" style="fill:#FFFFFF;stroke:#263238;stroke-linecap:round;stroke-linejoin:round;stroke-miterlimit:10;" d="
				M241.575,193.416c0,0,2.154,9.691,4.307,15.074c2.153,5.384,6.221,5.384,7.896,1.914c1.675-3.469,2.752-16.39,2.752-16.39
				S245.283,195.57,241.575,193.416z"/>
			<g>
				<defs>
					<path id="XMLID_7_" d="M231.047,175.829c0,0,3.111,11.007,8.973,17.467c5.862,6.46,8.016,8.016,11.126,7.537
						c3.111-0.479,6.46-4.546,11.126-13.04c4.666-8.494,5.025-14.955,5.384-15.553c0.359-0.598-0.957-12.562-7.657-17.706
						c-6.7-5.144-14.117-7.417-20.578-1.794C232.961,158.362,228.893,167.574,231.047,175.829z"/>
				</defs>
				<use xlink:href="#XMLID_7_"  style="overflow:visible;fill:#FFFFFF;"/>
				<clipPath id="XMLID_00000142870944811509445910000010317720267075625124_">
					<use xlink:href="#XMLID_7_"  style="overflow:visible;"/>
				</clipPath>
				<path style="opacity:0.5;clip-path:url(#XMLID_00000142870944811509445910000010317720267075625124_);fill:#C6FF00;" d="
					M259.999,154.534c-6.7-5.145-14.117-7.418-20.577-1.795c-6.46,5.623-10.528,14.835-8.375,23.09c0,0,0.598,2.116,1.763,5.036
					c0.002-0.387,0.045-0.754,0.151-1.088c1.428-4.525,5.647-13.296,19.852-9.28c11.273,3.187,9.894,13.101,8.845,18.397
					c0.203-0.362,0.406-0.722,0.614-1.101c4.666-8.494,5.025-14.955,5.384-15.553C268.015,171.642,266.698,159.678,259.999,154.534z
					"/>
				
					<use xlink:href="#XMLID_7_"  style="overflow:visible;fill:none;stroke:#263238;stroke-linecap:round;stroke-linejoin:round;stroke-miterlimit:10;"/>
			</g>
			<path id="XMLID_8_" style="fill:none;stroke:#263238;stroke-linecap:round;stroke-linejoin:round;stroke-miterlimit:10;" d="
				M251.146,181.572c0,0-0.718,4.666-0.598,7.059c0.12,2.393,0.837,3.11-0.239,3.35c-1.077,0.239-2.273-1.436-2.273-1.436"/>
			<path id="XMLID_9_" style="fill:none;stroke:#263238;stroke-linecap:round;stroke-linejoin:round;stroke-miterlimit:10;" d="
				M239.182,183.486c0,0,2.393,1.795,4.785,0.12"/>
			<path id="XMLID_10_" style="fill:none;stroke:#263238;stroke-linecap:round;stroke-linejoin:round;stroke-miterlimit:10;" d="
				M254.376,183.486c0,0,2.393,1.795,4.786,0.12"/>
			<path id="XMLID_11_" style="fill:none;stroke:#263238;stroke-linecap:round;stroke-linejoin:round;stroke-miterlimit:10;" d="
				M246.817,179.457c0,0-2.273-5.623-9.81-2.991"/>
			<path id="XMLID_12_" style="fill:none;stroke:#263238;stroke-linecap:round;stroke-linejoin:round;stroke-miterlimit:10;" d="
				M253.085,178.765c0,0,1.914-5.503,8.734-2.273"/>
			<path id="XMLID_6_" style="fill:none;stroke:#263238;stroke-linecap:round;stroke-linejoin:round;stroke-miterlimit:10;" d="
				M248.274,183.905c0,3.072-3.535,5.563-7.896,5.563c-4.361,0-7.896-2.491-7.896-5.563s3.296-4.367,7.657-4.367
				S248.274,180.833,248.274,183.905z"/>
			<path id="XMLID_14_" style="fill:none;stroke:#263238;stroke-linecap:round;stroke-linejoin:round;stroke-miterlimit:10;" d="
				M266.459,183.905c0,3.072-3.535,5.563-7.896,5.563s-7.896-2.491-7.896-5.563s3.296-4.367,7.657-4.367
				C262.685,179.538,266.459,180.833,266.459,183.905z"/>
		</g>
		<g>
			<path id="XMLID_48_" style="fill:#FFFFFF;stroke:#263238;stroke-linecap:round;stroke-linejoin:round;stroke-miterlimit:10;" d="
				M165.633,279.833l-0.493,121.222c-0.004,0.797,0.641,1.444,1.437,1.444l0,0c0.775,0,1.41-0.614,1.436-1.388L171.466,280
				L165.633,279.833z"/>
			<path id="XMLID_46_" style="fill:#FFFFFF;stroke:#263238;stroke-linecap:round;stroke-linejoin:round;stroke-miterlimit:10;" d="
				M157.466,308.167L156.973,433.5c-0.004,0.797,0.641,1.444,1.437,1.444l0,0c0.775,0,1.41-0.614,1.436-1.388l3.453-125.223
				L157.466,308.167z"/>
			<path id="XMLID_51_" style="fill:#FFFFFF;stroke:#263238;stroke-linecap:round;stroke-linejoin:round;stroke-miterlimit:10;" d="
				M333.232,279.833l0.493,121.222c0.004,0.797-0.641,1.444-1.437,1.444l0,0c-0.775,0-1.41-0.614-1.437-1.388L327.398,280
				L333.232,279.833z"/>
			<path id="XMLID_49_" style="fill:#FFFFFF;stroke:#263238;stroke-linecap:round;stroke-linejoin:round;stroke-miterlimit:10;" d="
				M341.398,308.167l0.493,125.333c0.004,0.797-0.641,1.444-1.437,1.444l0,0c-0.775,0-1.41-0.614-1.436-1.388l-3.453-125.223
				L341.398,308.167z"/>
		</g>
		<g>
			<path id="XMLID_59_" style="fill:#FFFFFF;stroke:#263238;stroke-linecap:round;stroke-linejoin:round;stroke-miterlimit:10;" d="
				M214.292,313.377l-0.313,111.244c-0.003,0.655,0.408,1.188,0.914,1.188l0,0c0.493,0,0.897-0.505,0.914-1.141l2.196-111.153
				L214.292,313.377z"/>
			<path id="XMLID_62_" style="fill:#FFFFFF;stroke:#263238;stroke-linecap:round;stroke-linejoin:round;stroke-miterlimit:10;" d="
				M284.702,309.799l0.265,97.083c0.002,0.553-0.344,1.003-0.772,1.003l0,0c-0.416,0-0.758-0.427-0.772-0.964l-1.855-97.007
				L284.702,309.799z"/>
			<path id="XMLID_63_" style="fill:#FFFFFF;stroke:#263238;stroke-linecap:round;stroke-linejoin:round;stroke-miterlimit:10;" d="
				M213.202,309.799l0.265,97.083c0.002,0.553-0.344,1.003-0.772,1.003l0,0c-0.416,0-0.758-0.427-0.772-0.964l-1.855-97.007
				L213.202,309.799z"/>
			<path id="XMLID_60_" style="fill:#FFFFFF;stroke:#263238;stroke-linecap:round;stroke-linejoin:round;stroke-miterlimit:10;" d="
				M282.689,313.377l0.313,111.244c0.002,0.655-0.408,1.188-0.914,1.188l0,0c-0.493,0-0.897-0.505-0.914-1.141l-2.196-111.153
				L282.689,313.377z"/>
			
				<ellipse id="XMLID_56_" style="fill:#FFFFFF;stroke:#263238;stroke-linecap:round;stroke-linejoin:round;stroke-miterlimit:10;" cx="248" cy="311" rx="44.5" ry="10.167"/>
		</g>
		<g>
			<path id="XMLID_54_" style="fill:#FFFFFF;stroke:#263238;stroke-linecap:round;stroke-linejoin:round;stroke-miterlimit:10;" d="
				M226.333,397.333c0,0-2.333,3.333-0.667,5c1.667,1.667,3.333,1,3.167,2.667c-0.167,1.667-2.833,7.333-5.167,13.333
				c-2.333,6,2.5,12,7,10.333c4.5-1.667,4-18.333,4.667-21.333c0.667-3,1.167-3.5,1-6.333c-0.167-2.833-0.333-5.833-2.5-6.167
				C231.667,394.5,227.333,396.167,226.333,397.333z"/>
			<path id="XMLID_61_" style="fill:#C6FF00;stroke:#263238;stroke-linecap:round;stroke-linejoin:round;stroke-miterlimit:10;" d="
				M233.485,424.065c-3.002-1.135-7.602-0.902-10.196-0.642c0.87,3.769,4.201,6.42,7.378,5.243
				C231.983,428.179,232.87,426.403,233.485,424.065z"/>
			<path id="XMLID_55_" style="fill:#FFFFFF;stroke:#263238;stroke-linecap:round;stroke-linejoin:round;stroke-miterlimit:10;" d="
				M221.167,390c0,0,4.833,8.167,6.167,10.333c1.333,2.167,5.833,1.5,6.333-1.5s-1.833-11.333-1.833-11.333l-10,2.5H221.167z"/>
			<path id="XMLID_53_" style="fill:#C6FF00;stroke:#263238;stroke-linecap:round;stroke-linejoin:round;stroke-miterlimit:10;" d="
				M209.667,377c0,0-1.333,2.167-0.667,3.667c0.667,1.5,2.5,5.833,3.667,8c1.167,2.167,6.5,3.5,12.667,2.5
				c6.167-1,9.667-3.833,9.833-6.333c0.167-2.5-1-5.833-1.833-9.833c-0.833-4-3-3.833-6-3.833S212.167,374.667,209.667,377z"/>
			<path style="fill:#263238;stroke:#263238;stroke-linecap:round;stroke-linejoin:round;stroke-miterlimit:10;" d="M227.667,328
				c0.092-4.101,2.465-6.119,2.642-8.929c0.35-5.555-0.479-9.506-0.907-11.109l-4.563-6.236c-13.117,0.17-22.523,0.391-22.673,0.44
				c-0.5,0.167-0.833,3-1.167,5.333c0,0-5.565,0.706-4.565,16.206c0.14,2.167,5.759,27.158,6.165,29.99
				c2.499,17.417,8.067,26.137,8.067,26.137s0.5,2.167,7,1.667c6.5-0.5,13-4.833,13-4.833S227.333,342.833,227.667,328z"/>
			<path id="XMLID_52_" style="fill:#FFFFFF;stroke:#263238;stroke-linecap:round;stroke-linejoin:round;stroke-miterlimit:10;" d="
				M200.095,304.961c0,0-6.883,1.034-11.104,5.817c-4.221,4.783-0.64,7.99,7.563,7.145c8.203-0.845,17.658-9.256,18.059-9.704
				C215.014,307.772,206.06,302.111,200.095,304.961z"/>
			<path style="fill:#FFFFFF;stroke:#263238;stroke-linecap:round;stroke-linejoin:round;stroke-miterlimit:10;" d="M212.333,308
				c0,0,7.333,0.333,13,2c5.667,1.667,15.667,5,18,5c2.333,0,1.667-8.667,1.667-10.333C245,303,215,302,211.333,302
				C207.667,302,212.333,308,212.333,308z"/>
			<path style="fill:#C6FF00;stroke:#263238;stroke-linecap:round;stroke-linejoin:round;stroke-miterlimit:10;" d="M245,304.667
				c0,0-2.667,1.333-3.667,6.333S239,318.667,241,320s10.667,2.333,12,1c1.333-1.333,5-8,5.667-12.333
				C259.333,304.333,245,304.667,245,304.667z"/>
			<path style="fill:#263238;stroke:#263238;stroke-linecap:round;stroke-linejoin:round;stroke-miterlimit:10;" d="
				M256.333,306.333c0,0-2.667,3-3.667,6s-1.667,7-1.667,7s4,1,9.333,3.333c5.333,2.333,14.333,4,23,6c8.667,2,11,4,14,4
				s6.667-2.333,11.333-8c4.667-5.667,0.667-17.667-4-21.333c-4.667-3.667-29.667-6.667-33-5.667
				C268.333,298.667,256.333,306.333,256.333,306.333z"/>
			<path id="XMLID_58_" style="fill:#C6FF00;stroke:#263238;stroke-linecap:round;stroke-linejoin:round;stroke-miterlimit:10;" d="
				M193.793,318.053c-0.666-3.542-2.645-6.567-3.904-8.198c-0.309,0.292-0.611,0.597-0.898,0.923
				C185.28,314.983,187.604,317.967,193.793,318.053z"/>
			
				<path id="XMLID_117_" style="fill:none;stroke:#FFFFFF;stroke-width:0.5;stroke-linecap:round;stroke-linejoin:round;stroke-miterlimit:10;" d="
				M227.162,320.692c0,0-3.44,36.803-10.463,42.537"/>
			
				<path id="XMLID_118_" style="fill:none;stroke:#FFFFFF;stroke-width:0.5;stroke-linecap:round;stroke-linejoin:round;stroke-miterlimit:10;" d="
				M224.725,355.632c0,0-2.723,12.04-9.89,16.77"/>
			<path style="fill:none;stroke:#FFFFFF;stroke-width:0.5;stroke-linecap:round;stroke-linejoin:round;stroke-miterlimit:10;" d="
				M269,314c0,0-10.667,0.667-3.667,5.333C272.333,324,285,327,285,327"/>
		</g>
		<g>
			<path id="XMLID_50_" style="fill:#263238;stroke:#263238;stroke-linecap:round;stroke-linejoin:round;stroke-miterlimit:10;" d="
				M346.463,301.39l-3.602-3.243l-8.317-17.972c-0.762-1.647-2.475-2.71-4.367-2.71H168.576c-1.892,0-3.605,1.063-4.367,2.71
				l-10.372,22.414l-1.706-0.628v5.13l0.085-0.065c0.16,1.318,1.323,2.439,2.869,2.439h188.585c1.628,0,2.821-1.243,2.875-2.651
				L346.463,301.39z"/>
			<path id="XMLID_42_" style="fill:#FFFFFF;stroke:#263238;stroke-linecap:round;stroke-linejoin:round;stroke-miterlimit:10;" d="
				M343.669,304.75H155.084c-2.087,0-3.486-2.039-2.646-3.855l11.77-25.435c0.762-1.647,2.475-2.71,4.367-2.71h161.601
				c1.892,0,3.605,1.063,4.367,2.71l11.77,25.435C347.155,302.711,345.756,304.75,343.669,304.75z"/>
			<path style="opacity:0.5;fill:#C6FF00;" d="M164.634,287.669c0,0-4.27,2.936-1.601,4.003c2.669,1.068,33.361,0.267,37.097-0.801
				c3.736-1.068,8.007-10.942,8.007-12.544s-5.375-2.746-7.358-2.841c-1.983-0.095-28.138,1.506-28.138,1.506L164.634,287.669z"/>
			<ellipse style="opacity:0.5;fill:#C6FF00;" cx="317.293" cy="288.203" rx="10.942" ry="4.537"/>
			<ellipse style="opacity:0.5;fill:#C6FF00;" cx="247.636" cy="291.005" rx="39.232" ry="7.339"/>
		</g>
		<g>
			<path id="XMLID_33_" style="fill:#C6FF00;stroke:#263238;stroke-linecap:round;stroke-linejoin:round;stroke-miterlimit:10;" d="
				M309.289,270.343c0,0-0.718-2.871-3.111-1.914c-2.393,0.957-2.153,7.298-1.675,10.887c0.479,3.589,3.709,1.914,3.709,1.914
				v-2.154c0,0-1.196,0.957-1.795-0.359s-0.478-7.896,0.12-7.776c0.598,0.12,1.795,2.154,1.795,2.154
				S308.691,272.855,309.289,270.343z"/>
			<path id="XMLID_36_" style="fill:#C6FF00;stroke:#263238;stroke-linecap:round;stroke-linejoin:round;stroke-miterlimit:10;" d="
				M307.57,270.822v15.723c0,1.845,4.251,3.341,9.496,3.341c5.244,0,9.496-1.496,9.496-3.341v-15.723H307.57z"/>
			<path id="XMLID_32_" style="fill:#FFFFFF;stroke:#263238;stroke-linecap:round;stroke-linejoin:round;stroke-miterlimit:10;" d="
				M326.562,270.822c0,1.596-4.252,2.89-9.496,2.89c-5.244,0-9.496-1.294-9.496-2.89c0-1.596,4.251-2.89,9.496-2.89
				C322.31,267.931,326.562,269.225,326.562,270.822z"/>
			<path id="XMLID_31_" style="fill:#FFFFFF;stroke:#263238;stroke-linecap:round;stroke-linejoin:round;stroke-miterlimit:10;" d="
				M325.321,270.822c0,1.388-3.696,2.512-8.255,2.512c-4.559,0-8.255-1.125-8.255-2.512c0-1.388,3.696-2.512,8.255-2.512
				C321.625,268.309,325.321,269.434,325.321,270.822z"/>
			
				<path id="XMLID_109_" style="fill:#263238;stroke:#263238;stroke-linecap:round;stroke-linejoin:round;stroke-miterlimit:10;" d="
				M310.7,272.421c1.514,0.558,3.804,0.913,6.366,0.913s4.852-0.355,6.366-0.913c-1.514-0.558-3.804-0.913-6.366-0.913
				S312.214,271.863,310.7,272.421z"/>
		</g>
		<g>
			
				<polygon id="XMLID_41_" style="fill:#FFFFFF;stroke:#263238;stroke-linecap:round;stroke-linejoin:round;stroke-miterlimit:10;" points="
				163.452,278 163.571,283.383 199.821,283.742 199.821,277.521 			"/>
			
				<polygon id="XMLID_40_" style="fill:#FFFFFF;stroke:#263238;stroke-linecap:round;stroke-linejoin:round;stroke-miterlimit:10;" points="
				199.821,283.742 205.085,272.377 205.085,269.027 199.582,278.598 			"/>
			
				<polygon id="XMLID_45_" style="fill:#FFFFFF;stroke:#263238;stroke-linecap:round;stroke-linejoin:round;stroke-miterlimit:10;" points="
				163.452,282.905 163.571,288.289 199.821,288.647 199.821,282.426 			"/>
			
				<polygon id="XMLID_44_" style="fill:#FFFFFF;stroke:#263238;stroke-linecap:round;stroke-linejoin:round;stroke-miterlimit:10;" points="
				199.821,288.647 205.085,277.282 205.085,273.932 199.582,283.503 			"/>
			<g id="XMLID_39_">
				
					<path id="XMLID_38_" style="fill:#FFFFFF;stroke:#263238;stroke-linecap:round;stroke-linejoin:round;stroke-miterlimit:10;" d="
					M177.449,264.361c0,0,0.837-1.675-0.359-2.393c-1.196-0.718-2.512,0.957-3.23,1.555c-0.718,0.598-15.792,10.528-16.271,12.083
					c-0.479,1.555,0,5.025,3.23,5.384s6.102-1.794,7.537-2.153c1.436-0.359,2.034-0.479,2.034-0.479l9.93-13.399L177.449,264.361z"
					/>
				
					<path id="XMLID_43_" style="fill:#FFFFFF;stroke:#263238;stroke-linecap:round;stroke-linejoin:round;stroke-miterlimit:10;" d="
					M160.82,280.991c3.23,0.359,6.102-1.795,7.537-2.153c1.436-0.359,2.034-0.479,2.034-0.479l0.36-0.486l-9.333-1.907
					c0,0-1.675-1.675-3.828-0.359C157.111,277.162,157.589,280.632,160.82,280.991z"/>
				
					<path id="XMLID_34_" style="fill:#FFFFFF;stroke:#263238;stroke-linecap:round;stroke-linejoin:round;stroke-miterlimit:10;" d="
					M161.418,275.966c0,0,19.262,0,27.995,0c8.733,0,11.365-0.479,11.365-0.479l5.384-11.126c0,0-16.988,1.077-22.253,0.718
					c-5.264-0.359-6.46-0.718-6.46-0.718L161.418,275.966z"/>
				
					<path id="XMLID_37_" style="fill:#FFFFFF;stroke:#263238;stroke-linecap:round;stroke-linejoin:round;stroke-miterlimit:10;" d="
					M161.418,275.966l0.479,2.153c0,0,22.731,0.12,28.713,0.12c5.982,0,10.528,0.239,10.528,0.239l-0.359-2.991L161.418,275.966z"/>
				
					<polygon id="XMLID_35_" style="fill:#FFFFFF;stroke:#263238;stroke-linecap:round;stroke-linejoin:round;stroke-miterlimit:10;" points="
					201.137,278.478 206.162,266.993 206.162,264.361 200.778,275.487 				"/>
			</g>
		</g>
		<g>
			<path id="XMLID_2_" style="fill:#FFFFFF;stroke:#263238;stroke-linecap:round;stroke-linejoin:round;stroke-miterlimit:10;" d="
				M281.9,291.921h-68.554c-0.636,0-1.152-0.516-1.152-1.152l0,0c0-0.636,0.516-1.152,1.152-1.152H281.9
				c0.636,0,1.152,0.516,1.152,1.152l0,0C283.052,291.405,282.536,291.921,281.9,291.921z"/>
			<path id="XMLID_29_" style="fill:#FFFFFF;stroke:#263238;stroke-linecap:round;stroke-linejoin:round;stroke-miterlimit:10;" d="
				M282.477,289.604h-69.722c-0.538,0-0.986-0.412-1.031-0.948l-3.795-45.547c-0.05-0.603,0.426-1.12,1.031-1.12h77.311
				c0.605,0,1.081,0.517,1.031,1.12l-3.795,45.547C283.463,289.192,283.015,289.604,282.477,289.604z"/>
			<path id="XMLID_3_" style="fill:#FFFFFF;stroke:#263238;stroke-linecap:round;stroke-linejoin:round;stroke-miterlimit:10;" d="
				M254.2,266.583c0,2.715-2.947,4.917-6.583,4.917s-6.583-2.201-6.583-4.917c0-2.715,2.947-4.917,6.583-4.917
				S254.2,263.868,254.2,266.583z"/>
		</g>
		<g>
			<path id="XMLID_110_" style="fill:none;stroke:#263238;stroke-linecap:round;stroke-linejoin:round;stroke-miterlimit:10;" d="
				M322.331,230.975c1.057-0.902,1.838-1.965,2.128-3.337c0.229-1.085,0.183-2.075-0.073-2.963"/>
			<path id="XMLID_101_" style="fill:none;stroke:#263238;stroke-linecap:round;stroke-linejoin:round;stroke-miterlimit:10;" d="
				M314.352,266.662c0,0,6.653-3.966,4.478-8.573c-2.175-4.606-9.505-7.595-9.505-14.718c0-6.139,6.528-8.41,10.783-10.873"/>
			<path id="XMLID_106_" style="fill:none;stroke:#263238;stroke-linecap:round;stroke-linejoin:round;stroke-miterlimit:10;" d="
				M320.493,266.534c0,0,3.71-2.47,3.71-6.397c0-2.631-2.815-4.35-6.525-8.573"/>
			<path id="XMLID_108_" style="fill:none;stroke:#263238;stroke-linecap:round;stroke-linejoin:round;stroke-miterlimit:10;" d="
				M315.631,249.005c0,0-2.431-1.919-0.64-5.502"/>
		</g>
		<g>
			<path style="fill:#263238;" d="M259.327,144.25c1.193-0.246,3.74-1.235,5.465-5.218c0.109-0.253-0.007-0.548-0.26-0.658
				c-0.256-0.11-0.548,0.007-0.658,0.26c-1.583,3.654-3.846,4.464-4.781,4.645c1.65-2.046,2.628-4.536,2.628-7.23
				c0-6.938-6.428-12.562-14.356-12.562c-7.929,0-14.357,5.624-14.357,12.562c0,2.574,0.888,4.966,2.407,6.958
				c-1.51-0.079-4.06,0.561-7.294,4.333c-0.18,0.21-0.156,0.525,0.054,0.705c0.094,0.081,0.21,0.121,0.325,0.121
				c0.141,0,0.281-0.059,0.379-0.175c4.126-4.814,6.861-4.018,7.415-3.783c-1.03,0.581-1.918,1.203-2.616,1.831
				c-4.612,4.151-7.418,11.964-7.059,18.544c0.359,6.58,4.546,11.964,4.546,11.964s4.666-2.991,8.135-9.092
				c1.795-3.156,3.137-6.08,4.019-8.176c0,2.933,0.385,6.474,1.92,8.982c3.446,5.629,8.344,6.564,11.216,6.564
				c1.406,0,2.327-0.224,2.355-0.231c0.143-0.036,0.251-0.132,0.315-0.253c3.86,0.818,7.7,0.747,8.291-0.066
				c0.957-1.316,2.307-5.402,2.752-10.408C270.913,155.484,265.568,148.119,259.327,144.25z M246.093,167.739
				c-1.939-3.168-1.881-8.338-1.648-11.309c0.077-0.214,0.121-0.341,0.121-0.341s-0.232,9.411,8.135,15.673
				c1.179,0.882,2.753,1.562,4.43,2.066C254.684,173.995,249.64,173.532,246.093,167.739z"/>
			
				<path id="XMLID_107_" style="fill:none;stroke:#FFFFFF;stroke-width:0.5;stroke-linecap:round;stroke-linejoin:round;stroke-miterlimit:10;" d="
				M246.26,152.029c0,0-0.822,6.059,6.88,12.015c7.702,5.956,14.993,3.594,14.993,3.594"/>
			
				<path id="XMLID_114_" style="fill:none;stroke:#FFFFFF;stroke-width:0.5;stroke-linecap:round;stroke-linejoin:round;stroke-miterlimit:10;" d="
				M247.39,149.975c0,0,8.113,11.81,19.306,8.729"/>
			
				<path id="XMLID_113_" style="fill:none;stroke:#FFFFFF;stroke-width:0.5;stroke-linecap:round;stroke-linejoin:round;stroke-miterlimit:10;" d="
				M243.385,146.073c0,0-3.8-2.259-8.113,0.616s-6.47,9.653-6.47,9.653"/>
			
				<path id="XMLID_115_" style="fill:none;stroke:#FFFFFF;stroke-width:0.5;stroke-linecap:round;stroke-linejoin:round;stroke-miterlimit:10;" d="
				M243.59,149.359c0,0-3.492-0.924-5.648,1.232c-2.156,2.157-2.67,3.286-2.67,3.286"/>
		</g>
	</g>
</g>
</svg>
