<?xml version="1.0" encoding="utf-8"?>
<!-- Generator: Adobe Illustrator 27.5.0, SVG Export Plug-In . SVG Version: 6.00 Build 0)  -->
<svg version="1.1" id="Layer_1" xmlns="http://www.w3.org/2000/svg" xmlns:xlink="http://www.w3.org/1999/xlink" x="0px" y="0px"
	 viewBox="0 0 500 500" style="enable-background:new 0 0 500 500;" xml:space="preserve">
<g>
	<linearGradient id="SVGID_1_" gradientUnits="userSpaceOnUse" x1="249.6599" y1="250" x2="342.5485" y2="250">
		<stop  offset="0" style="stop-color:#FFFFFF"/>
		<stop  offset="1" style="stop-color:#000000"/>
	</linearGradient>
	<path style="fill:url(#SVGID_1_);fill-opacity:0.5;" d="M304.255,137.048c-16.277-11.826-35.436-17.739-54.595-17.739v30.961
		c12.773,0,25.545,3.942,36.396,11.827c21.703,15.767,30.784,43.718,22.495,69.23c-8.29,25.514-32.064,42.787-58.891,42.787
		l0,106.58c40.239,0,75.901-101.529,88.336-139.799C350.431,202.623,336.808,160.7,304.255,137.048z"/>
	<path style="fill:#CC1F1F;" d="M304.255,137.048c-16.277-11.826-35.436-17.739-54.595-17.739v30.961
		c12.773,0,25.545,3.942,36.396,11.827c21.703,15.767,30.784,43.718,22.495,69.23c-8.29,25.514-32.064,42.787-58.891,42.787
		l0,106.58c40.239,0,75.901-101.529,88.336-139.799C350.431,202.623,336.808,160.7,304.255,137.048z"/>
	
		<linearGradient id="SVGID_00000031913429880578570690000016586104154871993507_" gradientUnits="userSpaceOnUse" x1="158.2431" y1="250" x2="251.1317" y2="250">
		<stop  offset="0" style="stop-color:#FFFFFF"/>
		<stop  offset="1" style="stop-color:#000000"/>
	</linearGradient>
	<path style="opacity:0.5;fill:url(#SVGID_00000031913429880578570690000016586104154871993507_);" d="M196.536,137.048
		c16.277-11.826,35.436-17.739,54.595-17.739v30.961c-12.773,0-25.545,3.942-36.396,11.827
		c-21.703,15.767-30.784,43.718-22.495,69.23c8.29,25.514,32.064,42.787,58.891,42.787l0,106.58
		c-40.239,0-75.901-101.529-88.336-139.799C150.36,202.623,163.983,160.7,196.536,137.048z"/>
	<path style="fill:#EA1B1B;" d="M196.536,137.048c16.277-11.826,35.436-17.739,54.595-17.739v30.961
		c-12.773,0-25.545,3.942-36.396,11.827c-21.703,15.767-30.784,43.718-22.495,69.23c8.29,25.514,32.064,42.787,58.891,42.787
		l0,106.58c-40.239,0-75.901-101.529-88.336-139.799C150.36,202.623,163.983,160.7,196.536,137.048z"/>
</g>
</svg>
