<?xml version="1.0" encoding="utf-8"?>
<!-- Generator: Adobe Illustrator 27.5.0, SVG Export Plug-In . SVG Version: 6.00 Build 0)  -->
<svg version="1.1" xmlns="http://www.w3.org/2000/svg" xmlns:xlink="http://www.w3.org/1999/xlink" x="0px" y="0px"
	 viewBox="0 0 500 500" style="enable-background:new 0 0 500 500;" xml:space="preserve">
<g id="BACKGROUND">
	<rect style="fill:#FFFFFF;" width="500" height="500"/>
</g>
<g id="OBJECTS">
	<g>
		<path style="fill:#E9ECF0;" d="M469.611,458.412H43.296c-13.673-15.4-20.86-35.222-20.622-55.815
			c0.238-20.592,9.993-41.289,26.906-53.037c9.935-6.901,21.947-10.672,31.063-18.624c19.964-17.417,19.681-48.846,11.604-74.078
			c-8.077-25.233-22.276-48.815-25.123-75.155c-1.751-16.196,0.992-32.799,7.451-47.753c5.268-12.197,13.32-23.641,24.782-30.36
			c13.209-7.743,29.784-8.377,44.484-4.098c14.701,4.28,27.728,13.069,39.221,23.185c14.072,12.386,27.155,27.477,45.224,32.472
			c20.884,5.773,43.044-3.635,60.781-16.079c17.737-12.445,33.342-28.182,52.793-37.729c19.451-9.547,45.039-11.404,61.094,3.147
			c9.753,8.839,14.284,22.222,15.5,35.328c4.073,43.914-24.505,86.37-18.768,130.098c3.023,23.04,15.341,43.759,28.763,62.728
			c13.422,18.969,28.355,37.171,37.879,58.368C475.851,412.204,479.722,437.49,469.611,458.412z"/>
		<g>
			<g>
				<rect x="217.343" y="296.922" style="fill:#004370;" width="65.858" height="88.093"/>
				<g>
					<g>
						<g>
							<path style="fill:#004370;" d="M232.946,453.585c0,2.531-2.052,4.584-4.584,4.584c-2.531,0-4.584-2.052-4.584-4.584
								c0-2.531,2.052-4.584,4.584-4.584C230.894,449.001,232.946,451.053,232.946,453.585z"/>
						</g>
						<g>
							<path style="fill:#00548A;" d="M230.024,453.585c0,0.918-0.744,1.662-1.662,1.662c-0.918,0-1.662-0.744-1.662-1.662
								c0-0.918,0.744-1.662,1.662-1.662C229.28,451.923,230.024,452.667,230.024,453.585z"/>
						</g>
						<g>
							<path style="fill:#002C47;" d="M228.363,448.124c-3.016,0-5.46,2.445-5.46,5.46h10.921
								C233.823,450.569,231.378,448.124,228.363,448.124z"/>
						</g>
					</g>
					<g>
						<g>
							<path style="fill:#004370;" d="M254.856,453.585c0,2.531-2.052,4.584-4.584,4.584c-2.531,0-4.584-2.052-4.584-4.584
								c0-2.531,2.052-4.584,4.584-4.584C252.804,449.001,254.856,451.053,254.856,453.585z"/>
						</g>
						<g>
							<circle style="fill:#00548A;" cx="250.273" cy="453.585" r="1.662"/>
						</g>
						<g>
							<path style="fill:#002C47;" d="M250.273,448.124c-3.016,0-5.46,2.445-5.46,5.46h10.921
								C255.733,450.569,253.288,448.124,250.273,448.124z"/>
						</g>
					</g>
					<g>
						<g>
							<path style="fill:#004370;" d="M276.766,453.585c0,2.531-2.052,4.584-4.584,4.584s-4.584-2.052-4.584-4.584
								c0-2.531,2.052-4.584,4.584-4.584S276.766,451.053,276.766,453.585z"/>
						</g>
						<g>
							<circle style="fill:#00548A;" cx="272.182" cy="453.585" r="1.662"/>
						</g>
						<g>
							<path style="fill:#002C47;" d="M272.182,448.124c-3.016,0-5.46,2.445-5.46,5.46h10.921
								C277.643,450.569,275.198,448.124,272.182,448.124z"/>
						</g>
					</g>
					<g>
						<rect x="245.426" y="425.161" style="fill:#002C47;" width="9.693" height="11.557"/>
					</g>
					<g>
						<rect x="245.426" y="394.059" style="fill:#002C47;" width="9.693" height="11.557"/>
					</g>
					<g>
						<rect x="247.329" y="403.871" style="fill:#002C47;" width="5.887" height="22.063"/>
					</g>
					<g>
						<polygon style="fill:#002C47;" points="227.074,449.992 227.074,444.37 227.074,443.573 227.86,443.183 247.597,433.392 
							249.625,438.176 228.866,445.556 229.651,444.37 229.651,449.992 						"/>
					</g>
					<g>
						<polygon style="fill:#002C47;" points="270.894,449.992 270.894,444.37 271.679,445.556 250.92,438.176 252.949,433.392 
							272.685,443.183 273.471,443.573 273.471,444.37 273.471,449.992 						"/>
					</g>
					<g>
						<polygon style="fill:#002C47;" points="253.16,435.554 251.725,449.375 248.82,449.375 247.385,435.554 						"/>
					</g>
					<g>
						<g>
							<path style="fill:#004370;" d="M264.114,398.237h-27.684c-3.2,0-5.795-2.594-5.795-5.795v-1.156h39.273v1.156
								C269.909,395.642,267.315,398.237,264.114,398.237z"/>
						</g>
					</g>
					<g>
						<path style="fill:#002C47;" d="M285.423,379.532h-70.3c-2.819,0-5.105,2.286-5.105,5.105v6.65h80.511v-6.65
							C290.528,381.817,288.242,379.532,285.423,379.532z"/>
					</g>
				</g>
				<g>
					<g>
						
							<ellipse transform="matrix(0.2309 -0.973 0.973 0.2309 -114.7835 439.5964)" style="fill:#004370;" cx="220.686" cy="292.407" rx="12.104" ry="12.104"/>
					</g>
					<g>
						<g>
							
								<ellipse transform="matrix(0.1608 -0.987 0.987 0.1608 -52.2523 523.3615)" style="fill:#004370;" cx="281.634" cy="292.407" rx="12.104" ry="12.104"/>
						</g>
					</g>
					<rect x="220.686" y="280.303" style="fill:#004370;" width="60.948" height="24.208"/>
				</g>
			</g>
			<g>
				<g>
					<g>
						
							<rect x="410.086" y="404.84" transform="matrix(-1 -1.224647e-16 1.224647e-16 -1 825.9754 831.433)" style="fill:#002C47;" width="5.804" height="21.753"/>
					</g>
					<g>
						<path style="fill:#002C47;" d="M382.143,399.868h28.773v-6.853h-33.873v1.754
							C377.044,397.585,379.327,399.868,382.143,399.868z"/>
					</g>
					<g>
						<path style="fill:#004370;" d="M405.259,399.868h26.769c2.816,0,5.099-2.283,5.099-5.099v-1.754h-38.721l0,0
							C398.406,396.8,401.474,399.868,405.259,399.868z"/>
					</g>
					<g>
						<g>
							<path style="fill:#004370;" d="M430.071,453.855c0,2.496,2.023,4.519,4.519,4.519c2.496,0,4.519-2.023,4.519-4.519
								c0-2.496-2.023-4.519-4.519-4.519C432.094,449.336,430.071,451.359,430.071,453.855z"/>
						</g>
						<g>
							<path style="fill:#00548A;" d="M432.951,453.855c0,0.905,0.734,1.638,1.638,1.638c0.905,0,1.638-0.733,1.638-1.638
								c0-0.905-0.733-1.638-1.638-1.638C433.685,452.217,432.951,452.95,432.951,453.855z"/>
						</g>
						<g>
							<path style="fill:#002C47;" d="M434.59,448.472c2.973,0,5.384,2.41,5.384,5.384h-10.767
								C429.206,450.882,431.617,448.472,434.59,448.472z"/>
						</g>
					</g>
					<g>
						<g>
							<path style="fill:#004370;" d="M408.468,453.855c0,2.496,2.023,4.519,4.519,4.519c2.496,0,4.519-2.023,4.519-4.519
								c0-2.496-2.023-4.519-4.519-4.519C410.492,449.336,408.468,451.359,408.468,453.855z"/>
						</g>
						<g>
							<path style="fill:#00548A;" d="M411.349,453.855c0,0.905,0.733,1.638,1.638,1.638c0.905,0,1.638-0.733,1.638-1.638
								c0-0.905-0.734-1.638-1.638-1.638C412.083,452.217,411.349,452.95,411.349,453.855z"/>
						</g>
						<g>
							<path style="fill:#002C47;" d="M412.988,448.472c2.973,0,5.384,2.41,5.384,5.384h-10.767
								C407.604,450.882,410.014,448.472,412.988,448.472z"/>
						</g>
					</g>
					<g>
						<g>
							<path style="fill:#004370;" d="M386.866,453.855c0,2.496,2.023,4.519,4.519,4.519c2.496,0,4.519-2.023,4.519-4.519
								c0-2.496-2.023-4.519-4.519-4.519C388.89,449.336,386.866,451.359,386.866,453.855z"/>
						</g>
						<g>
							<path style="fill:#00548A;" d="M389.747,453.855c0,0.905,0.733,1.638,1.638,1.638c0.905,0,1.638-0.733,1.638-1.638
								c0-0.905-0.734-1.638-1.638-1.638C390.481,452.217,389.747,452.95,389.747,453.855z"/>
						</g>
						<g>
							<path style="fill:#002C47;" d="M391.385,448.472c2.973,0,5.384,2.41,5.384,5.384h-10.767
								C386.002,450.882,388.412,448.472,391.385,448.472z"/>
						</g>
					</g>
					<g>
						
							<rect x="408.209" y="425.831" transform="matrix(-1 -1.224647e-16 1.224647e-16 -1 825.9754 863.0565)" style="fill:#002C47;" width="9.557" height="11.394"/>
					</g>
					<g>
						
							<rect x="408.209" y="395.166" transform="matrix(-1 -1.224647e-16 1.224647e-16 -1 825.9754 801.7256)" style="fill:#004370;" width="9.557" height="11.394"/>
					</g>
					<g>
						<polygon style="fill:#002C47;" points="433.301,450.313 433.301,444.77 434.087,445.956 413.612,438.697 415.64,433.912 
							435.093,443.583 435.879,443.974 435.879,444.77 435.879,450.313 						"/>
					</g>
					<g>
						<polygon style="fill:#002C47;" points="390.097,450.313 390.097,444.77 390.097,443.974 390.883,443.583 410.335,433.912 
							412.364,438.697 391.889,445.956 392.674,444.77 392.674,450.313 						"/>
					</g>
					<g>
						<polygon style="fill:#002C47;" points="415.875,436.078 414.44,449.705 411.535,449.705 410.1,436.078 						"/>
					</g>
				</g>
				<g>
					<g>
						<path style="fill:#004370;" d="M337.464,393.202h96.833v-12.104H344.39c-3.826,0-6.927,3.101-6.927,6.927V393.202z"/>
					</g>
					<g>
						<path style="fill:#002C47;" d="M458.212,383.902l7.262-91.339c0.099-1.243-0.883-2.307-2.131-2.307h-50.181
							c-1.115,0-2.042,0.857-2.131,1.968l-7.845,98.671c-0.099,1.243,0.883,2.307,2.131,2.307h42.825
							C453.411,393.202,457.795,389.153,458.212,383.902z"/>
					</g>
					<g>
						<g>
							<polygon style="fill:#004370;" points="398.843,278.153 453.069,278.153 453.069,302.361 396.12,302.361 							"/>
						</g>
						<g>
							<circle style="fill:#004370;" cx="399.327" cy="290.257" r="12.104"/>
						</g>
					</g>
					<g>
						<polygon style="fill:#004370;" points="445.369,387.576 453.554,290.256 399.085,290.256 390.9,387.576 						"/>
					</g>
					<g>
						<circle style="fill:#002C47;" cx="453.554" cy="290.257" r="12.104"/>
					</g>
					<g>
						<path style="fill:#002C47;" d="M397.009,393.202h46.833c5.955,0,10.783-4.828,10.783-10.783v-1.321h-50.69
							c-3.826,0-6.927,3.101-6.927,6.927V393.202z"/>
					</g>
				</g>
			</g>
			<g>
				<g>
					<g>
						<rect x="93.064" y="404.84" style="fill:#002C47;" width="5.804" height="21.753"/>
					</g>
					<g>
						<path style="fill:#002C47;" d="M126.811,402.019H98.038v-6.853h33.873v1.754C131.91,399.736,129.627,402.019,126.811,402.019z
							"/>
					</g>
					<g>
						<path style="fill:#004370;" d="M103.696,402.019H76.926c-2.816,0-5.099-2.283-5.099-5.099v-1.754h38.721l0,0
							C110.548,398.951,107.48,402.019,103.696,402.019z"/>
					</g>
					<g>
						<g>
							<path style="fill:#004370;" d="M78.884,453.855c0,2.496-2.023,4.519-4.519,4.519s-4.519-2.023-4.519-4.519
								c0-2.496,2.023-4.519,4.519-4.519S78.884,451.359,78.884,453.855z"/>
						</g>
						<g>
							<path style="fill:#00548A;" d="M76.003,453.855c0,0.905-0.733,1.638-1.638,1.638s-1.638-0.733-1.638-1.638
								c0-0.905,0.733-1.638,1.638-1.638S76.003,452.95,76.003,453.855z"/>
						</g>
						<g>
							<path style="fill:#002C47;" d="M74.364,448.472c-2.973,0-5.384,2.41-5.384,5.384h10.767
								C79.748,450.882,77.338,448.472,74.364,448.472z"/>
						</g>
					</g>
					<g>
						<g>
							<path style="fill:#004370;" d="M100.486,453.855c0,2.496-2.023,4.519-4.519,4.519c-2.496,0-4.519-2.023-4.519-4.519
								c0-2.496,2.023-4.519,4.519-4.519C98.462,449.336,100.486,451.359,100.486,453.855z"/>
						</g>
						<g>
							<path style="fill:#00548A;" d="M97.605,453.855c0,0.905-0.734,1.638-1.638,1.638c-0.905,0-1.638-0.733-1.638-1.638
								c0-0.905,0.733-1.638,1.638-1.638C96.871,452.217,97.605,452.95,97.605,453.855z"/>
						</g>
						<g>
							<path style="fill:#002C47;" d="M95.967,448.472c-2.973,0-5.384,2.41-5.384,5.384h10.767
								C101.35,450.882,98.94,448.472,95.967,448.472z"/>
						</g>
					</g>
					<g>
						<g>
							<path style="fill:#004370;" d="M122.088,453.855c0,2.496-2.023,4.519-4.519,4.519c-2.496,0-4.519-2.023-4.519-4.519
								c0-2.496,2.023-4.519,4.519-4.519C120.065,449.336,122.088,451.359,122.088,453.855z"/>
						</g>
						<g>
							<path style="fill:#00548A;" d="M119.207,453.855c0,0.905-0.734,1.638-1.638,1.638c-0.905,0-1.638-0.733-1.638-1.638
								c0-0.905,0.734-1.638,1.638-1.638C118.473,452.217,119.207,452.95,119.207,453.855z"/>
						</g>
						<g>
							<path style="fill:#002C47;" d="M117.569,448.472c-2.973,0-5.384,2.41-5.384,5.384h10.767
								C122.952,450.882,120.542,448.472,117.569,448.472z"/>
						</g>
					</g>
					<g>
						<rect x="91.188" y="425.831" style="fill:#002C47;" width="9.557" height="11.394"/>
					</g>
					<g>
						<rect x="91.188" y="395.166" style="fill:#004370;" width="9.557" height="11.394"/>
					</g>
					<g>
						<polygon style="fill:#002C47;" points="73.076,450.313 73.076,444.77 73.076,443.974 73.861,443.583 93.314,433.912 
							95.342,438.697 74.868,445.956 75.653,444.77 75.653,450.313 						"/>
					</g>
					<g>
						<polygon style="fill:#002C47;" points="116.28,450.313 116.28,444.77 117.065,445.956 96.591,438.697 98.619,433.912 
							118.072,443.583 118.857,443.974 118.857,444.77 118.857,450.313 						"/>
					</g>
					<g>
						<polygon style="fill:#002C47;" points="98.854,436.078 97.419,449.705 94.514,449.705 93.079,436.078 						"/>
					</g>
				</g>
				<g>
					<g>
						<path style="fill:#004370;" d="M171.491,395.352H74.657v-12.104h89.907c3.826,0,6.927,3.101,6.927,6.927V395.352z"/>
					</g>
					<g>
						<path style="fill:#002C47;" d="M50.742,386.052l-7.262-91.339c-0.099-1.243,0.883-2.307,2.131-2.307h50.181
							c1.115,0,2.042,0.857,2.131,1.968l7.845,98.671c0.099,1.243-0.883,2.307-2.131,2.307H60.811
							C55.543,395.352,51.159,391.303,50.742,386.052z"/>
					</g>
					<g>
						<g>
							<polygon style="fill:#004370;" points="110.112,280.303 55.885,280.303 55.885,304.512 112.834,304.512 							"/>
						</g>
						<g>
							
								<ellipse transform="matrix(0.1608 -0.987 0.987 0.1608 -196.6024 353.5928)" style="fill:#004370;" cx="109.627" cy="292.407" rx="12.104" ry="12.104"/>
						</g>
					</g>
					<g>
						<polygon style="fill:#004370;" points="63.585,389.726 55.401,292.406 109.869,292.406 118.054,389.726 						"/>
					</g>
					<g>
						
							<ellipse transform="matrix(0.1608 -0.987 0.987 0.1608 -242.11 300.0716)" style="fill:#002C47;" cx="55.401" cy="292.407" rx="12.104" ry="12.104"/>
					</g>
					<g>
						<path style="fill:#002C47;" d="M111.945,395.352H65.112c-5.955,0-10.783-4.828-10.783-10.783v-1.321h50.69
							c3.826,0,6.927,3.101,6.927,6.927V395.352z"/>
					</g>
				</g>
			</g>
			<g>
				<g>
					<path style="fill:#42A5F6;" d="M233.371,262.361c-0.552,0-1-0.448-1-1v-10.082c0-7.336,5.968-13.305,13.305-13.305h9.071
						c2.959,0,5.76,0.95,8.1,2.749c0.438,0.336,0.52,0.964,0.184,1.402c-0.337,0.438-0.963,0.521-1.402,0.184
						c-1.987-1.527-4.367-2.334-6.881-2.334h-9.071c-6.233,0-11.305,5.071-11.305,11.305v10.082
						C234.371,261.913,233.923,262.361,233.371,262.361z"/>
				</g>
				<g>
					<path style="fill:#BA6C56;" d="M227.196,446.834c0.413,3.335,3.29,5.918,6.724,5.856c3.673-0.066,6.596-3.098,6.529-6.77
						l-0.437-24.116l-15.595,1.929L227.196,446.834z"/>
					<path style="fill:#BA6C56;" d="M263.697,423.014l-0.415,22.905c-0.049,3.359,2.446,6.314,5.856,6.724
						c3.647,0.439,6.959-2.162,7.398-5.809l2.799-23.267L263.697,423.014z"/>
				</g>
				<path style="fill:#0C1633;" d="M267.116,251.349c-0.412-2.478-1.407-5.117-3.623-6.3c-0.873-0.466-1.868-0.664-2.742-1.127
					s-1.663-1.329-1.571-2.314c0.045-0.481,0.293-0.917,0.43-1.38c0.338-1.144-0.04-2.422-0.795-3.347s-1.841-1.528-2.973-1.906
					c-2.395-0.799-5.095-0.639-7.378,0.438c-3.84,1.811-6.235,5.918-10.116,7.64c-0.811,0.36-1.674,0.608-2.444,1.05
					c-2.441,1.4-3.461,4.544-3.081,7.332c0.38,2.788,1.899,5.283,3.543,7.567l28.662,0.751c1.159-0.972,1.864-2.409,2.151-3.894
					C267.466,254.376,267.363,252.84,267.116,251.349z"/>
				<rect x="243.005" y="272.332" style="fill:#BA6C56;" width="14.148" height="19.076"/>
				<path style="fill:#AA563C;" d="M257.154,272.332v6.222c-1.517,0.553-3.178,0.83-4.74,0.937
					c-2.142,0.152-4.285-0.009-6.409-0.259c-1.009-0.116-2.035-0.393-2.999-0.794v-6.106H257.154z"/>
				<path style="fill:#BA6C56;" d="M272.765,347.179h-45.372v-52.732c0-4.367,2.897-8.204,7.098-9.399l14.911-4.242l16.121,4.32
					c4.272,1.145,7.242,5.016,7.242,9.439V347.179z"/>
				<g>
					<path style="fill:#BA6C56;" d="M268.326,258.598c-0.627-0.83-1.667-1.451-2.81-1.535c-1.143-0.084-2.353,0.428-2.854,1.32
						l-0.43,5.695c0.412,0.959,1.601,1.587,2.785,1.591c1.184,0.004,2.318-0.558,3.041-1.368c0.723-0.81,1.061-1.843,1.099-2.865
						C269.195,260.444,268.953,259.427,268.326,258.598z"/>
					<g>
						
							<path style="fill:none;stroke:#AA563C;stroke-width:0.6854;stroke-linecap:round;stroke-linejoin:round;stroke-miterlimit:10;" d="
							M265.368,263.882c-0.905-1.683-0.774-3.703,0.344-5.301"/>
						
							<path style="fill:none;stroke:#AA563C;stroke-width:0.6854;stroke-linecap:round;stroke-linejoin:round;stroke-miterlimit:10;" d="
							M265.034,260.889c0.952,0.419,1.69,1.141,2.017,1.973"/>
					</g>
				</g>
				<g>
					<path style="fill:#BA6C56;" d="M232.245,258.598c0.627-0.83,1.666-1.451,2.809-1.535c1.143-0.084,2.353,0.428,2.854,1.32
						l0.43,5.695c-0.412,0.959-1.601,1.587-2.785,1.591c-1.184,0.004-2.318-0.558-3.041-1.368c-0.723-0.81-1.061-1.843-1.099-2.865
						C231.376,260.444,231.618,259.427,232.245,258.598z"/>
					<g>
						
							<path style="fill:none;stroke:#AA563C;stroke-width:0.6854;stroke-linecap:round;stroke-linejoin:round;stroke-miterlimit:10;" d="
							M235.203,263.882c0.905-1.683,0.774-3.703-0.344-5.301"/>
						
							<path style="fill:none;stroke:#AA563C;stroke-width:0.6854;stroke-linecap:round;stroke-linejoin:round;stroke-miterlimit:10;" d="
							M235.538,260.889c-0.952,0.419-1.69,1.141-2.017,1.973"/>
					</g>
				</g>
				<path style="fill:#BA6C56;" d="M264.48,258.272c0-9.317-6.361-16.87-14.208-16.87c-7.847,0-14.208,7.553-14.208,16.87
					c0,0.976,0.085,1.927,0.219,2.858c0,0,0,4.173,0,4.173c0,3.834,1.888,7.517,5.031,9.722c1.408,0.988,3.149,1.677,4.851,1.884
					c2.043,0.248,4.107,0.407,6.164,0.257c2.221-0.162,4.616-0.673,6.522-1.879c1.747-1.106,3.18-2.744,4.117-4.582
					c0.097-0.19,0.189-0.382,0.275-0.577c0.237-0.532,0.435-1.081,0.589-1.642c0.285-1.035,0.428-2.109,0.428-3.182v-4.173
					C264.395,260.199,264.48,259.249,264.48,258.272z"/>
				<g>
					<path style="fill:#0C1633;" d="M240.78,450.796h-13.915v-6.027c0-3.43,2.781-6.211,6.211-6.211h1.492
						c3.43,0,6.211,2.781,6.211,6.211V450.796z"/>
					<path style="fill:#0C1633;" d="M235.224,443.815h-2.803c-5.032,0-9.112,4.079-9.112,9.112v2.484v2.783h21.026v-2.783v-2.484
						C244.336,447.894,240.256,443.815,235.224,443.815z"/>
					<g>
						<rect x="223.31" y="454.789" style="fill:#D4D4D0;" width="21.026" height="1.375"/>
					</g>
					<g>
						<path style="fill:#D4D4D0;" d="M238.735,446.972h-9.824c-0.164,0-0.298-0.133-0.298-0.298c0-0.164,0.133-0.298,0.298-0.298
							h9.824c0.164,0,0.298,0.133,0.298,0.298C239.033,446.839,238.899,446.972,238.735,446.972z"/>
					</g>
					<g>
						<path style="fill:#D4D4D0;" d="M237.876,448.959h-8.106c-0.164,0-0.298-0.133-0.298-0.298c0-0.164,0.133-0.298,0.298-0.298
							h8.106c0.164,0,0.298,0.133,0.298,0.298C238.174,448.826,238.04,448.959,237.876,448.959z"/>
					</g>
					<g>
						<g>
							<g>
								<path style="fill:#D4D4D0;" d="M228.563,443.283c0-0.868,0.492-1.629,1.283-1.988c0.791-0.356,1.687-0.224,2.339,0.35
									l1.671,1.469c0.064,0.057,0.096,0.141,0.085,0.227c-0.159,1.211-1.199,2.124-2.421,2.124h-0.775
									C229.542,445.464,228.563,444.486,228.563,443.283z M231.846,442.03c-0.497-0.44-1.184-0.539-1.788-0.267
									c-0.605,0.273-0.98,0.856-0.98,1.519c0,0.92,0.748,1.668,1.668,1.668h0.775c0.92,0,1.71-0.657,1.89-1.547L231.846,442.03z"
									/>
							</g>
						</g>
						<g>
							<g>
								<path style="fill:#D4D4D0;" d="M236.901,445.464h-0.775c-1.222,0-2.263-0.913-2.421-2.124
									c-0.012-0.086,0.021-0.17,0.085-0.227l1.671-1.469c0.652-0.574,1.548-0.706,2.339-0.35c0.791,0.359,1.283,1.12,1.283,1.988
									C239.082,444.486,238.104,445.464,236.901,445.464z M234.235,443.405c0.181,0.89,0.971,1.547,1.89,1.547h0.775
									c0.92,0,1.668-0.749,1.668-1.668c0-0.663-0.376-1.246-0.98-1.519c-0.604-0.272-1.291-0.174-1.788,0.267L234.235,443.405z"/>
							</g>
						</g>
					</g>
				</g>
				<path style="fill:#5E4ECB;" d="M279.248,367.951l-0.72-0.316c-1.302-0.573-2.595-1.169-3.894-1.749l-1.869-19.405h-45.372
					l-2.031,21.082c-0.053,0.023-0.106,0.048-0.159,0.072l-0.732,0.319c-3.718,1.638-6.094,5.563-5.584,9.806l5.53,54.364
					l16.577-1.621l-1.664-46.381c1.693-0.617,3.379-1.252,5.077-1.857c0.284-0.102,0.584-0.223,0.863-0.351
					c1.257-0.577,2.34-1.374,3.241-2.316h6.715c1.108,1.159,2.487,2.092,4.1,2.667c1.698,0.605,3.384,1.24,5.077,1.857l-1.83,46.68
					l16.998,0.944l5.274-53.986C285.326,373.726,283.16,369.671,279.248,367.951z"/>
				<g>
					<path style="fill:#0C1633;" d="M262.952,450.796h13.915v-6.027c0-3.43-2.781-6.211-6.211-6.211h-1.492
						c-3.43,0-6.211,2.781-6.211,6.211V450.796z"/>
					<path style="fill:#0C1633;" d="M268.508,443.815h2.803c5.032,0,9.112,4.079,9.112,9.112v2.484v2.783h-21.026v-2.783v-2.484
						C259.396,447.894,263.475,443.815,268.508,443.815z"/>
					<g>
						
							<rect x="259.396" y="454.789" transform="matrix(-1 -1.224647e-16 1.224647e-16 -1 539.8182 910.9541)" style="fill:#D4D4D0;" width="21.026" height="1.375"/>
					</g>
					<g>
						<path style="fill:#D4D4D0;" d="M264.997,446.972h9.824c0.164,0,0.298-0.133,0.298-0.298c0-0.164-0.133-0.298-0.298-0.298
							h-9.824c-0.165,0-0.298,0.133-0.298,0.298C264.699,446.839,264.832,446.972,264.997,446.972z"/>
					</g>
					<g>
						<path style="fill:#D4D4D0;" d="M265.856,448.959h8.106c0.165,0,0.298-0.133,0.298-0.298c0-0.164-0.133-0.298-0.298-0.298
							h-8.106c-0.164,0-0.298,0.133-0.298,0.298C265.558,448.826,265.692,448.959,265.856,448.959z"/>
					</g>
					<g>
						<g>
							<g>
								<path style="fill:#D4D4D0;" d="M272.987,445.464h-0.775c-1.222,0-2.263-0.913-2.421-2.124
									c-0.012-0.086,0.021-0.17,0.085-0.227l1.671-1.469c0.652-0.574,1.548-0.706,2.339-0.35c0.791,0.359,1.283,1.12,1.283,1.988
									C275.169,444.486,274.19,445.464,272.987,445.464z M270.322,443.405c0.181,0.89,0.971,1.547,1.89,1.547h0.775
									c0.92,0,1.667-0.749,1.667-1.668c0-0.663-0.376-1.246-0.98-1.519c-0.604-0.272-1.291-0.174-1.788,0.267L270.322,443.405z"/>
							</g>
						</g>
						<g>
							<g>
								<path style="fill:#D4D4D0;" d="M264.649,443.283c0-0.868,0.492-1.629,1.283-1.988c0.791-0.356,1.687-0.224,2.339,0.35
									l1.671,1.469c0.064,0.057,0.096,0.141,0.085,0.227c-0.159,1.211-1.199,2.124-2.421,2.124h-0.775
									C265.628,445.464,264.649,444.486,264.649,443.283z M267.932,442.03c-0.497-0.44-1.184-0.539-1.788-0.267
									c-0.605,0.273-0.98,0.856-0.98,1.519c0,0.92,0.748,1.668,1.668,1.668h0.775c0.92,0,1.71-0.657,1.89-1.547L267.932,442.03z"
									/>
							</g>
						</g>
					</g>
				</g>
				<path style="fill:#BA6C56;" d="M333.529,274.357c1.788-2.598-6.411,1.105-8.925,2.743c0,0,6.575-4.313,8.12-7.205
					c1.545-2.892-7.104,1.986-10.135,4.524c0,0,5.764-5.563,6.327-7.828c0.563-2.265-6.283,3.282-8.75,5.901
					c-2.467,2.619-3.993,2.309-3.912,1.575c0.081-0.734,0.939-3.467,1.285-4.907c0.289-1.205,0.079-3.398-1.064-2.604
					c-0.685,0.476-1.728,2.728-2.311,4.094c-1.492,3.495-4.621,9.028-6.904,11.126c-0.756,0.542-1.387,1.28-1.797,2.189
					l-13.137,29.101c-0.267-0.386-0.522-0.78-0.792-1.163c-1.125-1.643-2.286-3.259-3.455-4.868
					c-2.306-3.243-4.734-6.395-7.211-9.509c-2.521-3.081-5.084-6.13-7.918-8.974c-3.119-3.128-8.057-3.949-12.1-1.684
					c-4.87,2.728-6.606,8.887-3.878,13.757c1.962,3.503,4.195,6.802,6.471,10.068c2.319,3.234,4.688,6.43,7.178,9.534
					c1.229,1.564,2.466,3.122,3.74,4.653c1.253,1.547,2.536,3.069,3.833,4.582c2.598,3.023,5.24,6.013,8.058,8.869l1.431,1.452
					c1.061,1.067,2.406,1.88,3.962,2.305c4.739,1.294,9.631-1.498,10.925-6.238l13.117-48.023c4.09-1.982,9.121-4.375,10.986-5.072
					c3.345-1.249,5.827-2.727,6.387-3.475c0.56-0.748-2.276-1.516-7.108,0.456C325.951,279.735,331.742,276.954,333.529,274.357z"/>
				<path style="fill:#BA6C56;" d="M241.153,288.381c-3.982-3.912-10.382-3.855-14.294,0.127c-2.806,2.856-5.34,5.915-7.831,9.005
					c-2.448,3.123-4.845,6.283-7.12,9.534c-1.153,1.614-2.299,3.233-3.408,4.88c-0.32,0.461-0.623,0.935-0.938,1.4l-13.157-27.357
					c-0.469-0.979-1.188-1.781-2.051-2.354c-2.226-2.365-5.042-7.399-6.434-10.66c-0.583-1.366-1.625-3.618-2.311-4.094
					c-1.142-0.794-1.353,1.399-1.064,2.604c0.346,1.44,1.204,4.173,1.285,4.907c0.081,0.734-1.445,1.043-3.912-1.575
					c-2.467-2.619-9.313-8.166-8.75-5.901c0.563,2.265,6.327,7.828,6.327,7.828c-3.031-2.537-11.68-7.416-10.135-4.524
					c1.545,2.892,8.12,7.205,8.12,7.205c-2.514-1.638-10.713-5.34-8.925-2.743c1.788,2.598,7.578,5.378,7.578,5.378
					c-4.831-1.971-7.668-1.204-7.108-0.456c0.56,0.748,3.043,2.226,6.387,3.475c1.699,0.635,6.027,2.678,9.876,4.535
					c0.043,0.229,0.095,0.459,0.166,0.687l14.293,45.827c0.429,1.358,1.201,2.672,2.293,3.734c3.528,3.433,9.172,3.356,12.605-0.172
					l1.363-1.4c2.79-2.868,5.403-5.868,7.972-8.901c1.282-1.518,2.551-3.046,3.789-4.597c1.259-1.536,2.481-3.098,3.695-4.667
					c2.46-3.113,4.799-6.318,7.086-9.559c2.245-3.274,4.446-6.58,6.376-10.088C245.052,296.593,244.457,291.627,241.153,288.381z"/>
				<path style="fill:#0C1633;" d="M250.869,239.852l-0.285,10.194c-0.05,0.349,0.104,0.568,0.054,0.917
					c-2.668-0.081-5.91,0.366-8.673,1.21c-1.229,0.376-2.154,1.379-2.451,2.629c-0.479,2.018-0.801,4.075-0.964,6.142
					c-0.09,1.137-0.88,2.127-2.004,2.325l-0.08,0.014c-0.038-2.699-0.24-5.396-0.607-8.071c-0.324-2.361,0.793-4.67,1.744-6.855
					c1.23-2.828,3.21-5.356,5.777-7.067c1.033-0.689,2.155-1.244,3.329-1.647c0.569-0.195,1.159-0.357,1.761-0.364
					C248.865,239.275,250.627,239.541,250.869,239.852z"/>
				<path style="fill:#0C1633;" d="M249.799,239.852l-0.19,10.224c0.328,0.342,0.513,0.535,0.841,0.877
					c2.537,0.011,5.572,0.451,8.139,1.22c1.239,0.371,2.174,1.377,2.473,2.635c0.478,2.016,0.799,4.071,0.962,6.136
					c0.09,1.137,0.88,2.127,2.004,2.325l0.08,0.014c0.038-2.699,0.24-5.396,0.607-8.071c0.323-2.361-0.793-4.67-1.744-6.855
					c-1.23-2.828-3.21-5.356-5.777-7.067c-1.033-0.689-2.155-1.244-3.329-1.647c-0.569-0.195-1.159-0.357-1.761-0.364
					C251.71,239.275,250.041,239.541,249.799,239.852z"/>
				<polygon style="fill:#4A3EA1;" points="223.31,430.715 241.532,428.531 241.862,431.746 224.02,433.97 				"/>
				<polygon style="fill:#4A3EA1;" points="280.568,430.372 262.296,428.647 262.048,431.87 279.94,433.644 				"/>
				<path style="fill:#F4C35C;" d="M274.198,326.146c-7.528-12.359-12.587-27.582-8.884-41.473c-1.353-0.464-2.766-0.818-4.17-1.103
					c-0.467,1.967-0.949,3.941-1.738,5.802c-0.789,1.861-1.905,3.62-3.463,4.908c-2.633,2.177-6.479,2.777-9.65,1.504
					c-0.85-0.341-1.648-0.804-2.391-1.339c-3.457-2.489-5.659-6.637-5.783-10.895c-1.327,0.115-2.649,0.466-3.897,0.999
					c4.193,14.47,1.373,30.934-9.042,42.337c-0.021,1.556-0.043,3.112-0.064,4.668c-0.113,8.234,0.303,21.438-1.11,29.551
					c14.13,3.796,29.144,3.933,43.355,0.451c2.871-0.703,5.742-1.741,8.633-2.359C274.821,349.873,274.158,335.553,274.198,326.146z
					"/>
				<g>
					<rect x="233.277" y="255.78" style="fill:#1D89E4;" width="2.41" height="11.162"/>
					<path style="fill:#1D89E4;" d="M238.004,261.361c0,3.082-1.037,5.581-2.317,5.581c-1.28,0-2.317-2.499-2.317-5.581
						s1.037-5.581,2.317-5.581C236.967,255.78,238.004,258.278,238.004,261.361z"/>
					<path style="fill:#42A5F6;" d="M235.687,261.361c0,3.082-1.037,5.581-2.317,5.581c-1.28,0-2.317-2.499-2.317-5.581
						s1.037-5.581,2.317-5.581C234.65,255.78,235.687,258.278,235.687,261.361z"/>
				</g>
				<g>
					
						<rect x="264.884" y="255.78" transform="matrix(-1 -1.224647e-16 1.224647e-16 -1 532.178 522.7213)" style="fill:#1D89E4;" width="2.41" height="11.162"/>
					<path style="fill:#1D89E4;" d="M262.567,261.361c0,3.082,1.037,5.581,2.317,5.581s2.317-2.499,2.317-5.581
						s-1.037-5.581-2.317-5.581S262.567,258.278,262.567,261.361z"/>
					<path style="fill:#42A5F6;" d="M264.884,261.361c0,3.082,1.037,5.581,2.317,5.581s2.317-2.499,2.317-5.581
						s-1.037-5.581-2.317-5.581S264.884,258.278,264.884,261.361z"/>
				</g>
				<g>
					<path style="fill:#42A5F6;" d="M267.051,262.361c-0.553,0-1-0.448-1-1v-10.082c0-3.54-1.612-6.81-4.424-8.97
						c-0.438-0.336-0.521-0.964-0.184-1.402c0.337-0.437,0.965-0.521,1.402-0.184c3.308,2.541,5.205,6.389,5.205,10.556v10.082
						C268.051,261.913,267.603,262.361,267.051,262.361z"/>
				</g>
				<g>
					<path style="fill:#BA6047;" d="M260.841,267.807c0,1.376-1.116,2.492-2.492,2.492s-2.492-1.116-2.492-2.492
						s1.116-2.492,2.492-2.492S260.841,266.431,260.841,267.807z"/>
					<path style="fill:#BA6047;" d="M243.974,267.807c0,1.376-1.116,2.492-2.492,2.492c-1.376,0-2.492-1.116-2.492-2.492
						s1.116-2.492,2.492-2.492C242.858,265.315,243.974,266.431,243.974,267.807z"/>
					<path style="fill:#0C1633;" d="M245.88,261.232c0,0.746-0.605,1.351-1.351,1.351c-0.746,0-1.351-0.605-1.351-1.351
						s0.605-1.351,1.351-1.351C245.275,259.881,245.88,260.486,245.88,261.232z"/>
					<path style="fill:#0C1633;" d="M257.393,261.232c0,0.746-0.605,1.351-1.351,1.351c-0.746,0-1.351-0.605-1.351-1.351
						s0.605-1.351,1.351-1.351C256.788,259.881,257.393,260.486,257.393,261.232z"/>
					<path style="fill:none;stroke:#0C1633;stroke-linecap:round;stroke-linejoin:round;stroke-miterlimit:10;" d="M250.737,260.959
						c0.051,1.165-0.141,2.341-0.557,3.43c-0.214,0.56-0.488,1.099-0.661,1.673c-0.173,0.574-0.241,1.204-0.039,1.769
						c0.202,0.565,0.723,1.042,1.323,1.057"/>
					<path style="fill:none;stroke:#0C1633;stroke-linecap:round;stroke-linejoin:round;stroke-miterlimit:10;" d="M246.76,271.426
						c1.84,1.327,4.321,1.717,6.479,1.019"/>
				</g>
				<g>
					<g>
						<path style="fill:#004370;" d="M255.674,341.035h-2.031c-0.268,0-0.484-0.216-0.484-0.484s0.217-0.484,0.484-0.484h1.822
							l9.136-9.712c0.184-0.195,0.49-0.203,0.685-0.021c0.195,0.183,0.204,0.49,0.021,0.685l-9.279,9.864
							C255.935,340.98,255.808,341.035,255.674,341.035z"/>
					</g>
					<g>
						<path style="fill:#004370;" d="M276.397,341.035h-2.031c-0.133,0-0.261-0.055-0.353-0.152l-9.279-9.864
							c-0.183-0.195-0.174-0.501,0.021-0.685c0.194-0.182,0.5-0.174,0.685,0.021l9.136,9.712h1.822c0.268,0,0.484,0.217,0.484,0.484
							S276.665,341.035,276.397,341.035z"/>
					</g>
					<g>
						<path style="fill:#00548A;" d="M265.616,327.542h-0.865c-0.268,0-0.484-0.216-0.484-0.484s0.216-0.484,0.484-0.484h0.865
							c1.069,0,1.939-1.005,1.939-2.24v-6.857c0-0.268,0.216-0.484,0.484-0.484c0.268,0,0.484,0.216,0.484,0.484v6.857
							C268.523,326.103,267.219,327.542,265.616,327.542z"/>
					</g>
					<g>
						<path style="fill:#00548A;" d="M264.458,307.328l-8.272,8.272l-6.219-6.22c-2.284-2.284-2.284-5.988,0-8.272h0
							c2.284-2.284,5.988-2.284,8.272,0L264.458,307.328z"/>
					</g>
					<g>
						<path style="fill:#004370;" d="M258.471,317.885l8.272-8.272l4.612,4.612c1.257,1.257,1.257,3.295,0,4.552l-3.72,3.72
							c-1.257,1.257-3.295,1.257-4.552,0L258.471,317.885z"/>
					</g>
					<g>
						<path style="fill:#002C47;" d="M267.382,310.151l-8.373,8.373c-0.313,0.313-0.821,0.313-1.134,0l-2.328-2.328
							c-0.313-0.313-0.313-0.821,0-1.134l8.373-8.373c0.313-0.313,0.821-0.313,1.134,0l2.328,2.328
							C267.695,309.33,267.695,309.838,267.382,310.151z"/>
					</g>
					<g>
						<path style="fill:#004370;" d="M262.988,312.607c0,0.842-0.682,1.524-1.524,1.524c-0.842,0-1.524-0.682-1.524-1.524
							c0-0.842,0.682-1.524,1.524-1.524C262.306,311.083,262.988,311.765,262.988,312.607z"/>
					</g>
					<g>
						<path style="fill:#00548A;" d="M264.751,327.542h-0.865c-1.602,0-2.906-1.439-2.906-3.208v-11.727
							c0-0.268,0.217-0.484,0.484-0.484c0.268,0,0.484,0.216,0.484,0.484v11.727c0,1.235,0.87,2.24,1.938,2.24h0.865
							c0.268,0,0.484,0.217,0.484,0.484S265.019,327.542,264.751,327.542z"/>
					</g>
					<g>
						<path style="fill:#002C47;" d="M264.954,334.408L264.954,334.408c-0.675,0-1.223-0.547-1.223-1.223v-6.839
							c0-0.675,0.547-1.223,1.222-1.223h0c0.675,0,1.222,0.547,1.222,1.223v6.839C266.176,333.86,265.629,334.408,264.954,334.408z"
							/>
					</g>
					<g>
						<path style="fill:#002C47;" d="M266.855,332.662h-3.803c-0.353,0-0.64-0.286-0.64-0.64v-2.671c0-0.353,0.286-0.64,0.64-0.64
							h3.803c0.353,0,0.64,0.286,0.64,0.64v2.671C267.495,332.376,267.209,332.662,266.855,332.662z"/>
					</g>
					<path style="fill:#004370;" d="M266.237,340.066h-0.799v-9.38c0-0.268-0.217-0.484-0.484-0.484s-0.484,0.217-0.484,0.484v9.38
						h-0.798c-0.268,0-0.484,0.217-0.484,0.484s0.217,0.484,0.484,0.484h2.566c0.268,0,0.484-0.216,0.484-0.484
						S266.504,340.066,266.237,340.066z"/>
				</g>
			</g>
			<g>
				<g>
					<path style="fill:#1D89E4;" d="M114.154,262.051c0,3.082-2.363,5.581-5.279,5.581s-5.279-2.499-5.279-5.581
						c0-3.082,2.363-5.581,5.279-5.581S114.154,258.968,114.154,262.051z"/>
					<path style="fill:#42A5F6;" d="M112.684,262.051c0,3.082-2.363,5.581-5.279,5.581c-2.915,0-5.279-2.499-5.279-5.581
						c0-3.082,2.363-5.581,5.279-5.581C110.321,256.47,112.684,258.968,112.684,262.051z"/>
				</g>
				<g>
					<path style="fill:#42A5F6;" d="M109.63,260.117c-0.552,0-1-0.448-1-1v-8.271c0-7.393-6.015-13.409-13.409-13.409h-0.236
						c-2.864,0-5.596,0.89-7.9,2.573c-0.445,0.325-1.071,0.229-1.397-0.218c-0.326-0.446-0.228-1.072,0.218-1.398
						c2.649-1.935,5.789-2.958,9.08-2.958h0.236c8.497,0,15.409,6.912,15.409,15.409v8.271
						C110.63,259.669,110.182,260.117,109.63,260.117z"/>
				</g>
				<g>
					<path style="fill:#BA6C56;" d="M178.48,440.179l-5.614-20.646l-14.811,4.15l7.787,20.593c1.204,3.154,4.638,4.97,7.965,4.065
						C177.352,447.378,179.443,443.723,178.48,440.179z"/>
				</g>
				<path style="fill:#1D89E4;" d="M159.171,369.163c-0.758-2.709-2.83-5.055-5.707-5.986l-3.142-1.017
					c-3.525-1.141-7.082-1.875-10.648-2.518c-3.567-0.616-7.147-1.081-10.738-1.415c-3.59-0.337-7.192-0.533-10.806-0.578
					c-3.616-0.022-7.24,0.056-10.898,0.546c-4.075,0.552-7.67,3.405-8.949,7.596c-1.751,5.738,1.48,11.809,7.219,13.561
					c3.53,1.077,7.093,1.744,10.665,2.31c3.573,0.543,7.159,0.935,10.757,1.186c3.597,0.254,7.205,0.378,10.825,0.349
					c1.643-0.025,3.288-0.075,4.936-0.167l16.834,47.672l16.411-5.188L159.171,369.163z"/>
				<g>
					<path style="fill:#0C1633;" d="M164.073,444.901c0.031,0.104,0.065,0.216,0.108,0.326c0.212,0.672,0.474,1.386,0.73,2.111
						c0.191,0.509,0.382,1.017,0.575,1.534c0.285,0.726,0.572,1.46,0.863,2.174c0.62,1.559,1.238,3.014,1.744,4.192
						c0.706,1.655,1.197,2.753,1.197,2.753l37.474-11.317c0,0,0.696-1.54-0.844-2.831c-2.262-1.932-6.121-4.346-11.375-4.499
						c-5.771-0.177-9.635-1.541-12.459-3.21c-0.084-0.059-0.171-0.099-0.247-0.161c-0.86-0.505-1.604-1.064-2.288-1.613
						c-0.081-0.051-0.159-0.122-0.226-0.187c-0.354-0.299-0.677-0.589-1.006-0.867c-1.178-1.06-2.226-0.122-3.08,1.428
						c-1.817,3.302-5.498,5.176-9.241,4.746c-1.205-0.147-2.223-0.113-2.711,0.241c-0.336,0.262-0.281,1.198,0.032,2.519
						C163.494,443.009,163.759,443.919,164.073,444.901z"/>
					<path style="fill:#D4D4D0;" d="M168.091,455.233c0.4,1.743,0.762,2.895,0.762,2.895l37.919-11.457c0,0,0.694-1.538-0.855-2.832
						L168.091,455.233z"/>
					<path style="fill:#D4D4D0;" d="M177.41,437.903l1.572,1.113c0.263,0.189,0.633,0.118,0.812-0.142l2.041-2.902
						c-0.853-0.505-1.598-1.064-2.287-1.608c-0.079-0.059-0.152-0.129-0.222-0.191l-2.057,2.917
						C177.08,437.353,177.141,437.726,177.41,437.903z"/>
					<path style="fill:#D4D4D0;" d="M164.073,444.901c0.031,0.104,0.065,0.216,0.108,0.326l0.879-0.152
						c0.325-0.051,0.542-0.362,0.477-0.672l-0.327-1.902c-0.051-0.324-0.359-0.534-0.672-0.477l-1.218,0.216
						C163.494,443.009,163.759,443.919,164.073,444.901z"/>
					<path style="fill:#D4D4D0;" d="M176.803,445.38c0.473,1.57-0.417,3.227-1.987,3.7s-3.227-0.417-3.7-1.987
						c-0.473-1.571,0.417-3.227,1.987-3.701C174.673,442.919,176.33,443.809,176.803,445.38z"/>
				</g>
				<polygon style="fill:#1870BA;" points="158.056,429.349 176.512,423.32 177.757,427.216 159.13,432.56 				"/>
				
					<line style="fill:none;stroke:#FFFFFF;stroke-width:0.5;stroke-linecap:round;stroke-linejoin:round;stroke-miterlimit:10;stroke-dasharray:2;" x1="160.883" y1="426.644" x2="144.546" y2="382.022"/>
				<g>
					<path style="fill:#BA6C56;" d="M148.531,425.026l-15.469,0.488l3.783,23.546c0.548,3.342,3.563,5.811,7.011,5.58
						c3.664-0.246,6.435-3.416,6.189-7.081L148.531,425.026z"/>
				</g>
				<path style="fill:#0C1633;" d="M106.906,254.548c1.032,0.327,2.086,0.658,3.168,0.638c1.082-0.019,2.216-0.451,2.807-1.358
					c0.707-1.084,0.472-2.53-0.009-3.732c-0.455-1.136-1.103-2.189-1.912-3.106c0.881-0.38,1.757-0.894,2.25-1.718
					c0.263-0.44,0.401-0.944,0.505-1.447c0.131-0.633,0.207-1.318-0.067-1.904c-0.416-0.888-1.485-1.249-2.457-1.377
					c-1.777-0.234-3.563-0.31-5.215,0.384c0.639-1.009,0.968-2.212,0.932-3.406c-0.023-0.741-0.207-1.52-0.731-2.044
					c-0.529-0.529-1.311-0.709-2.056-0.78c-3.2-0.304-6.326,0.736-8.336,3.244c0.206-0.594,0.413-1.201,0.425-1.829
					c0.012-0.629-0.205-1.295-0.707-1.673c-0.649-0.489-1.565-0.376-2.341-0.136c-2.816,0.872-5.303,3.641-6.184,6.455
					c-0.38-1.158-1.413-2.267-2.623-2.118c-0.705,0.087-1.291,0.579-1.768,1.106c-2.018,2.233-2.505,5.531-1.682,8.426
					c-0.389-0.96-0.99-1.834-1.748-2.54c-0.447-0.417-0.998-0.792-1.609-0.773c-0.473,0.015-0.908,0.267-1.265,0.577
					c-0.901,0.784-1.407,1.955-1.553,3.14c-0.146,1.185,0.041,2.39,0.347,3.544c0.924,3.485,2.963,6.666,5.746,8.959
					c4.932-2.797,10.746-3.28,16.309-4.377C100.486,256.041,103.654,255.604,106.906,254.548z"/>
				<rect x="88.497" y="272.707" style="fill:#BA6C56;" width="14.148" height="19.076"/>
				<path style="fill:#AA563C;" d="M102.645,272.707v5.9c-3.222,0.134-10.613-0.205-13.622-5.874l2.071-0.027H102.645z"/>
				<g>
					<path style="fill:#BA6C56;" d="M153.798,323.471l-4.427-50.199c-0.206-2.36-2.079-4.305-4.52-4.52
						c-2.738-0.241-5.153,1.782-5.395,4.52l-2.707,30.693c-1.493-1.265-3.011-2.497-4.536-3.72
						c-1.031-0.844-2.086-1.658-3.136-2.478c-1.079,3.741-2.619,7.338-4.4,10.939c-1.604,3.243-3.07,6.527-4.511,9.82
						c1.165,0.856,2.327,1.716,3.513,2.545c1.614,1.161,3.253,2.29,4.901,3.407c3.3,2.229,6.633,4.415,10.102,6.424l1.799,1.043
						c1.531,0.889,3.343,1.331,5.241,1.164C150.614,332.678,154.229,328.363,153.798,323.471z"/>
				</g>
				<path style="fill:#BA6C56;" d="M114.937,348.237H76.205l-1.543-52.566c-0.139-4.731,2.442-8.94,6.335-10.261l13.936-4.728
					l15.074,4.815c3.961,1.265,6.608,5.512,6.468,10.302L114.937,348.237z"/>
				<path style="fill:#42A5F6;" d="M144.906,371.096c-0.27-3.959-3.078-7.461-7.143-8.412l-2.596-0.607
					c-4.306-1.007-8.628-1.606-12.952-2.114c-1.933-0.215-3.867-0.395-5.802-0.551l-1.579-14.843H76.309l-2.496,23.466
					c-0.491,4.617,1.184,8.84,3.848,10.586c1.308,1.12,2.901,1.944,4.701,2.338c4.309,0.943,8.633,1.475,12.96,1.905
					c4.328,0.408,8.662,0.664,13.001,0.778c4.339,0.118,8.682,0.105,13.032-0.061c1.64-0.072,3.282-0.168,4.923-0.283l6.55,47.404
					l17.062-1.792L144.906,371.096z"/>
				<path style="fill:#BA6C56;" d="M109.78,259.193c0,0.81-0.06,1.61-0.15,2.4v5.94c0,0.86-0.13,1.71-0.39,2.53
					c-0.36,1.21-0.99,2.33-1.86,3.26c-0.85,0.9-1.93,1.62-3.1,2.02c-1.32,0.45-2.79,0.52-4.18,0.57c-1.19,0.05-2.39,0.07-3.58,0.05
					c-1.09-0.01-2.24,0.03-3.31-0.19c-1.61-0.34-3.17-1.08-4.51-2.04c-2.14-1.54-3.82-3.68-4.96-6.05
					c-1.27-2.64-1.88-5.57-1.88-8.49c0-9.35,6.25-16.93,13.96-16.93S109.78,249.843,109.78,259.193z"/>
				<g>
					<path style="fill:#BA6C56;" d="M84.964,259.072c-0.501-0.892-1.711-1.404-2.854-1.32c-1.143,0.084-2.183,0.705-2.81,1.535
						s-0.869,1.847-0.831,2.837c0.039,1.022,0.376,2.055,1.099,2.865s1.857,1.371,3.041,1.368c1.184-0.004,2.372-0.632,2.785-1.591
						L84.964,259.072z"/>
					<g>
						
							<path style="fill:none;stroke:#AA563C;stroke-width:0.6854;stroke-linecap:round;stroke-linejoin:round;stroke-miterlimit:10;" d="
							M82.259,264.572c0.905-1.683,0.774-3.703-0.344-5.301"/>
						
							<path style="fill:none;stroke:#AA563C;stroke-width:0.6854;stroke-linecap:round;stroke-linejoin:round;stroke-miterlimit:10;" d="
							M82.593,261.579c-0.952,0.419-1.69,1.141-2.017,1.972"/>
					</g>
				</g>
				<g>
					<path style="fill:#0C1633;" d="M134.579,444.33c0,0.108,0,0.226,0.009,0.343c0.009,0.705,0.054,1.464,0.09,2.231
						c0.036,0.542,0.072,1.084,0.108,1.635c0.063,0.777,0.126,1.563,0.199,2.331c0.145,1.671,0.316,3.243,0.461,4.517
						c0.199,1.789,0.352,2.981,0.352,2.981l39.145-0.027c0,0,1.111-1.274,0.009-2.954c-1.608-2.503-4.607-5.927-9.594-7.589
						c-5.475-1.834-8.781-4.255-11.004-6.667c-0.063-0.081-0.135-0.145-0.19-0.226c-0.678-0.732-1.229-1.482-1.726-2.204
						c-0.063-0.072-0.117-0.163-0.163-0.244c-0.253-0.388-0.479-0.759-0.714-1.12c-0.822-1.355-2.096-0.759-3.361,0.479
						c-2.692,2.638-6.758,3.37-10.218,1.879c-1.111-0.488-2.096-0.75-2.665-0.551c-0.397,0.154-0.614,1.066-0.696,2.421
						C134.57,442.352,134.561,443.3,134.579,444.33z"/>
					<path style="fill:#D4D4D0;" d="M135.446,455.383c-0.12,1.784-0.105,2.991-0.105,2.991l39.611-0.033
						c0,0,1.108-1.273-0.001-2.958H135.446z"/>
					<path style="fill:#D4D4D0;" d="M149.367,441.477l1.184,1.519c0.197,0.257,0.572,0.296,0.819,0.099l2.791-2.19
						c-0.671-0.73-1.223-1.48-1.726-2.2c-0.059-0.079-0.109-0.168-0.158-0.247l-2.811,2.2
						C149.21,440.855,149.16,441.23,149.367,441.477z"/>
					<path style="fill:#D4D4D0;" d="M134.579,444.33c0,0.108,0,0.226,0.009,0.343l0.885,0.108c0.325,0.045,0.623-0.19,0.65-0.506
						l0.235-1.915c0.045-0.325-0.19-0.614-0.506-0.651l-1.229-0.144C134.57,442.352,134.561,443.3,134.579,444.33z"/>
					<path style="fill:#D4D4D0;" d="M146.629,448.461c0,1.64-1.33,2.97-2.97,2.97c-1.64,0-2.97-1.33-2.97-2.97
						c0-1.64,1.33-2.97,2.97-2.97C145.3,445.491,146.629,446.82,146.629,448.461z"/>
				</g>
				<path style="fill:#BA6C56;" d="M149.479,279.226c0,0,0.742-15.095,1.282-18.625c0.54-3.529,0.46-6.417,0.079-7.271
					c-0.38-0.854-2.433,1.249-3.067,6.428c0,0,0.395-6.411-1.001-9.238c-1.396-2.827-2.16,6.136-1.956,9.13
					c0,0-0.56-7.843-2.332-10.602c-1.772-2.759-1.729,7.171-0.991,11.055c0,0-2.047-7.744-3.751-9.34
					c-1.704-1.596-0.197,7.086,0.886,10.517c1.084,3.431,0.07,4.612-0.532,4.184c-0.602-0.428-2.708-2.379-3.658-3.514
					c-0.594-0.71-2.929-1.725-2.792-0.341c0.082,0.831,1.54,2.839,2.448,4.013c2.423,3.133,5.918,8.905,6.433,11.826
					c0.005,0.029,0.01,0.058,0.015,0.087c0.375,2.139,2.506,3.487,4.597,2.903L149.479,279.226z"/>
				<path style="fill:#0C1633;" d="M79.207,258.961c2,1.227,4.325,2.264,6.628,1.817c1.194-0.232,2.416-1.025,2.591-2.228
					c0.148-1.016-0.497-1.991-1.279-2.658c0.199,0.162,0.257,0.138,0.505,0.201c1.027,0.262,2.095,0.361,3.152,0.291
					c0.558-0.037,1.179-0.159,1.496-0.62c0.287-0.418,0.227-0.983,0.073-1.465c-0.131-0.411-0.322-0.803-0.565-1.16
					c0.806,0.589,1.789,0.93,2.786,0.886c0.324-0.014,0.653-0.066,0.936-0.225c0.283-0.158,0.512-0.438,0.543-0.76
					c0.02-0.206-0.04-0.41-0.112-0.604c-0.214-0.572-0.544-1.099-0.965-1.541c1.224,1.005,2.785,1.848,4.36,1.684
					c0.309-0.032,0.625-0.101,0.879-0.28c0.45-0.318,0.613-0.929,0.543-1.475c-0.07-0.546-0.332-1.046-0.59-1.533
					c0.674,1.402,1.863,2.594,3.295,3.2c0.454,0.192,0.943,0.333,1.435,0.299c0.492-0.034,0.989-0.268,1.247-0.688
					c0.207-0.337,0.241-0.749,0.269-1.143c0.236,0.817,0.367,1.586,0.937,2.217c0.57,0.631,1.482,1.021,2.289,0.754
					c0.123-0.041,0.243-0.096,0.345-0.176c0.126-0.098,0.222-0.229,0.309-0.362c0.169-0.259,0.312-0.536,0.425-0.824
					c-1.715-3.145-3.766-6.099-6.485-8.431c-2.719-2.332-6.244-3.893-9.819-3.667c-1.665,0.105-3.281,0.586-4.867,1.103
					c-1.48,0.482-2.991,1.023-4.15,2.062c-0.969,0.869-1.623,2.029-2.208,3.192C81.29,250.651,79.934,254.745,79.207,258.961z"/>
				<path style="fill:#5E4ECB;" d="M116.487,345.091c0-13.65,0.574-29.937,0.842-42.616c0.065-3.091,0.113-6.218-0.563-9.235
					s-1.455-5.135-3.931-6.988c-1.681-1.257-4.605-2.194-6.796-2.632c-0.02,3.296-1.63,5.637-4.562,7.142
					c-2.932,1.505-6.565,1.427-9.548,0.025c-2.984-1.401-5.31-4.04-6.58-7.081c-2.857,0.573-6.534,2.192-7.779,4.57
					c-1.245,2.378-0.38,5.074-0.692,7.74c-2.187,18.676-2.065,38.933-3.385,57.691c15.102,3.097,28.887,3.048,44.023,0.125
					L116.487,345.091z"/>
				<path style="fill:#4A3EA1;" d="M117.512,353.829c-15.135,2.924-28.914,2.973-44.02-0.126c0.058-0.784,0.107-1.569,0.155-2.363
					c14.912,2.895,28.653,2.866,43.585,0.126L117.512,353.829z"/>
				<g>
					<g>
						<path style="fill:#BA6C56;" d="M113.893,332.338l-37.008-6.867c1.306-2.49,2.608-4.981,3.921-7.468
							c0.556-1.049,1.097-2.105,1.64-3.161c-6.159-0.998-12.292-1.978-18.139-4.499c-3.097,5.836-6.237,11.65-9.268,17.522
							l-0.426,0.822c-0.594,1.162-0.931,2.478-0.935,3.873c-0.014,4.736,3.813,8.587,8.549,8.601l50.827,0.154
							c2.146,0.008,4.059-1.516,4.464-3.7C117.974,335.156,116.351,332.794,113.893,332.338z"/>
					</g>
					<path style="fill:#BA6C56;" d="M112.551,332.174c2.754,0.194,5.046,0.929,7.071,2.163c0.89,0.542,2.182,1.471,3.019,2.124
						c3.498,2.73,6.578,2.287,10.188,3.167c0.339,0.083,0.687,0.175,0.976,0.403c0.289,0.228,0.511,0.624,0.474,1.036h-23.764
						L112.551,332.174z"/>
				</g>
				<path style="fill:#5E4ECB;" d="M85.348,283.706l-4.331,1.46c-3.217,1.084-5.912,3.331-7.556,6.301l-13.945,24.749l19.777,7.578
					l13.518-28.39l-7.615-8.762L85.348,283.706z"/>
				<path style="fill:#5E4ECB;" d="M108.761,284.33l2.851,1.125c2.353,0.929,4.571,2.171,6.593,3.691l17.378,13.267l-8.997,21.056
					l-15.426-9.34l-4.075-27.274L108.761,284.33z"/>
				<polygon style="fill:#1D89E4;" points="131.71,429.207 150.956,426.644 151.47,430.702 132.181,432.56 				"/>
				<path style="fill:#4A3EA1;" d="M108.71,284.313c-0.116,3.99-2.13,6.827-5.713,8.676c-3.68,1.888-8.241,1.791-11.978,0.039
					c-3.651-1.724-6.536-4.929-8.134-8.628c0.833-0.31,1.675-0.542,2.46-0.697c1.278,3.041,3.602,5.684,6.585,7.088
					c2.982,1.394,6.614,1.472,9.548-0.029c2.934-1.511,4.542-3.844,4.561-7.146C106.861,283.78,107.781,284.013,108.71,284.313z"/>
				<polygon style="fill:#4A3EA1;" points="59.935,313.635 80.794,322.21 79.12,324.856 58.818,316.919 				"/>
				<polygon style="fill:#4A3EA1;" points="123.817,322.963 134.285,300.813 136.865,302.396 127.369,324.976 				"/>
				<g>
					<g>
						<path style="fill:#004370;" d="M144.362,341.035h-2.031c-0.268,0-0.484-0.216-0.484-0.484s0.217-0.484,0.484-0.484h1.822
							l9.136-9.712c0.184-0.195,0.49-0.203,0.685-0.021c0.195,0.183,0.204,0.49,0.021,0.685l-9.279,9.864
							C144.623,340.98,144.496,341.035,144.362,341.035z"/>
					</g>
					<g>
						<path style="fill:#004370;" d="M165.085,341.035h-2.031c-0.133,0-0.261-0.055-0.353-0.152l-9.279-9.864
							c-0.183-0.195-0.174-0.501,0.021-0.685c0.194-0.182,0.5-0.174,0.685,0.021l9.136,9.712h1.822c0.268,0,0.484,0.217,0.484,0.484
							S165.353,341.035,165.085,341.035z"/>
					</g>
					<g>
						<path style="fill:#00548A;" d="M154.304,327.542h-0.865c-0.268,0-0.484-0.216-0.484-0.484s0.217-0.484,0.484-0.484h0.865
							c1.069,0,1.939-1.005,1.939-2.24v-6.857c0-0.268,0.216-0.484,0.484-0.484c0.268,0,0.484,0.216,0.484,0.484v6.857
							C157.211,326.103,155.907,327.542,154.304,327.542z"/>
					</g>
					<g>
						<path style="fill:#00548A;" d="M153.145,307.328l-8.272,8.272l-6.219-6.22c-2.284-2.284-2.284-5.988,0-8.272h0
							c2.284-2.284,5.988-2.284,8.272,0L153.145,307.328z"/>
					</g>
					<g>
						<path style="fill:#004370;" d="M147.159,317.885l8.272-8.272l4.612,4.612c1.257,1.257,1.257,3.295,0,4.552l-3.72,3.72
							c-1.257,1.257-3.295,1.257-4.552,0L147.159,317.885z"/>
					</g>
					<g>
						<path style="fill:#002C47;" d="M156.069,310.151l-8.373,8.373c-0.313,0.313-0.821,0.313-1.134,0l-2.328-2.328
							c-0.313-0.313-0.313-0.821,0-1.134l8.373-8.373c0.313-0.313,0.821-0.313,1.134,0l2.328,2.328
							C156.383,309.33,156.383,309.838,156.069,310.151z"/>
					</g>
					<g>
						<path style="fill:#004370;" d="M151.676,312.607c0,0.842-0.682,1.524-1.524,1.524c-0.842,0-1.524-0.682-1.524-1.524
							c0-0.842,0.682-1.524,1.524-1.524C150.994,311.083,151.676,311.765,151.676,312.607z"/>
					</g>
					<g>
						<path style="fill:#00548A;" d="M153.439,327.542h-0.865c-1.602,0-2.906-1.439-2.906-3.208v-11.727
							c0-0.268,0.217-0.484,0.484-0.484c0.268,0,0.484,0.216,0.484,0.484v11.727c0,1.235,0.87,2.24,1.938,2.24h0.865
							c0.268,0,0.484,0.217,0.484,0.484S153.707,327.542,153.439,327.542z"/>
					</g>
					<g>
						<path style="fill:#002C47;" d="M153.642,334.408L153.642,334.408c-0.675,0-1.222-0.547-1.222-1.223v-6.839
							c0-0.675,0.547-1.223,1.222-1.223h0c0.675,0,1.222,0.547,1.222,1.223v6.839C154.864,333.86,154.317,334.408,153.642,334.408z"
							/>
					</g>
					<g>
						<path style="fill:#002C47;" d="M155.543,332.662h-3.803c-0.353,0-0.64-0.286-0.64-0.64v-2.671c0-0.353,0.286-0.64,0.64-0.64
							h3.803c0.353,0,0.64,0.286,0.64,0.64v2.671C156.183,332.376,155.897,332.662,155.543,332.662z"/>
					</g>
					<path style="fill:#004370;" d="M154.925,340.066h-0.799v-9.38c0-0.268-0.217-0.484-0.484-0.484
						c-0.268,0-0.484,0.217-0.484,0.484v9.38h-0.798c-0.268,0-0.484,0.217-0.484,0.484s0.217,0.484,0.484,0.484h2.566
						c0.268,0,0.484-0.216,0.484-0.484S155.192,340.066,154.925,340.066z"/>
				</g>
				<path style="fill:none;stroke:#4A3EA1;stroke-miterlimit:10;" d="M80.776,320.635c1.995-4.557,4.129-9.054,6.396-13.483"/>
				<path style="fill:none;stroke:#4A3EA1;stroke-miterlimit:10;" d="M83.762,314.28c0.243,1.468,0.443,2.943,0.599,4.423"/>
				<path style="fill:none;stroke:#4A3EA1;stroke-miterlimit:10;" d="M116.749,317.148c-0.344-3.164-0.688-6.327-1.032-9.491"/>
				<g>
					<g>
						
							<line style="fill:none;stroke:#FFFFFF;stroke-width:0.5;stroke-linecap:round;stroke-linejoin:round;" x1="79.048" y1="356.026" x2="79.019" y2="357.026"/>
						
							<path style="fill:none;stroke:#FFFFFF;stroke-width:0.5;stroke-linecap:round;stroke-linejoin:round;stroke-dasharray:1.9943,1.9943;" d="
							M78.961,359.019l-0.315,10.779c-0.119,4.063,3.053,7.466,7.114,7.633l40.778,1.676c1.538,0.063,2.807,1.225,3.005,2.752
							l5.542,42.753"/>
						
							<line style="fill:none;stroke:#FFFFFF;stroke-width:0.5;stroke-linecap:round;stroke-linejoin:round;" x1="135.212" y1="425.601" x2="135.34" y2="426.593"/>
					</g>
				</g>
				<g>
					<path style="fill:#1D89E4;" d="M86.864,262.051c0,3.082-2.363,5.581-5.279,5.581c-2.915,0-5.279-2.499-5.279-5.581
						c0-3.082,2.363-5.581,5.279-5.581C84.5,256.47,86.864,258.968,86.864,262.051z"/>
					<path style="fill:#42A5F6;" d="M85.394,262.051c0,3.082-2.363,5.581-5.279,5.581s-5.279-2.499-5.279-5.581
						c0-3.082,2.363-5.581,5.279-5.581S85.394,258.968,85.394,262.051z"/>
				</g>
				<g>
					<path style="fill:#42A5F6;" d="M80.576,262.922c-0.552,0-1-0.448-1-1v-11.075c0-4.901,2.366-9.556,6.329-12.451
						c0.445-0.325,1.071-0.229,1.397,0.218c0.326,0.446,0.228,1.071-0.218,1.397c-3.449,2.52-5.508,6.57-5.508,10.835v11.075
						C81.576,262.474,81.128,262.922,80.576,262.922z"/>
				</g>
				<g>
					<path style="fill:#BA6047;" d="M109.63,265.123v2.41c0,0.86-0.13,1.71-0.39,2.53h-0.1c-1.38,0-2.49-1.12-2.49-2.5
						c0-1.37,1.11-2.49,2.49-2.49C109.31,265.073,109.47,265.093,109.63,265.123z"/>
					<path style="fill:#BA6047;" d="M95.834,267.567c0,1.376-1.116,2.492-2.492,2.492c-1.376,0-2.492-1.116-2.492-2.492
						c0-1.376,1.116-2.492,2.492-2.492C94.719,265.075,95.834,266.191,95.834,267.567z"/>
					<path style="fill:#0C1633;" d="M107.448,260.048c0,0.746-0.605,1.351-1.351,1.351c-0.746,0-1.351-0.605-1.351-1.351
						s0.605-1.351,1.351-1.351C106.843,258.697,107.448,259.302,107.448,260.048z"/>
					<path style="fill:#0C1633;" d="M101.997,270.691c0,1.125-0.605,2.037-1.351,2.037c-0.746,0-1.351-0.912-1.351-2.037
						s0.605-2.037,1.351-2.037C101.392,268.655,101.997,269.567,101.997,270.691z"/>
					<path style="fill:#0C1633;" d="M97.185,260.048c0,0.746-0.605,1.351-1.351,1.351s-1.351-0.605-1.351-1.351
						s0.605-1.351,1.351-1.351S97.185,259.302,97.185,260.048z"/>
					<path style="fill:none;stroke:#0C1633;stroke-linecap:round;stroke-linejoin:round;stroke-miterlimit:10;" d="M101.231,260.75
						c0.394,1.198,0.762,2.405,1.104,3.62c0.086,0.305,0.171,0.627,0.097,0.935c-0.076,0.315-0.312,0.574-0.591,0.739
						c-0.279,0.165-0.599,0.247-0.917,0.309c-0.669,0.13-1.354,0.183-2.035,0.155"/>
				</g>
			</g>
			<g>
				<g>
					<path style="fill:#42A5F6;" d="M400.734,266.221c0.552,0,1-0.448,1-1v-8.27c0-7.394,6.015-13.409,13.409-13.409h0.236
						c2.864,0,5.596,0.89,7.9,2.573c0.445,0.325,1.071,0.229,1.398-0.218c0.326-0.446,0.228-1.072-0.218-1.398
						c-2.649-1.935-5.789-2.958-9.08-2.958h-0.236c-8.497,0-15.409,6.912-15.409,15.409v8.27
						C399.734,265.773,400.182,266.221,400.734,266.221z"/>
				</g>
				<g>
					<path style="fill:#1D89E4;" d="M396.21,268.155c0,3.082,2.363,5.581,5.279,5.581s5.279-2.499,5.279-5.581
						c0-3.082-2.363-5.581-5.279-5.581S396.21,265.072,396.21,268.155z"/>
					<path style="fill:#42A5F6;" d="M397.68,268.155c0,3.082,2.363,5.581,5.279,5.581c2.915,0,5.279-2.499,5.279-5.581
						c0-3.082-2.363-5.581-5.279-5.581C400.043,262.573,397.68,265.072,397.68,268.155z"/>
				</g>
				<g>
					<g>
						<path style="fill:#BA6C56;" d="M342.576,322.422c-1.78-0.172-3.483,0.949-3.981,2.731c-0.56,2,0.608,4.076,2.609,4.636
							l28.64,8.014l1.594-12.613L342.576,322.422z"/>
					</g>
					<path style="fill:#BA6C56;" d="M349.177,331.249c0,0-13.078-1.532-16.188-1.576c-3.11-0.044-5.581-0.528-6.26-0.977
						c-0.679-0.45,1.423-1.911,5.965-1.712c0,0-5.566-0.582-7.794-2.189c-2.228-1.606,5.584-0.974,8.126-0.369
						c0,0-6.659-1.609-8.775-3.528c-2.116-1.919,6.411-0.455,9.642,0.737c0,0-6.36-2.872-7.487-4.566
						c-1.126-1.693,6.117,0.849,8.909,2.273c2.792,1.424,3.953,0.723,3.672,0.144c-0.282-0.579-1.655-2.669-2.494-3.649
						c-0.524-0.613-1.062-2.765,0.108-2.449c0.702,0.19,2.218,1.731,3.097,2.681c2.344,2.532,6.801,6.366,9.238,7.228l3.401,1.202
						L349.177,331.249z"/>
				</g>
				<path style="fill:#FF9AD6;" d="M398.901,295.82l-3.021,3.655c-0.703,0.85-1.341,1.751-1.909,2.697
					c-3.135,5.217-13.865,23.05-14.074,23.05c-0.245,0-13.193-0.928-13.193-0.928l-2.222,12.999l17.785,4.726
					c3.348,0.89,6.9-0.344,8.976-3.118l12.448-16.634L398.901,295.82z"/>
				
					<polygon style="fill:#CF7DAD;stroke:#CF7DAD;stroke-width:0.5;stroke-linecap:round;stroke-linejoin:round;stroke-miterlimit:10;" points="
					368.576,324.215 366.644,338.564 363.778,338.009 365.945,323.935 				"/>
				<g>
					<path style="fill:#BA6C56;" d="M331.306,444.181c-0.7,2.639,0.652,5.45,3.246,6.509c2.818,1.15,6.035-0.202,7.185-3.02
						l11.705-28.681l-14.65-3.179L331.306,444.181z"/>
				</g>
				<g>
					<path style="fill:#BA6C56;" d="M370.67,448.98c0.064,2.725,2.139,5.047,4.922,5.346c3.027,0.325,5.744-1.865,6.069-4.892
						l3.337-31.072L369.937,419L370.67,448.98z"/>
				</g>
				<path style="fill:#0C1633;" d="M399.232,256.796c-0.428,2.882,0.182,5.907,1.695,8.398c0.807,1.329,1.852,2.497,2.926,3.621
					c0.814-2.206,0.804-4.803-0.151-6.952C402.748,259.714,401.415,257.671,399.232,256.796z"/>
				<path style="fill:#0C1633;" d="M431.142,327.86c5.98-0.683,11.97-2.905,15.825-7.527c3.246-3.891,3.104-9.704,1.277-14.431
					c-1.827-4.727-5.061-8.748-7.713-13.066c-2.651-4.318-4.792-9.316-4.037-14.327c0.729-4.839,4.062-9.008,4.665-13.864
					c0.611-4.923-1.962-10.094-6.257-12.577c-3.455-1.997-7.713-2.3-11.087-4.431c-2.546-1.607-4.421-4.078-6.736-5.978
					c-2.319-1.904-5-3.499-8.019-3.905c-8.587-1.154-14.658,7.518-13.803,15.426c0.257,2.379,1.392,4.729,3.35,6.104
					c3.219,2.26,6.792,3.815,10.72,3.62c1.932,12.411,8.08,24.214,12.501,35.971C425.385,308.334,428.656,318.065,431.142,327.86z"
					/>
				<path style="fill:#E3B04E;" d="M422.353,366.118c-0.856-6.925-7.163-11.844-14.088-10.988
					c-7.908,0.978-15.822,1.858-23.733,2.789c-7.915,0.868-15.827,1.787-23.746,2.609l-1.02,0.103
					c-3.856,0.41-7.241,3.144-8.29,7.117l-16.355,57.609l15.542,4.172l18.089-48.052c5.807-0.197,11.615-0.374,17.422-0.568
					c7.963-0.202,15.922-0.455,23.888-0.611c0.426-0.009,0.871-0.04,1.303-0.093C418.29,379.35,423.209,373.043,422.353,366.118z"/>
				<g>
					<path style="fill:#0C1633;" d="M345.71,445.548c-0.009,0.747-0.045,1.54-0.09,2.35c-0.027,0.495-0.063,0.991-0.099,1.495
						c-0.054,0.711-0.117,1.432-0.18,2.125c-0.135,1.531-0.288,2.963-0.423,4.125c-0.18,1.639-0.315,2.729-0.315,2.729
						l-35.744-0.027c0,0-1.018-1.162-0.009-2.702c1.468-2.278,4.206-5.403,8.763-6.925c4.998-1.675,8.015-3.882,10.042-6.088
						c0.063-0.072,0.126-0.135,0.18-0.207c0.612-0.666,1.117-1.351,1.576-2.008c0.054-0.072,0.099-0.153,0.144-0.225
						c0.234-0.351,0.441-0.693,0.648-1.027c1.945-3.197,6.682,5.512,6.682,5.512s6.367-4.503,8.15-3.855
						C345.611,441.036,345.764,442.999,345.71,445.548z"/>
					<path style="fill:#D4D4D0;" d="M344.921,455.642c0.109,1.629,0.096,2.731,0.096,2.731l-36.167-0.03
						c0,0-1.012-1.162,0.001-2.701H344.921z"/>
					<path style="fill:#D4D4D0;" d="M332.21,442.945l-1.081,1.387c-0.18,0.234-0.522,0.27-0.748,0.09l-2.549-1.999
						c0.612-0.666,1.117-1.351,1.576-2.008c0.054-0.072,0.099-0.153,0.144-0.225l2.567,2.008
						C332.354,442.378,332.4,442.72,332.21,442.945z"/>
					<g>
						<path style="fill:#D4D4D0;" d="M345.62,447.898c-0.027,0.495-0.063,0.991-0.099,1.495c-1.351,0.838-2.864,1.45-4.458,1.783
							c-1.081,0.234-2.216,0.333-3.332,0.288c-1.108-0.036-2.152-0.162-3.134-0.207c-0.982-0.036-1.864,0.027-2.666,0.279
							c-0.811,0.243-1.576,0.684-2.242,1.225c-1.342,1.09-2.26,2.675-2.585,4.278l-3.557-0.937c0.766-2.405,2.324-4.467,4.368-5.8
							c1.018-0.667,2.161-1.171,3.377-1.405c1.225-0.252,2.45-0.189,3.53-0.027c1.099,0.162,2.107,0.396,3.071,0.522
							c0.955,0.135,1.918,0.153,2.891,0.045C342.459,449.267,344.116,448.736,345.62,447.898z"/>
					</g>
				</g>
				<rect x="408.741" y="278.905" style="fill:#BA6C56;" width="14.148" height="19.076"/>
				<path style="fill:#AA563C;" d="M408.741,278.905v5.9c3.222,0.134,10.613-0.205,13.622-5.874l-2.071-0.027H408.741z"/>
				<path style="fill:#BA6C56;" d="M429.53,265.383c0,2.93-0.62,5.86-1.89,8.5c-1.14,2.37-2.81,4.51-4.96,6.05
					c-1.33,0.96-2.89,1.69-4.5,2.04c-1.07,0.22-2.22,0.17-3.31,0.19c-1.2,0.02-2.39,0-3.58-0.05c-1.39-0.05-2.86-0.12-4.18-0.57
					c-1.18-0.41-2.26-1.12-3.1-2.03c-0.79-0.85-1.39-1.86-1.76-2.95c-0.33-0.9-0.49-1.86-0.49-2.83v-5.95
					c-0.09-0.78-0.16-1.58-0.16-2.4c0-9.34,6.25-16.92,13.97-16.92C423.28,248.463,429.53,256.043,429.53,265.383z"/>
				<g>
					<path style="fill:#BA6C56;" d="M426.422,265.27c0.501-0.891,1.711-1.404,2.854-1.32c1.143,0.084,2.182,0.705,2.809,1.535
						c0.627,0.83,0.869,1.847,0.831,2.837c-0.039,1.022-0.376,2.055-1.099,2.865c-0.723,0.81-1.857,1.371-3.041,1.368
						c-1.184-0.004-2.372-0.632-2.785-1.591L426.422,265.27z"/>
					<g>
						
							<path style="fill:none;stroke:#AA563C;stroke-width:0.6854;stroke-linecap:round;stroke-linejoin:round;stroke-miterlimit:10;" d="
							M429.127,270.77c-0.905-1.683-0.774-3.703,0.344-5.302"/>
						
							<path style="fill:none;stroke:#AA563C;stroke-width:0.6854;stroke-linecap:round;stroke-linejoin:round;stroke-miterlimit:10;" d="
							M428.793,267.776c0.952,0.419,1.69,1.141,2.017,1.973"/>
					</g>
				</g>
				<path style="fill:#BA6C56;" d="M396.725,307.79c5.268-0.398,10.55-0.672,15.821-0.96c8.494-0.463,16.984-1.082,25.472-1.727
					c0.233-5.161-1.826-9.8-5.409-11.406l-14.684-6.581l-15.919,6.698c-4.016,1.69-6.187,7.16-5.412,12.985L396.725,307.79z"/>
				<path style="fill:#F4C35C;" d="M437.376,365.883c-0.074-0.521-0.188-1.025-0.321-1.52c-0.068-0.969-0.224-1.967-0.491-2.97
					l-4.9-18.428h-28.846l-4.112,15.463c-6.747,0.863-13.493,1.754-20.244,2.569l-1.079,0.129c-4.96,0.615-8.741,4.905-8.616,10.007
					l0.021,57.833l16.38-0.467l3.762-46.759c4.61-0.206,9.221-0.404,13.83-0.614c7.498-0.279,14.992-0.608,22.495-0.84
					c0.453-0.015,0.923-0.054,1.382-0.119C433.547,379.187,438.355,372.792,437.376,365.883z"/>
				<g>
					<path style="fill:#0C1633;" d="M384.37,445.548c-0.009,0.747-0.045,1.54-0.09,2.35c-0.027,0.495-0.063,0.991-0.099,1.495
						c-0.054,0.711-0.117,1.432-0.18,2.125c-0.135,1.531-0.288,2.963-0.423,4.125c-0.18,1.639-0.315,2.729-0.315,2.729
						l-35.744-0.027c0,0-1.018-1.162-0.009-2.702c1.468-2.278,4.206-5.403,8.763-6.925c4.998-1.675,8.015-3.882,10.041-6.088
						c0.063-0.072,0.126-0.135,0.18-0.207c0.612-0.666,1.117-1.351,1.576-2.008c0.054-0.072,0.099-0.153,0.144-0.225
						c0.234-0.351,0.441-0.693,0.648-1.027c1.945-3.197,6.682,5.512,6.682,5.512s6.367-4.503,8.15-3.855
						C384.271,441.036,384.424,442.999,384.37,445.548z"/>
					<path style="fill:#D4D4D0;" d="M383.58,455.642c0.109,1.629,0.096,2.731,0.096,2.731l-36.167-0.03c0,0-1.011-1.162,0.001-2.701
						H383.58z"/>
					<path style="fill:#D4D4D0;" d="M370.87,442.945l-1.081,1.387c-0.18,0.234-0.522,0.27-0.747,0.09l-2.549-1.999
						c0.612-0.666,1.117-1.351,1.576-2.008c0.054-0.072,0.099-0.153,0.144-0.225l2.567,2.008
						C371.014,442.378,371.059,442.72,370.87,442.945z"/>
					<g>
						<path style="fill:#D4D4D0;" d="M384.28,447.898c-0.027,0.495-0.063,0.991-0.099,1.495c-1.351,0.838-2.864,1.45-4.458,1.783
							c-1.081,0.234-2.215,0.333-3.332,0.288c-1.108-0.036-2.152-0.162-3.134-0.207c-0.982-0.036-1.864,0.027-2.666,0.279
							c-0.811,0.243-1.576,0.684-2.243,1.225c-1.342,1.09-2.26,2.675-2.585,4.278l-3.557-0.937c0.766-2.405,2.324-4.467,4.368-5.8
							c1.018-0.667,2.161-1.171,3.377-1.405c1.225-0.252,2.449-0.189,3.53-0.027c1.099,0.162,2.107,0.396,3.071,0.522
							c0.955,0.135,1.918,0.153,2.891,0.045C381.119,449.267,382.776,448.736,384.28,447.898z"/>
					</g>
				</g>
				<g>
					<g>
						<path style="fill:#004370;" d="M366.789,341.035h2.031c0.268,0,0.484-0.216,0.484-0.484s-0.217-0.484-0.484-0.484h-1.822
							l-9.136-9.712c-0.184-0.195-0.49-0.203-0.685-0.021c-0.195,0.183-0.204,0.49-0.021,0.685l9.279,9.864
							C366.528,340.98,366.656,341.035,366.789,341.035z"/>
					</g>
					<g>
						<path style="fill:#004370;" d="M346.066,341.035h2.031c0.133,0,0.261-0.055,0.353-0.152l9.279-9.864
							c0.183-0.195,0.174-0.501-0.021-0.685c-0.194-0.182-0.5-0.174-0.685,0.021l-9.136,9.712h-1.822
							c-0.267,0-0.484,0.217-0.484,0.484S345.799,341.035,346.066,341.035z"/>
					</g>
					<g>
						<path style="fill:#00548A;" d="M356.847,327.542h0.865c0.268,0,0.484-0.216,0.484-0.484s-0.217-0.484-0.484-0.484h-0.865
							c-1.069,0-1.939-1.005-1.939-2.24v-6.857c0-0.268-0.216-0.484-0.484-0.484c-0.268,0-0.484,0.216-0.484,0.484v6.857
							C353.94,326.103,355.244,327.542,356.847,327.542z"/>
					</g>
					<g>
						<path style="fill:#00548A;" d="M358.006,307.328l8.272,8.272l6.219-6.22c2.284-2.284,2.284-5.988,0-8.272h0
							c-2.284-2.284-5.988-2.284-8.272,0L358.006,307.328z"/>
					</g>
					<g>
						<path style="fill:#004370;" d="M363.993,317.885l-8.272-8.272l-4.612,4.612c-1.257,1.257-1.257,3.295,0,4.552l3.72,3.72
							c1.257,1.257,3.295,1.257,4.552,0L363.993,317.885z"/>
					</g>
					<g>
						<path style="fill:#002C47;" d="M355.082,310.151l8.373,8.373c0.313,0.313,0.821,0.313,1.134,0l2.328-2.328
							c0.313-0.313,0.313-0.821,0-1.134l-8.373-8.373c-0.313-0.313-0.821-0.313-1.134,0l-2.328,2.328
							C354.769,309.33,354.769,309.838,355.082,310.151z"/>
					</g>
					<g>
						<path style="fill:#004370;" d="M359.475,312.607c0,0.842,0.682,1.524,1.524,1.524c0.842,0,1.524-0.682,1.524-1.524
							c0-0.842-0.682-1.524-1.524-1.524C360.158,311.083,359.475,311.765,359.475,312.607z"/>
					</g>
					<g>
						<path style="fill:#00548A;" d="M357.712,327.542h0.865c1.602,0,2.906-1.439,2.906-3.208v-11.727
							c0-0.268-0.217-0.484-0.484-0.484c-0.268,0-0.484,0.216-0.484,0.484v11.727c0,1.235-0.87,2.24-1.938,2.24h-0.865
							c-0.268,0-0.484,0.217-0.484,0.484S357.444,327.542,357.712,327.542z"/>
					</g>
					<g>
						<path style="fill:#002C47;" d="M357.51,334.408L357.51,334.408c0.675,0,1.223-0.547,1.223-1.223v-6.839
							c0-0.675-0.547-1.223-1.223-1.223l0,0c-0.675,0-1.223,0.547-1.223,1.222v6.84C356.287,333.86,356.835,334.408,357.51,334.408z
							"/>
					</g>
					<g>
						<path style="fill:#002C47;" d="M355.608,332.662h3.803c0.353,0,0.64-0.286,0.64-0.64v-2.671c0-0.353-0.286-0.64-0.64-0.64
							h-3.803c-0.353,0-0.64,0.286-0.64,0.64v2.671C354.968,332.376,355.255,332.662,355.608,332.662z"/>
					</g>
					<path style="fill:#004370;" d="M356.227,340.066h0.799v-9.38c0-0.268,0.217-0.484,0.484-0.484s0.484,0.217,0.484,0.484v9.38
						h0.798c0.268,0,0.484,0.217,0.484,0.484s-0.217,0.484-0.484,0.484h-2.566c-0.268,0-0.484-0.216-0.484-0.484
						S355.959,340.066,356.227,340.066z"/>
				</g>
				<path style="fill:#0C1633;" d="M398.903,258.683c2.811,2.358,6.37,3.811,10.028,4.095c3.658,0.285,7.398-0.601,10.54-2.495
					c0.985,2.361,1.813,4.701,3.258,6.813c1.445,2.112,4.376,5.627,6.727,6.636c4.856,0.173,6.089-6.202,2.647-13.731
					c-1.789-3.913-2.867-8.34-6.483-10.673c-1.599-1.032-3.395-1.724-5.224-2.249c-5.043-1.45-10.793-1.576-15.223,1.236
					C401.65,250.552,399.889,254.627,398.903,258.683z"/>
				<polygon style="fill:#C99C45;" points="334.706,423.849 352.1,428.57 350.97,432.364 333.979,426.996 				"/>
				<polygon style="fill:#E3B04E;" points="367.861,427.065 385.865,426.202 385.957,430.159 368.139,430.284 				"/>
				
					<path style="fill:none;stroke:#FFFFFF;stroke-width:0.5;stroke-linecap:round;stroke-linejoin:round;stroke-miterlimit:10;stroke-dasharray:2;" d="
					M380.771,423.849c0-0.689,3.122-34.371,4-43.822c0.131-1.414,1.259-2.527,2.675-2.643l36.635-2.998
					c5.553-0.454,9.433-5.697,8.246-11.14l-2.796-12.824"/>
				<path style="fill:#FF9AD6;" d="M407.183,291.316c-2.159,0.626-4.229,1.556-6.13,2.755c-1.716,1.082-2.945,2.364-3.761,4.221
					c-0.534,1.215-0.902,2.831-1.295,4.099c-0.701,2.265-2.341,4.044-3.185,6.259c-1.082,2.842-1.112,6-0.586,8.995
					c0.526,2.996,1.582,5.869,2.634,8.723c0.578,1.569,2.02,2.587,2.728,4.101c0.595,1.272,0.907,2.654,1.214,4.024
					c0.832,3.707,2.306,10.976,1.285,16.452c2.294,0.514,4.506,0.904,6.857,0.961c9.205,0.224,18.624,0.341,27.351-2.593
					c-0.612-6.174,0.076-12.466,1.012-18.599c0.755-4.945,1.51-9.889,2.264-14.834c0.685-4.488,1.369-9.079,0.529-13.541
					c-0.84-4.462-3.51-8.848-7.74-10.497c-1.696-0.661-3.825-1.435-5.764-2.128l-4.974,6.379l-9.345,5.644l-1.535-1.24
					L407.183,291.316z"/>
				
					<line style="fill:none;stroke:#FFFFFF;stroke-width:0.5;stroke-linecap:round;stroke-linejoin:round;stroke-miterlimit:10;stroke-dasharray:2;" x1="348.994" y1="425.504" x2="367.996" y2="376.747"/>
				<g>
					<path style="fill:#BA6C56;" d="M403.478,321.888l-29.811-6.278c-1.961-0.415-3.99,0.641-4.734,2.571
						c-0.826,2.142,0.24,4.548,2.381,5.374l30.724,11.856C402.682,330.819,403.406,326.349,403.478,321.888z"/>
				</g>
				<path style="fill:#BA6C56;" d="M375.93,324.293c0,0-13.063-1.654-16.173-1.726c-3.11-0.073-5.576-0.579-6.25-1.035
					s1.44-1.898,5.98-1.656c0,0-5.56-0.634-7.774-2.261c-2.214-1.627,5.592-0.923,8.129-0.293c0,0-6.643-1.671-8.742-3.61
					c-2.098-1.939,6.415-0.395,9.635,0.827c0,0-6.333-2.931-7.444-4.635c-1.111-1.704,6.109,0.906,8.888,2.356
					c2.779,1.45,3.946,0.76,3.67,0.178c-0.276-0.581-1.63-2.684-2.46-3.672c-0.518-0.617-1.036-2.775,0.131-2.447
					c0.7,0.196,2.202,1.752,3.072,2.709c2.32,2.554,6.742,6.429,9.17,7.313l3.39,1.233L375.93,324.293z"/>
				<path style="fill:#FF9AD6;" d="M426.649,290.453l4.102,1.623c4.263,1.687,7.173,5.678,7.475,10.253l0.285,4.323l-13.703,29.915
					c-1.704,3.72-5.962,5.528-9.822,4.169l-24.068-8.469l3.282-12.957l17.232,2.994l9.171-26.592L426.649,290.453z"/>
				
					<polygon style="fill:#CF7DAD;stroke:#CF7DAD;stroke-width:0.5;stroke-linecap:round;stroke-linejoin:round;stroke-miterlimit:10;" points="
					395.659,319.183 392.234,333.25 389.442,332.399 393.072,318.628 				"/>
				<polyline style="fill:none;stroke:#CF7DAD;stroke-miterlimit:10;" points="401.868,320.643 411.431,322.305 416.503,307.597 
									"/>
				<path style="fill:none;stroke:#CF7DAD;stroke-miterlimit:10;" d="M403.133,336.566l11.773,4.22
					c3.878,1.39,8.174-0.42,9.889-4.166l11.313-24.722"/>
				
					<path style="fill:#FFFFFF;stroke:#FFFFFF;stroke-width:0.5;stroke-linecap:round;stroke-linejoin:round;stroke-miterlimit:10;" d="
					M423.371,289.278c-7.477,10.312-13.293,12.143-13.293,12.143c-2.229-6.144-1.492-10.486-1.492-10.486l-2.65,0.78
					c0,0,0.118,6.964,3.816,10.646c0,0,10.03-2.691,16.051-12.286L423.371,289.278z"/>
				<path style="fill:none;stroke:#CF7DAD;stroke-miterlimit:10;" d="M396,318.629c-1.283-2.077-2.15-4.381-2.057-6.792
					c0.115-2.972,1.66-5.674,3.164-8.24"/>
				<g>
					<path style="fill:#42A5F6;" d="M429.788,269.026c0.552,0,1-0.448,1-1V256.95c0-4.901-2.366-9.556-6.329-12.451
						c-0.445-0.325-1.071-0.229-1.397,0.218c-0.326,0.446-0.228,1.071,0.218,1.398c3.449,2.52,5.508,6.57,5.508,10.835v11.075
						C428.788,268.578,429.236,269.026,429.788,269.026z"/>
				</g>
				<g>
					<path style="fill:#D97265;" d="M404.09,274.163c0,1.15-0.78,2.12-1.84,2.4c-0.33-0.9-0.49-1.86-0.49-2.83v-2.05
						C403.06,271.763,404.09,272.843,404.09,274.163z"/>
					<path style="fill:#D97265;" d="M420.551,274.165c0,1.376-1.116,2.492-2.492,2.492s-2.492-1.116-2.492-2.492
						c0-1.376,1.116-2.492,2.492-2.492S420.551,272.789,420.551,274.165z"/>
					<path style="fill:none;stroke:#0C1633;stroke-linecap:round;stroke-linejoin:round;stroke-miterlimit:10;" d="M403.22,268.768
						c0.448-0.63,1.217-1.001,1.99-1.026c0.773-0.025,1.54,0.279,2.132,0.777"/>
					<path style="fill:none;stroke:#0C1633;stroke-linecap:round;stroke-linejoin:round;stroke-miterlimit:10;" d="M417.251,268.768
						c-0.449-0.63-1.217-1.001-1.991-1.026c-0.773-0.025-1.54,0.279-2.132,0.777"/>
					<path style="fill:none;stroke:#0C1633;stroke-linecap:round;stroke-linejoin:round;stroke-miterlimit:10;" d="M410.326,268.602
						c0.005,0.711-0.057,1.443-0.367,2.083c-0.222,0.459-0.561,0.851-0.829,1.285c-0.267,0.435-0.466,0.95-0.361,1.449
						c0.116,0.552,0.571,0.958,1,1.324"/>
					<path style="fill:none;stroke:#0C1633;stroke-linecap:round;stroke-linejoin:round;stroke-miterlimit:10;" d="M408.843,277.78
						c1.625,0.356,3.387,0.035,4.781-0.872"/>
					<circle style="fill:none;stroke:#FFFFFF;stroke-width:0.75;stroke-miterlimit:10;" cx="404.442" cy="268.602" r="4.252"/>
					<circle style="fill:none;stroke:#FFFFFF;stroke-width:0.75;stroke-miterlimit:10;" cx="415.567" cy="268.602" r="4.252"/>
					
						<line style="fill:none;stroke:#FFFFFF;stroke-width:0.75;stroke-miterlimit:10;" x1="408.679" y1="268.254" x2="411.314" y2="268.254"/>
					
						<line style="fill:none;stroke:#FFFFFF;stroke-width:0.75;stroke-miterlimit:10;" x1="419.633" y1="268.254" x2="428.138" y2="268.254"/>
				</g>
				<g>
					<path style="fill:#1D89E4;" d="M423.5,268.155c0,3.082,2.363,5.581,5.279,5.581c2.915,0,5.279-2.499,5.279-5.581
						c0-3.082-2.363-5.581-5.279-5.581C425.864,262.573,423.5,265.072,423.5,268.155z"/>
					<path style="fill:#42A5F6;" d="M424.97,268.155c0,3.082,2.363,5.581,5.279,5.581s5.279-2.499,5.279-5.581
						c0-3.082-2.363-5.581-5.279-5.581S424.97,265.072,424.97,268.155z"/>
				</g>
			</g>
			<path style="fill:#BED6E8;" d="M466.671,346.946H33.329c-1.624,0-2.94-1.316-2.94-2.94l0,0c0-1.624,1.316-2.94,2.94-2.94h433.341
				c1.624,0,2.94,1.316,2.94,2.94l0,0C469.611,345.63,468.294,346.946,466.671,346.946z"/>
			<g>
				<g>
					<path style="fill:#004370;" d="M347.9,289.852c0.965,0,0.967-1.5,0-1.5C346.934,288.352,346.933,289.852,347.9,289.852
						L347.9,289.852z"/>
				</g>
			</g>
		</g>
		<g>
			<g>
				<g>
					<path style="fill:#004370;" d="M85.613,196.21c-0.266,0-0.534-0.072-0.782-0.22c-1.053-0.625-1.991-1.32-2.79-2.066
						c-0.784-0.732-1.458-1.538-2.004-2.398h-21.82c-4.373,0-7.93-3.558-7.93-7.93s3.558-7.93,7.93-7.93h23.178
						c4.373,0,7.93,3.558,7.93,7.93c0,2.696-1.393,5.22-3.657,6.673c0.097,0.453,0.213,0.9,0.347,1.335
						c0.219,0.713,0.519,1.444,0.971,2.37c0.304,0.622,0.164,1.355-0.346,1.826C86.344,196.071,85.981,196.21,85.613,196.21z
						 M58.217,176.665c-3.821,0-6.93,3.109-6.93,6.93s3.109,6.93,6.93,6.93h22.382l0.146,0.243c0.523,0.872,1.189,1.688,1.979,2.425
						c0.747,0.697,1.627,1.349,2.618,1.938c0.308,0.183,0.553-0.005,0.62-0.067c0.148-0.136,0.258-0.378,0.125-0.651
						c-0.469-0.961-0.796-1.76-1.028-2.515c-0.177-0.578-0.326-1.176-0.442-1.778l-0.067-0.35l0.308-0.178
						c2.139-1.238,3.468-3.536,3.468-5.997c0-3.821-3.109-6.93-6.93-6.93H58.217z"/>
				</g>
				<g>
					<g>
						<circle style="fill:#004370;" cx="56.811" cy="183.596" r="1.992"/>
					</g>
					<g>
						<circle style="fill:#004370;" cx="65.034" cy="183.596" r="1.992"/>
					</g>
					<g>
						<circle style="fill:#004370;" cx="73.256" cy="183.596" r="1.992"/>
					</g>
					<g>
						<circle style="fill:#004370;" cx="81.479" cy="183.596" r="1.992"/>
					</g>
				</g>
			</g>
			<g>
				<g>
					<path style="fill:#004370;" d="M398.226,188.741c-0.369,0-0.732-0.14-1.027-0.412c-0.51-0.47-0.648-1.204-0.345-1.825
						c0.453-0.93,0.753-1.661,0.971-2.37c0.133-0.432,0.249-0.879,0.347-1.334c-2.265-1.454-3.657-3.978-3.657-6.673
						c0-4.373,3.558-7.931,7.931-7.931h23.177c4.373,0,7.931,3.558,7.931,7.93c0,4.373-3.558,7.931-7.931,7.931h-21.82
						c-0.546,0.86-1.22,1.666-2.004,2.398c-0.798,0.746-1.736,1.441-2.789,2.067C398.76,188.669,398.491,188.741,398.226,188.741z
						 M402.444,169.196c-3.821,0-6.931,3.109-6.931,6.93c0,2.461,1.328,4.759,3.468,5.997l0.308,0.178l-0.067,0.349
						c-0.117,0.606-0.266,1.205-0.442,1.778c-0.233,0.76-0.55,1.536-1.027,2.515c-0.134,0.273-0.024,0.515,0.124,0.651
						c0.066,0.063,0.309,0.252,0.621,0.068c0.991-0.589,1.872-1.242,2.618-1.938c0.789-0.737,1.455-1.553,1.979-2.425l0.146-0.243
						h22.382c3.821,0,6.931-3.109,6.931-6.93c0-3.822-3.109-6.931-6.931-6.931H402.444z"/>
				</g>
				<g>
					<g>
						<circle style="fill:#004370;" cx="427.027" cy="176.126" r="1.992"/>
					</g>
					<g>
						<circle style="fill:#004370;" cx="418.805" cy="176.126" r="1.992"/>
					</g>
					<g>
						<circle style="fill:#004370;" cx="410.582" cy="176.126" r="1.992"/>
					</g>
					<g>
						<circle style="fill:#004370;" cx="402.36" cy="176.126" r="1.992"/>
					</g>
				</g>
			</g>
			<g>
				<path style="fill:#004370;" d="M201.737,238.366c-0.283,0-0.565-0.075-0.823-0.223c-0.515-0.297-0.823-0.831-0.823-1.425v-14.22
					c0-0.595,0.308-1.128,0.823-1.425c0.516-0.297,1.131-0.297,1.645,0l12.315,7.11c0.515,0.297,0.823,0.831,0.823,1.425
					c0,0.595-0.308,1.128-0.823,1.425l-12.315,7.11C202.303,238.292,202.02,238.366,201.737,238.366z M201.741,221.85
					c-0.149,0-0.267,0.055-0.326,0.089c-0.097,0.056-0.323,0.223-0.323,0.559v14.22c0,0.336,0.226,0.503,0.323,0.559
					c0.098,0.057,0.355,0.169,0.645,0l12.315-7.11c0.291-0.168,0.323-0.447,0.323-0.559c0-0.112-0.031-0.391-0.323-0.559
					l-12.315-7.11C201.946,221.873,201.837,221.85,201.741,221.85z"/>
			</g>
			<g>
				<path style="fill:#004370;" d="M84.693,93.514c-0.283,0-0.565-0.075-0.823-0.223c-0.515-0.297-0.823-0.831-0.823-1.425v-14.22
					c0-0.595,0.308-1.128,0.823-1.425c0.516-0.297,1.131-0.297,1.646,0l12.315,7.11c0.515,0.297,0.823,0.83,0.823,1.425
					c0,0.595-0.308,1.127-0.823,1.425l-12.315,7.11C85.258,93.439,84.976,93.514,84.693,93.514z M84.696,76.998
					c-0.149,0-0.267,0.055-0.326,0.089c-0.097,0.056-0.323,0.223-0.323,0.559v14.22c0,0.336,0.226,0.503,0.323,0.559
					c0.098,0.057,0.355,0.168,0.646,0l12.315-7.11c0.291-0.168,0.323-0.447,0.323-0.559c0-0.112-0.031-0.391-0.323-0.559
					l-12.315-7.11C84.901,77.021,84.792,76.998,84.696,76.998z"/>
			</g>
			<g>
				<path style="fill:#004370;" d="M429.37,85.257c-0.282,0-0.564-0.075-0.822-0.223c-0.516-0.298-0.823-0.831-0.823-1.425v-14.22
					c0-0.595,0.308-1.128,0.823-1.425c0.517-0.297,1.131-0.296,1.646,0l12.314,7.11c0.516,0.297,0.823,0.83,0.823,1.425
					c0,0.595-0.308,1.128-0.823,1.425l-12.314,7.11C429.935,85.182,429.653,85.257,429.37,85.257z M429.374,68.74
					c-0.149,0-0.268,0.055-0.326,0.089c-0.098,0.056-0.323,0.223-0.323,0.559v14.22c0,0.336,0.226,0.503,0.323,0.559
					c0.097,0.056,0.353,0.169,0.646,0l12.314-7.11c0.291-0.168,0.323-0.447,0.323-0.559c0-0.112-0.032-0.391-0.323-0.559
					l-12.314-7.11C429.579,68.763,429.47,68.74,429.374,68.74z"/>
			</g>
			<g>
				<path style="fill:#004370;" d="M309.497,244.757l-2.833-7.415c-0.657-1.721-2.592-2.586-4.313-1.928l-6.382,2.439
					c-1.721,0.658-2.585,2.592-1.928,4.313l2.428,6.355c-0.401-0.003-0.817,0.062-1.229,0.219c-1.488,0.569-2.314,2.027-1.844,3.257
					c0.47,1.23,2.057,1.766,3.546,1.197c1.488-0.569,2.314-2.027,1.844-3.257c-0.076-0.199-0.19-0.372-0.319-0.532l-2.978-7.793
					c-0.352-0.922,0.111-1.958,1.033-2.31l6.382-2.439c0.921-0.352,1.958,0.111,2.31,1.033l2.405,6.294
					c-0.342,0.018-0.694,0.085-1.041,0.217c-1.488,0.569-2.314,2.027-1.844,3.257c0.47,1.23,2.058,1.766,3.546,1.197
					c1.488-0.569,2.314-2.027,1.844-3.257C309.994,245.264,309.773,244.983,309.497,244.757z"/>
			</g>
			<g>
				<path style="fill:#004370;" d="M347.6,46.847l-2.833-7.415c-0.657-1.72-2.592-2.585-4.313-1.928l-6.382,2.439
					c-1.721,0.657-2.586,2.592-1.928,4.313l2.428,6.355c-0.401-0.003-0.817,0.062-1.228,0.219c-1.488,0.569-2.314,2.027-1.844,3.257
					s2.057,1.766,3.546,1.197c1.488-0.569,2.314-2.027,1.844-3.257c-0.076-0.199-0.19-0.372-0.319-0.532l-2.978-7.793
					c-0.352-0.922,0.111-1.958,1.033-2.31l6.382-2.439c0.921-0.352,1.958,0.111,2.31,1.033l2.405,6.294
					c-0.342,0.018-0.694,0.085-1.041,0.217c-1.488,0.569-2.314,2.027-1.844,3.257c0.47,1.23,2.057,1.766,3.546,1.197
					c1.488-0.569,2.314-2.027,1.844-3.257C348.097,47.353,347.875,47.072,347.6,46.847z"/>
			</g>
			<g>
				<path style="fill:#004370;" d="M31.161,137.428l2.833-7.415c0.657-1.72,2.592-2.586,4.313-1.928l6.382,2.439
					c1.721,0.658,2.585,2.592,1.928,4.313l-2.428,6.355c0.401-0.003,0.817,0.062,1.229,0.219c1.488,0.569,2.314,2.027,1.844,3.257
					c-0.47,1.23-2.057,1.766-3.546,1.197c-1.488-0.569-2.314-2.027-1.844-3.257c0.076-0.199,0.19-0.372,0.319-0.532l2.978-7.793
					c0.352-0.922-0.111-1.958-1.033-2.31l-6.382-2.439c-0.921-0.352-1.958,0.111-2.31,1.033l-2.405,6.294
					c0.342,0.018,0.694,0.085,1.041,0.217c1.488,0.569,2.314,2.027,1.844,3.257c-0.47,1.23-2.057,1.766-3.546,1.197
					c-1.488-0.569-2.314-2.027-1.844-3.257C30.664,137.934,30.885,137.653,31.161,137.428z"/>
			</g>
			<g>
				<g>
					<g>
						<path style="fill:#004370;" d="M51.857,57.602c1.93,0,1.933-3,0-3C49.926,54.602,49.923,57.602,51.857,57.602L51.857,57.602z"
							/>
					</g>
				</g>
			</g>
			<g>
				<g>
					<g>
						<path style="fill:#004370;" d="M226.022,47.996c1.93,0,1.934-3,0-3C224.091,44.996,224.088,47.996,226.022,47.996
							L226.022,47.996z"/>
					</g>
				</g>
			</g>
			<g>
				<g>
					<g>
						<path style="fill:#004370;" d="M217.668,194.178c1.93,0,1.934-3,0-3C215.738,191.178,215.735,194.178,217.668,194.178
							L217.668,194.178z"/>
					</g>
				</g>
			</g>
			<g>
				<g>
					<g>
						<path style="fill:#004370;" d="M414.387,131.111c1.93,0,1.934-3,0-3C412.457,128.111,412.454,131.111,414.387,131.111
							L414.387,131.111z"/>
					</g>
				</g>
			</g>
			<g>
				<g>
					<g>
						<path style="fill:#004370;" d="M469.936,248.891c1.93,0,1.934-3,0-3C468.006,245.891,468.003,248.891,469.936,248.891
							L469.936,248.891z"/>
					</g>
				</g>
			</g>
			<g>
				<g>
					<g>
						<path style="fill:#004370;" d="M35.568,244.297c1.93,0,1.933-3,0-3C33.638,241.297,33.634,244.297,35.568,244.297
							L35.568,244.297z"/>
					</g>
				</g>
			</g>
			<g>
				<g>
					<g>
						<path style="fill:#004370;" d="M96.11,155.051c0.965,0,0.967-1.5,0-1.5C95.145,153.551,95.143,155.051,96.11,155.051
							L96.11,155.051z"/>
					</g>
				</g>
			</g>
			<g>
				<g>
					<g>
						<path style="fill:#004370;" d="M141.846,55.394c0.965,0,0.967-1.5,0-1.5C140.881,53.894,140.88,55.394,141.846,55.394
							L141.846,55.394z"/>
					</g>
				</g>
			</g>
			<g>
				<g>
					<g>
						<path style="fill:#004370;" d="M290.128,47.691c0.965,0,0.967-1.5,0-1.5C289.163,46.191,289.161,47.691,290.128,47.691
							L290.128,47.691z"/>
					</g>
				</g>
			</g>
			<g>
				<g>
					<g>
						<path style="fill:#004370;" d="M348.381,182.974c0.965,0,0.967-1.5,0-1.5C347.416,181.474,347.414,182.974,348.381,182.974
							L348.381,182.974z"/>
					</g>
				</g>
			</g>
			<g>
				<g>
					<g>
						<path style="fill:#004370;" d="M465.851,130.016c0.965,0,0.967-1.5,0-1.5C464.886,128.516,464.884,130.016,465.851,130.016
							L465.851,130.016z"/>
					</g>
				</g>
			</g>
			<g>
				<g>
					<g>
						<path style="fill:#004370;" d="M414.819,43.358c0.965,0,0.967-1.5,0-1.5C413.854,41.858,413.852,43.358,414.819,43.358
							L414.819,43.358z"/>
					</g>
				</g>
			</g>
			<g>
				<g>
					<g>
						<path style="fill:#004370;" d="M179.398,258.077c0.965,0,0.967-1.5,0-1.5C178.433,256.577,178.431,258.077,179.398,258.077
							L179.398,258.077z"/>
					</g>
				</g>
			</g>
		</g>
		<g>
			<path style="fill:#FFFFFF;" d="M358.861,207.57c16.911,0,30.62,11.235,30.62,25.095c0,6.781-3.287,12.928-8.619,17.445
				c1.462,2.89,3.398,5.541,5.717,7.802c1.02,0.994,0.347,2.743-1.077,2.716c-5.509-0.107-10.827-1.638-15.541-4.575
				c-3.443,1.098-7.183,1.707-11.1,1.707c-16.911,0-30.62-11.235-30.62-25.095S341.95,207.57,358.861,207.57z"/>
			<path style="fill:#FF9AD6;" d="M366.546,222.335c-2.383-1.64-6.117-1.224-7.685,1.198c-1.568-2.422-5.303-2.838-7.685-1.198
				c-2.399,1.652-3.41,4.853-2.988,7.734c0.422,2.882,2.074,5.457,4.079,7.57c1.999,2.107,4.358,3.83,6.585,5.694v0.016
				c0.003-0.003,0.007-0.005,0.01-0.008c0.003,0.003,0.007,0.005,0.01,0.008v-0.016c2.226-1.864,4.586-3.588,6.585-5.694
				c2.005-2.113,3.657-4.688,4.079-7.57C369.956,227.188,368.945,223.987,366.546,222.335z"/>
		</g>
		<g>
			<path style="fill:#FFFFFF;" d="M275.446,169.958c-16.911,0-30.62,11.235-30.62,25.095c0,6.781,3.287,12.928,8.619,17.444
				c-1.462,2.89-3.398,5.541-5.717,7.802c-1.02,0.994-0.347,2.743,1.077,2.716c5.508-0.107,10.827-1.638,15.541-4.575
				c3.442,1.098,7.183,1.707,11.1,1.707c16.911,0,30.619-11.235,30.619-25.095C306.065,181.193,292.357,169.958,275.446,169.958z"/>
			<g>
				<path style="fill:#F4C35C;" d="M293.864,185.938h-37.749c-1.13,0-2.047-0.916-2.047-2.047l0,0c0-1.13,0.916-2.047,2.047-2.047
					h37.749c1.13,0,2.047,0.916,2.047,2.047l0,0C295.911,185.021,294.995,185.938,293.864,185.938z"/>
				<path style="fill:#F4C35C;" d="M286.252,193.327h-30.137c-1.13,0-2.047-0.916-2.047-2.047l0,0c0-1.131,0.916-2.047,2.047-2.047
					h30.137c1.13,0,2.047,0.916,2.047,2.047l0,0C288.299,192.411,287.382,193.327,286.252,193.327z"/>
				<path style="fill:#F4C35C;" d="M274.945,200.716h-18.83c-1.13,0-2.047-0.916-2.047-2.047l0,0c0-1.13,0.916-2.047,2.047-2.047
					h18.83c1.13,0,2.047,0.916,2.047,2.047l0,0C276.992,199.8,276.076,200.716,274.945,200.716z"/>
				<path style="fill:#F4C35C;" d="M264.351,208.106h-8.236c-1.13,0-2.047-0.916-2.047-2.047l0,0c0-1.131,0.916-2.047,2.047-2.047
					h8.236c1.13,0,2.047,0.916,2.047,2.047l0,0C266.398,207.189,265.481,208.106,264.351,208.106z"/>
			</g>
		</g>
		<g>
			<path style="fill:#FFFFFF;" d="M152.419,178.468c-16.911,0-30.62,11.235-30.62,25.095c0,6.781,3.287,12.928,8.619,17.445
				c-1.462,2.89-3.398,5.541-5.717,7.802c-1.02,0.994-0.347,2.743,1.077,2.716c5.508-0.107,10.827-1.638,15.541-4.575
				c3.442,1.098,7.183,1.707,11.1,1.707c16.911,0,30.619-11.235,30.619-25.095S169.33,178.468,152.419,178.468z"/>
			<g>
				<g>
					<path style="fill:#5E4ECB;" d="M149.943,203.57c0.446-0.66,1.096-1.386,1.949-2.178c0.588-0.548,1.025-1.008,1.308-1.385
						c0.285-0.375,0.426-0.775,0.426-1.203c0-0.588-0.248-1.059-0.746-1.415c-0.497-0.355-1.141-0.533-1.933-0.533
						c-0.813,0-1.548,0.192-2.208,0.579c-0.66,0.385-1.193,0.923-1.598,1.613l-4.537-2.436c0.833-1.421,2.009-2.527,3.532-3.319
						c1.523-0.792,3.359-1.187,5.511-1.187c2.416,0,4.358,0.502,5.83,1.506c1.472,1.005,2.208,2.411,2.208,4.217
						c0,0.833-0.143,1.568-0.426,2.208c-0.285,0.639-0.624,1.177-1.02,1.613c-0.396,0.437-0.909,0.929-1.537,1.477
						c-0.691,0.59-1.198,1.091-1.523,1.508c-0.325,0.416-0.487,0.898-0.487,1.446h-5.42
						C149.272,205.067,149.495,204.229,149.943,203.57z M149.517,213.191c-0.65-0.619-0.975-1.375-0.975-2.268
						c0-0.914,0.32-1.665,0.959-2.253c0.641-0.588,1.467-0.883,2.481-0.883c1.015,0,1.847,0.295,2.498,0.883
						c0.649,0.589,0.974,1.339,0.974,2.253c0,0.893-0.325,1.649-0.974,2.268c-0.65,0.619-1.483,0.928-2.498,0.928
						C150.987,214.119,150.166,213.811,149.517,213.191z"/>
				</g>
			</g>
		</g>
		<g>
			
				<text transform="matrix(1 0 0 1 123.0741 132.5858)" style="fill:#004370; font-family:'Montserrat-Bold'; font-size:47.8044px;">PODCAST</text>
			<g>
				<g>
					<line style="fill:none;stroke:#004370;stroke-miterlimit:10;" x1="167.307" y1="91.081" x2="167.307" y2="88.075"/>
					<g>
						<line style="fill:none;stroke:#004370;stroke-miterlimit:10;" x1="128.766" y1="91.081" x2="128.766" y2="71.962"/>
						<line style="fill:none;stroke:#004370;stroke-miterlimit:10;" x1="133.584" y1="91.081" x2="133.584" y2="78.43"/>
						<line style="fill:none;stroke:#004370;stroke-miterlimit:10;" x1="138.401" y1="91.081" x2="138.401" y2="86.671"/>
						<line style="fill:none;stroke:#004370;stroke-miterlimit:10;" x1="143.219" y1="91.081" x2="143.219" y2="82.925"/>
						<line style="fill:none;stroke:#004370;stroke-miterlimit:10;" x1="148.036" y1="91.081" x2="148.036" y2="79.179"/>
						<line style="fill:none;stroke:#004370;stroke-miterlimit:10;" x1="152.854" y1="91.081" x2="152.854" y2="75.246"/>
						<line style="fill:none;stroke:#004370;stroke-miterlimit:10;" x1="157.671" y1="91.081" x2="157.671" y2="79.928"/>
						<line style="fill:none;stroke:#004370;stroke-miterlimit:10;" x1="162.489" y1="91.081" x2="162.489" y2="83.861"/>
						<line style="fill:none;stroke:#004370;stroke-miterlimit:10;" x1="172.124" y1="91.081" x2="172.124" y2="86.015"/>
						<line style="fill:none;stroke:#004370;stroke-miterlimit:10;" x1="176.942" y1="91.081" x2="176.942" y2="82.644"/>
						<line style="fill:none;stroke:#004370;stroke-miterlimit:10;" x1="181.759" y1="91.081" x2="181.759" y2="85.505"/>
						<line style="fill:none;stroke:#004370;stroke-miterlimit:10;" x1="186.577" y1="91.081" x2="186.577" y2="81.988"/>
					</g>
					<line style="fill:none;stroke:#004370;stroke-miterlimit:10;" x1="229.497" y1="91.081" x2="229.497" y2="88.075"/>
					<g>
						<line style="fill:none;stroke:#004370;stroke-miterlimit:10;" x1="190.957" y1="91.081" x2="190.957" y2="71.962"/>
						<line style="fill:none;stroke:#004370;stroke-miterlimit:10;" x1="195.774" y1="91.081" x2="195.774" y2="78.43"/>
						<line style="fill:none;stroke:#004370;stroke-miterlimit:10;" x1="200.592" y1="91.081" x2="200.592" y2="86.671"/>
						<line style="fill:none;stroke:#004370;stroke-miterlimit:10;" x1="205.409" y1="91.081" x2="205.409" y2="82.925"/>
						<line style="fill:none;stroke:#004370;stroke-miterlimit:10;" x1="210.227" y1="91.081" x2="210.227" y2="79.179"/>
						<line style="fill:none;stroke:#004370;stroke-miterlimit:10;" x1="215.044" y1="91.081" x2="215.044" y2="75.246"/>
						<line style="fill:none;stroke:#004370;stroke-miterlimit:10;" x1="219.862" y1="91.081" x2="219.862" y2="79.928"/>
						<line style="fill:none;stroke:#004370;stroke-miterlimit:10;" x1="224.68" y1="91.081" x2="224.68" y2="83.861"/>
						<line style="fill:none;stroke:#004370;stroke-miterlimit:10;" x1="234.315" y1="91.081" x2="234.315" y2="86.015"/>
						<line style="fill:none;stroke:#004370;stroke-miterlimit:10;" x1="239.132" y1="91.081" x2="239.132" y2="82.644"/>
						<line style="fill:none;stroke:#004370;stroke-miterlimit:10;" x1="243.95" y1="91.081" x2="243.95" y2="85.505"/>
						<line style="fill:none;stroke:#004370;stroke-miterlimit:10;" x1="248.767" y1="91.081" x2="248.767" y2="81.988"/>
					</g>
				</g>
				<g>
					<line style="fill:none;stroke:#004370;stroke-miterlimit:10;" x1="330.228" y1="91.081" x2="330.228" y2="88.075"/>
					<g>
						<line style="fill:none;stroke:#004370;stroke-miterlimit:10;" x1="368.769" y1="91.081" x2="368.769" y2="71.962"/>
						<line style="fill:none;stroke:#004370;stroke-miterlimit:10;" x1="363.951" y1="91.081" x2="363.951" y2="78.43"/>
						<line style="fill:none;stroke:#004370;stroke-miterlimit:10;" x1="359.133" y1="91.081" x2="359.133" y2="86.671"/>
						<line style="fill:none;stroke:#004370;stroke-miterlimit:10;" x1="354.316" y1="91.081" x2="354.316" y2="82.925"/>
						<line style="fill:none;stroke:#004370;stroke-miterlimit:10;" x1="349.498" y1="91.081" x2="349.498" y2="79.179"/>
						<line style="fill:none;stroke:#004370;stroke-miterlimit:10;" x1="344.681" y1="91.081" x2="344.681" y2="75.246"/>
						<line style="fill:none;stroke:#004370;stroke-miterlimit:10;" x1="339.863" y1="91.081" x2="339.863" y2="79.928"/>
						<line style="fill:none;stroke:#004370;stroke-miterlimit:10;" x1="335.046" y1="91.081" x2="335.046" y2="83.861"/>
						<line style="fill:none;stroke:#004370;stroke-miterlimit:10;" x1="325.411" y1="91.081" x2="325.411" y2="86.015"/>
						<line style="fill:none;stroke:#004370;stroke-miterlimit:10;" x1="320.593" y1="91.081" x2="320.593" y2="82.644"/>
						<line style="fill:none;stroke:#004370;stroke-miterlimit:10;" x1="315.775" y1="91.081" x2="315.775" y2="85.505"/>
						<line style="fill:none;stroke:#004370;stroke-miterlimit:10;" x1="310.958" y1="91.081" x2="310.958" y2="81.988"/>
					</g>
					<line style="fill:none;stroke:#004370;stroke-miterlimit:10;" x1="268.038" y1="91.081" x2="268.038" y2="88.075"/>
					<g>
						<line style="fill:none;stroke:#004370;stroke-miterlimit:10;" x1="306.578" y1="91.081" x2="306.578" y2="71.962"/>
						<line style="fill:none;stroke:#004370;stroke-miterlimit:10;" x1="301.76" y1="91.081" x2="301.76" y2="78.43"/>
						<line style="fill:none;stroke:#004370;stroke-miterlimit:10;" x1="296.943" y1="91.081" x2="296.943" y2="86.671"/>
						<line style="fill:none;stroke:#004370;stroke-miterlimit:10;" x1="292.125" y1="91.081" x2="292.125" y2="82.925"/>
						<line style="fill:none;stroke:#004370;stroke-miterlimit:10;" x1="287.308" y1="91.081" x2="287.308" y2="79.179"/>
						<line style="fill:none;stroke:#004370;stroke-miterlimit:10;" x1="282.49" y1="91.081" x2="282.49" y2="75.246"/>
						<line style="fill:none;stroke:#004370;stroke-miterlimit:10;" x1="277.673" y1="91.081" x2="277.673" y2="79.928"/>
						<line style="fill:none;stroke:#004370;stroke-miterlimit:10;" x1="272.855" y1="91.081" x2="272.855" y2="83.861"/>
						<line style="fill:none;stroke:#004370;stroke-miterlimit:10;" x1="263.22" y1="91.081" x2="263.22" y2="86.015"/>
						<line style="fill:none;stroke:#004370;stroke-miterlimit:10;" x1="258.402" y1="91.081" x2="258.402" y2="82.644"/>
						<line style="fill:none;stroke:#004370;stroke-miterlimit:10;" x1="253.585" y1="91.081" x2="253.585" y2="85.505"/>
					</g>
				</g>
			</g>
			<g>
				<g>
					<line style="fill:none;stroke:#004370;stroke-miterlimit:10;" x1="330.228" y1="139.766" x2="330.228" y2="142.772"/>
					<g>
						<line style="fill:none;stroke:#004370;stroke-miterlimit:10;" x1="368.769" y1="139.766" x2="368.769" y2="158.885"/>
						<line style="fill:none;stroke:#004370;stroke-miterlimit:10;" x1="363.951" y1="139.766" x2="363.951" y2="152.417"/>
						<line style="fill:none;stroke:#004370;stroke-miterlimit:10;" x1="359.133" y1="139.766" x2="359.133" y2="144.176"/>
						<line style="fill:none;stroke:#004370;stroke-miterlimit:10;" x1="354.316" y1="139.766" x2="354.316" y2="147.922"/>
						<line style="fill:none;stroke:#004370;stroke-miterlimit:10;" x1="349.498" y1="139.766" x2="349.498" y2="151.668"/>
						<line style="fill:none;stroke:#004370;stroke-miterlimit:10;" x1="344.681" y1="139.766" x2="344.681" y2="155.601"/>
						<line style="fill:none;stroke:#004370;stroke-miterlimit:10;" x1="339.863" y1="139.766" x2="339.863" y2="150.919"/>
						<line style="fill:none;stroke:#004370;stroke-miterlimit:10;" x1="335.046" y1="139.766" x2="335.046" y2="146.986"/>
						<line style="fill:none;stroke:#004370;stroke-miterlimit:10;" x1="325.411" y1="139.766" x2="325.411" y2="144.832"/>
						<line style="fill:none;stroke:#004370;stroke-miterlimit:10;" x1="320.593" y1="139.766" x2="320.593" y2="148.203"/>
						<line style="fill:none;stroke:#004370;stroke-miterlimit:10;" x1="315.775" y1="139.766" x2="315.775" y2="145.342"/>
						<line style="fill:none;stroke:#004370;stroke-miterlimit:10;" x1="310.958" y1="139.766" x2="310.958" y2="148.858"/>
					</g>
					<line style="fill:none;stroke:#004370;stroke-miterlimit:10;" x1="268.038" y1="139.766" x2="268.038" y2="142.772"/>
					<g>
						<line style="fill:none;stroke:#004370;stroke-miterlimit:10;" x1="306.578" y1="139.766" x2="306.578" y2="158.885"/>
						<line style="fill:none;stroke:#004370;stroke-miterlimit:10;" x1="301.76" y1="139.766" x2="301.76" y2="152.417"/>
						<line style="fill:none;stroke:#004370;stroke-miterlimit:10;" x1="296.943" y1="139.766" x2="296.943" y2="144.176"/>
						<line style="fill:none;stroke:#004370;stroke-miterlimit:10;" x1="292.125" y1="139.766" x2="292.125" y2="147.922"/>
						<line style="fill:none;stroke:#004370;stroke-miterlimit:10;" x1="287.308" y1="139.766" x2="287.308" y2="151.668"/>
						<line style="fill:none;stroke:#004370;stroke-miterlimit:10;" x1="282.49" y1="139.766" x2="282.49" y2="155.601"/>
						<line style="fill:none;stroke:#004370;stroke-miterlimit:10;" x1="277.673" y1="139.766" x2="277.673" y2="150.919"/>
						<line style="fill:none;stroke:#004370;stroke-miterlimit:10;" x1="272.855" y1="139.766" x2="272.855" y2="146.986"/>
						<line style="fill:none;stroke:#004370;stroke-miterlimit:10;" x1="263.22" y1="139.766" x2="263.22" y2="144.832"/>
						<line style="fill:none;stroke:#004370;stroke-miterlimit:10;" x1="258.402" y1="139.766" x2="258.402" y2="148.203"/>
						<line style="fill:none;stroke:#004370;stroke-miterlimit:10;" x1="253.585" y1="139.766" x2="253.585" y2="145.342"/>
						<line style="fill:none;stroke:#004370;stroke-miterlimit:10;" x1="248.767" y1="139.766" x2="248.767" y2="148.858"/>
					</g>
				</g>
				<g>
					<line style="fill:none;stroke:#004370;stroke-miterlimit:10;" x1="167.307" y1="139.766" x2="167.307" y2="142.772"/>
					<g>
						<line style="fill:none;stroke:#004370;stroke-miterlimit:10;" x1="128.766" y1="139.766" x2="128.766" y2="158.885"/>
						<line style="fill:none;stroke:#004370;stroke-miterlimit:10;" x1="133.584" y1="139.766" x2="133.584" y2="152.417"/>
						<line style="fill:none;stroke:#004370;stroke-miterlimit:10;" x1="138.401" y1="139.766" x2="138.401" y2="144.176"/>
						<line style="fill:none;stroke:#004370;stroke-miterlimit:10;" x1="143.219" y1="139.766" x2="143.219" y2="147.922"/>
						<line style="fill:none;stroke:#004370;stroke-miterlimit:10;" x1="148.036" y1="139.766" x2="148.036" y2="151.668"/>
						<line style="fill:none;stroke:#004370;stroke-miterlimit:10;" x1="152.854" y1="139.766" x2="152.854" y2="155.601"/>
						<line style="fill:none;stroke:#004370;stroke-miterlimit:10;" x1="157.671" y1="139.766" x2="157.671" y2="150.919"/>
						<line style="fill:none;stroke:#004370;stroke-miterlimit:10;" x1="162.489" y1="139.766" x2="162.489" y2="146.986"/>
						<line style="fill:none;stroke:#004370;stroke-miterlimit:10;" x1="172.124" y1="139.766" x2="172.124" y2="144.832"/>
						<line style="fill:none;stroke:#004370;stroke-miterlimit:10;" x1="176.942" y1="139.766" x2="176.942" y2="148.203"/>
						<line style="fill:none;stroke:#004370;stroke-miterlimit:10;" x1="181.759" y1="139.766" x2="181.759" y2="145.342"/>
						<line style="fill:none;stroke:#004370;stroke-miterlimit:10;" x1="186.577" y1="139.766" x2="186.577" y2="148.858"/>
					</g>
					<line style="fill:none;stroke:#004370;stroke-miterlimit:10;" x1="229.497" y1="139.766" x2="229.497" y2="142.772"/>
					<g>
						<line style="fill:none;stroke:#004370;stroke-miterlimit:10;" x1="190.957" y1="139.766" x2="190.957" y2="158.885"/>
						<line style="fill:none;stroke:#004370;stroke-miterlimit:10;" x1="195.774" y1="139.766" x2="195.774" y2="152.417"/>
						<line style="fill:none;stroke:#004370;stroke-miterlimit:10;" x1="200.592" y1="139.766" x2="200.592" y2="144.176"/>
						<line style="fill:none;stroke:#004370;stroke-miterlimit:10;" x1="205.409" y1="139.766" x2="205.409" y2="147.922"/>
						<line style="fill:none;stroke:#004370;stroke-miterlimit:10;" x1="210.227" y1="139.766" x2="210.227" y2="151.668"/>
						<line style="fill:none;stroke:#004370;stroke-miterlimit:10;" x1="215.044" y1="139.766" x2="215.044" y2="155.601"/>
						<line style="fill:none;stroke:#004370;stroke-miterlimit:10;" x1="219.862" y1="139.766" x2="219.862" y2="150.919"/>
						<line style="fill:none;stroke:#004370;stroke-miterlimit:10;" x1="224.68" y1="139.766" x2="224.68" y2="146.986"/>
						<line style="fill:none;stroke:#004370;stroke-miterlimit:10;" x1="234.315" y1="139.766" x2="234.315" y2="144.832"/>
						<line style="fill:none;stroke:#004370;stroke-miterlimit:10;" x1="239.132" y1="139.766" x2="239.132" y2="148.203"/>
						<line style="fill:none;stroke:#004370;stroke-miterlimit:10;" x1="243.95" y1="139.766" x2="243.95" y2="145.342"/>
					</g>
				</g>
			</g>
		</g>
	</g>
</g>
</svg>
