<?xml version="1.0" encoding="utf-8"?>
<!-- Generator: Adobe Illustrator 27.5.0, SVG Export Plug-In . SVG Version: 6.00 Build 0)  -->
<svg version="1.1" xmlns="http://www.w3.org/2000/svg" xmlns:xlink="http://www.w3.org/1999/xlink" x="0px" y="0px"
	 viewBox="0 0 2500 2500" style="enable-background:new 0 0 2500 2500;" xml:space="preserve">
<g id="Background">
	<rect style="fill:#FFFFFF;" width="2500" height="2500"/>
</g>
<g id="Illustration">
	<g id="Autonomous_public_transport_1_">
		<ellipse style="fill:#F2E6DC;" cx="1250" cy="1250" rx="914.464" ry="915"/>
		<g>
			<polygon style="fill:#E0AA63;" points="1705.714,665.496 1605.918,665.496 1619.177,335.951 1705.714,388.504 			"/>
			<rect x="1469.821" y="335.951" style="fill:#FFD092;" width="149.356" height="329.545"/>
			
				<rect x="1703.974" y="335.951" transform="matrix(-1 -1.224647e-16 1.224647e-16 -1 3557.3042 1001.4464)" style="fill:#FFD092;" width="149.356" height="329.545"/>
			<polygon style="fill:#FFFFFF;" points="1487.602,647.714 1487.602,353.732 1619.177,353.732 1626.635,361.525 1642.946,647.714 
							"/>
			<polygon style="fill:#F2E6DC;" points="1705.714,647.714 1619.177,647.714 1619.177,353.732 1705.714,406.285 			"/>
			<path style="fill:#E6D0BE;" d="M1703.739,468.532c-0.179,0-0.359-0.048-0.522-0.148l-84.624-52.01h-130.991c-0.553,0-1-0.448-1-1
				c0-0.552,0.447-1,1-1h131.557l0.24,0.148l84.865,52.158c0.471,0.289,0.618,0.905,0.328,1.376
				C1704.403,468.362,1704.075,468.532,1703.739,468.532z"/>
			<path style="fill:#E6D0BE;" d="M1703.658,610.504c-0.258,0-0.517-0.099-0.712-0.298l-84.187-85.367h-99.56V353.732
				c0-0.552,0.447-1,1-1s1,0.448,1,1v169.107h98.396l84.774,85.963c0.388,0.393,0.384,1.026-0.01,1.414
				C1704.166,610.408,1703.912,610.504,1703.658,610.504z"/>
			<path style="fill:#E6D0BE;" d="M1537.794,647.123c-0.256,0-0.512-0.098-0.707-0.293c-0.391-0.391-0.391-1.024,0-1.414
				l31.899-31.9v-155.06h-80.326c-0.553,0-1-0.448-1-1s0.447-1,1-1h82.326v157.889l-32.485,32.486
				C1538.306,647.025,1538.05,647.123,1537.794,647.123z"/>
			<path style="fill:#E6D0BE;" d="M1662.445,647.123c-0.553,0-1-0.448-1-1V481.237l41.781-46.969
				c0.365-0.413,0.996-0.45,1.412-0.083c0.412,0.367,0.449,0.999,0.082,1.412l-41.275,46.401v164.125
				C1663.445,646.675,1662.998,647.123,1662.445,647.123z"/>
			<path style="fill:#E6D0BE;" d="M1641.946,452.165V369.64c0-0.552,0.447-1,1-1s1,0.448,1,1v77.696l47.523-47.525
				c0.391-0.391,1.023-0.391,1.414,0s0.391,1.024,0,1.414L1641.946,452.165z"/>
			
				<rect x="1622.771" y="434.935" transform="matrix(-1.836970e-16 1 -1 -1.836970e-16 2270.4849 -1269.0386)" style="fill:#FFFFFF;" width="293.983" height="131.575"/>
			<path style="fill:#E6D0BE;" d="M1802.583,647.123c-0.553,0-1-0.448-1-1v-88.419l-56.565-56.567V353.732c0-0.552,0.447-1,1-1
				s1,0.448,1,1v146.577l56.565,56.566v89.248C1803.583,646.675,1803.136,647.123,1802.583,647.123z"/>
			<path style="fill:#E6D0BE;" d="M1764.805,574.626h-60.831c-0.553,0-1-0.448-1-1c0-0.552,0.447-1,1-1h60.003l71.626-71.627
				c0.391-0.391,1.023-0.391,1.414,0c0.391,0.391,0.391,1.024,0,1.414L1764.805,574.626z"/>
			<path style="fill:#E6D0BE;" d="M1835.55,439.489h-53.785v-85.757c0-0.552,0.447-1,1-1s1,0.448,1,1v83.757h51.785
				c0.553,0,1,0.448,1,1C1836.55,439.041,1836.103,439.489,1835.55,439.489z"/>
		</g>
		<g>
			<g>
				<path style="fill:#363E44;" d="M2156.614,837.943H947.416c-0.552,0-1-0.448-1-1V708.834c0-0.552,0.448-1,1-1h1209.198
					c0.553,0,1,0.448,1,1v128.109C2157.614,837.495,2157.167,837.943,2156.614,837.943z M948.416,835.943h1207.198V709.834H948.416
					V835.943z"/>
				<path style="fill:#363E44;" d="M2093.597,1517.647c-0.553,0-1-0.448-1-1V857.503H1011.434v659.144c0,0.552-0.447,1-1,1
					c-0.552,0-1-0.448-1-1V856.503c0-0.552,0.448-1,1-1h1083.163c0.553,0,1,0.448,1,1v660.144
					C2094.597,1517.2,2094.149,1517.647,2093.597,1517.647z"/>
				<rect x="1082.588" y="893.648" style="fill:#FFFFFF;" width="938.855" height="552.357"/>
				<path style="fill:#363E44;" d="M1931.813,1517.647c-0.553,0-1-0.448-1-1v-140.286h-757.598v140.286c0,0.552-0.447,1-1,1
					s-1-0.448-1-1v-141.286c0-0.552,0.447-1,1-1h759.598c0.553,0,1,0.448,1,1v141.286
					C1932.813,1517.2,1932.366,1517.647,1931.813,1517.647z"/>
				<rect x="1199.758" y="1327.739" style="fill:#8B865C;" width="704.514" height="74.64"/>
				<g>
					<rect x="1810.821" y="537.506" style="fill:#EFBC73;" width="320.302" height="278.658"/>
					<g>
						<path style="fill:#FFFFFF;" d="M2067.865,750.34H1874.08c-0.553,0-1-0.448-1-1V578.622c0-0.552,0.447-1,1-1h193.785
							c0.553,0,1,0.448,1,1V749.34C2068.865,749.893,2068.418,750.34,2067.865,750.34z M1875.08,748.34h191.785V579.622H1875.08
							V748.34z"/>
						<rect x="1883.307" y="602.461" style="fill:#FFFFFF;" width="175.329" height="89.204"/>
						<path style="fill:#FFFFFF;" d="M2010.19,740.343h-78.437c-0.553,0-1-0.448-1-1V726.27c0-0.552,0.447-1,1-1h78.437
							c0.553,0,1,0.448,1,1v13.073C2011.19,739.896,2010.743,740.343,2010.19,740.343z M1932.754,738.343h76.437V727.27h-76.437
							V738.343z"/>
						<g>
							<g>
								
									<ellipse transform="matrix(0.0498 -0.9988 0.9988 0.0498 1088.1803 2568.6619)" style="fill:#FFFFFF;" cx="1894.073" cy="712.428" rx="10.766" ry="10.766"/>
								<circle style="fill:#FFFFFF;" cx="1911.376" cy="730.5" r="6.536"/>
							</g>
							<g>
								
									<ellipse transform="matrix(0.999 -0.0453 0.0453 0.999 -30.1793 93.5288)" style="fill:#FFFFFF;" cx="2047.871" cy="712.428" rx="10.766" ry="10.766"/>
								<path style="fill:#FFFFFF;" d="M2024.032,730.5c0,3.61,2.927,6.536,6.536,6.536s6.536-2.927,6.536-6.536
									s-2.927-6.536-6.536-6.536S2024.032,726.89,2024.032,730.5z"/>
							</g>
						</g>
						<g>
							<rect x="1881.673" y="757.799" style="fill:#FFFFFF;" width="28.068" height="28.069"/>
							<rect x="2032.203" y="757.799" style="fill:#FFFFFF;" width="28.068" height="28.069"/>
						</g>
						<g>
							<g>
								<rect x="1843.897" y="618.61" style="fill:#FFFFFF;" width="21.532" height="57.675"/>
								<path style="fill:#FFFFFF;" d="M1866.967,695.741c-0.256,0-0.512-0.098-0.707-0.293l-12.304-12.304
									c-0.391-0.391-0.391-1.024,0-1.414s1.023-0.391,1.414,0l12.304,12.304c0.391,0.391,0.391,1.024,0,1.414
									C1867.479,695.643,1867.223,695.741,1866.967,695.741z"/>
							</g>
							<g>
								
									<rect x="2076.516" y="618.61" transform="matrix(-1 -1.224647e-16 1.224647e-16 -1 4174.5635 1294.8948)" style="fill:#FFFFFF;" width="21.532" height="57.675"/>
								<path style="fill:#FFFFFF;" d="M2074.978,695.741c-0.256,0-0.512-0.098-0.707-0.293c-0.391-0.391-0.391-1.024,0-1.414
									l12.305-12.304c0.391-0.391,1.023-0.391,1.414,0c0.391,0.391,0.391,1.024,0,1.414l-12.305,12.304
									C2075.489,695.643,2075.233,695.741,2074.978,695.741z"/>
							</g>
						</g>
					</g>
				</g>
			</g>
			<g>
				<g>
					<polygon style="fill:#E6D0BE;" points="1117.472,1118.634 1955.866,1118.634 1955.866,963.593 1194.76,963.593 					"/>
					<polygon style="fill:#F7F1EB;" points="1298.348,1087.686 1141.87,1087.686 1192.365,986.393 1348.843,986.393 					"/>
					<polygon style="fill:#F7F1EB;" points="1604.294,1062.962 1334.102,1062.962 1372.272,986.393 1642.463,986.393 					"/>
					<polygon style="fill:#F7F1EB;" points="1899.82,1062.962 1629.629,1062.962 1667.798,986.393 1937.99,986.393 					"/>
					<polygon style="fill:#F7F1EB;" points="1145.804,1188.287 1955.866,1188.287 1955.866,1125.216 1117.472,1125.216 					"/>
					<polygon style="fill:#8B865C;" points="1331.595,949.023 1491.929,949.023 1502.568,963.593 1320.957,963.593 					"/>
				</g>
				<g>
					<g>
						<path style="fill:#363E44;" d="M1512.617,1194.495c-9.26,21.384-30.547,36.346-55.333,36.346
							c-24.786,0-46.073-14.963-55.333-36.346H1512.617z"/>
						<path style="fill:#363E44;" d="M1298.767,1194.495c-9.26,21.384-30.547,36.346-55.333,36.346
							c-24.786,0-46.073-14.963-55.333-36.346H1298.767z"/>
						<path style="fill:#363E44;" d="M1940.315,1194.495c-9.26,21.384-30.547,36.346-55.333,36.346
							c-24.786,0-46.073-14.963-55.333-36.346H1940.315z"/>
						<path style="fill:#363E44;" d="M1726.466,1194.495c-9.26,21.384-30.547,36.346-55.333,36.346s-46.073-14.963-55.333-36.346
							H1726.466z"/>
					</g>
					
						<rect x="1180.401" y="1188.287" transform="matrix(-1 -1.224647e-16 1.224647e-16 -1 3136.2668 2388.7324)" style="fill:#363E44;" width="775.464" height="12.158"/>
				</g>
			</g>
		</g>
		<g>
			<polygon style="fill:#EFBC73;" points="2128.908,1880.833 681.928,1880.833 681.928,1472.83 2107.364,1472.83 2156.399,1779.884 
							"/>
			<g>
				<rect x="794.148" y="1521.738" style="fill:#363E44;" width="199.109" height="242.981"/>
				<rect x="1013.788" y="1521.738" style="fill:#363E44;" width="199.109" height="242.981"/>
				<rect x="1407.477" y="1521.738" style="fill:#363E44;" width="199.109" height="242.981"/>
				<rect x="1627.117" y="1521.738" style="fill:#363E44;" width="199.109" height="242.981"/>
				<polygon style="fill:#363E44;" points="2101.233,1521.738 2020.14,1521.738 2020.14,1764.718 2140.035,1764.718 				"/>
				<g>
					<polygon style="fill:#363E44;" points="1386.7,1763.236 1233.849,1639.334 1233.849,1521.738 1386.7,1521.738 					"/>
					<polygon style="fill:#363E44;" points="1386.7,1800.975 1233.849,1677.073 1233.849,1880.833 1386.7,1880.833 					"/>
				</g>
				<g>
					<polygon style="fill:#363E44;" points="1999.608,1763.236 1846.757,1639.334 1846.757,1521.738 1999.608,1521.738 					"/>
					<polygon style="fill:#363E44;" points="1999.608,1800.975 1846.757,1677.073 1846.757,1880.833 1999.608,1880.833 					"/>
				</g>
			</g>
			<g>
				<g>
					
						<ellipse transform="matrix(0.9994 -0.0348 0.0348 0.9994 -64.8952 35.329)" style="fill:#363E44;" cx="981.864" cy="1880.832" rx="71.434" ry="71.435"/>
					<path style="fill:#F7F1EB;" d="M981.863,1919.572c-21.36,0-38.738-17.378-38.738-38.739c0-21.361,17.378-38.739,38.738-38.739
						c21.36,0,38.738,17.378,38.738,38.739C1020.602,1902.193,1003.224,1919.572,981.863,1919.572z M981.863,1844.094
						c-20.258,0-36.738,16.481-36.738,36.739c0,20.258,16.481,36.739,36.738,36.739c20.258,0,36.738-16.481,36.738-36.739
						C1018.602,1860.575,1002.121,1844.094,981.863,1844.094z"/>
				</g>
				<g>
					
						<ellipse transform="matrix(0.9995 -0.0326 0.0326 0.9995 -60.6289 38.1355)" style="fill:#363E44;" cx="1140.733" cy="1880.832" rx="71.433" ry="71.435"/>
					<path style="fill:#F7F1EB;" d="M1140.732,1919.572c-21.36,0-38.738-17.378-38.738-38.739c0-21.361,17.378-38.739,38.738-38.739
						s38.738,17.378,38.738,38.739C1179.471,1902.193,1162.093,1919.572,1140.732,1919.572z M1140.732,1844.094
						c-20.258,0-36.738,16.481-36.738,36.739c0,20.258,16.48,36.739,36.738,36.739s36.738-16.481,36.738-36.739
						C1177.471,1860.575,1160.99,1844.094,1140.732,1844.094z"/>
				</g>
				<g>
					
						<ellipse transform="matrix(0.9995 -0.0326 0.0326 0.9995 -60.3283 56.5933)" style="fill:#363E44;" cx="1707.677" cy="1880.832" rx="71.433" ry="71.435"/>
					<path style="fill:#F7F1EB;" d="M1707.677,1919.572c-21.36,0-38.738-17.378-38.738-38.739c0-21.361,17.378-38.739,38.738-38.739
						s38.738,17.378,38.738,38.739C1746.415,1902.193,1729.037,1919.572,1707.677,1919.572z M1707.677,1844.094
						c-20.258,0-36.738,16.481-36.738,36.739c0,20.258,16.48,36.739,36.738,36.739s36.738-16.481,36.738-36.739
						C1744.415,1860.575,1727.935,1844.094,1707.677,1844.094z"/>
				</g>
			</g>
		</g>
		<g>
			<g>
				<path style="fill:#FFFFFF;" d="M954.402,2015.892c-7.799,14.147-16.594,33.673-22.177,58.003
					c-8.644,37.669-5.663,69.752-2.155,89.624c88.291,0,176.581,0,264.872,0c-1.833-11.818-4.865-22.328-8.53-31.62
					c-34.987-88.713-146.96-115.522-172.375-121.013C994.158,2012.554,974.28,2014.223,954.402,2015.892z"/>
				<path style="fill:#84524D;" d="M922.685,1926.347l20.16,93.487c4.451,18.849,22.655,31.617,41.744,28.346
					c1.092-0.187,2.203-0.414,3.332-0.685c17.674-4.237,29.566-20.846,28.233-38.973l-8.723-91.476L922.685,1926.347z"/>
				<path style="fill:#E6D0BE;" d="M425.708,1988.13c0,0-44.168,85.292-36.275,175.389c59.239,0,118.477,0,177.716,0
					c-4.632-19.42-11.707-42.06-22.745-66.308c-18.918-41.556-42.518-72.546-61.661-93.724L425.708,1988.13z"/>
				<path style="fill:#84524D;" d="M417.772,2008.698c-1.262-31.134-1.105-88.573,13.067-134.799l103.322,30.505
					c0,0-33.903,51.549-44.622,109.125c-3.241,17.408-18.71,30.004-36.368,28.693c-2.315-0.172-4.729-0.471-7.234-0.922
					C430.092,2038.442,418.424,2024.787,417.772,2008.698z"/>
				<path style="fill:#8B865C;" d="M596.872,1078.047c0,0-194.124,303.171-196.543,887.943h141.763
					c0,0,169.996-505.316,281.952-631.303l-41.413-282.042L596.872,1078.047z"/>
				<path style="fill:#8B865C;" d="M686.004,1397.627c0,0,179.46,295.778,221.035,568.362H1039.3
					c0,0,15.568-661.583-225.652-929.047l-121.488,25.912L686.004,1397.627z"/>
				<path style="fill:#363E44;" d="M745.182,1450.853c-0.14,0-0.282-0.03-0.417-0.092c-0.502-0.231-0.722-0.825-0.49-1.327
					l75.159-163.213c0.231-0.501,0.825-0.722,1.326-0.49c0.502,0.231,0.722,0.825,0.49,1.327l-75.159,163.213
					C745.922,1450.637,745.56,1450.853,745.182,1450.853z"/>
			</g>
			<g>
				<path style="fill:#84524D;" d="M766.431,851.651c0,0,149.905,107.682,275.269-12.587l26.628-54.037
					c0,0,30.742,83.813,9.022,165.498c-21.721,81.685-111.029,98.192-233.525,73.213L766.431,851.651z"/>
				<path style="fill:#FFFFFF;" d="M528.732,1176.064c76.691-48.208,237.194-140.266,350.609-144.478
					c0,0,12.968-99.828-99.72-189.944c0,0-130.187-82.929-302.072-8.515c0,0-119.305,198.987-62.172,311.803
					C436.505,1186.649,489.141,1200.951,528.732,1176.064z"/>
				<g>
					<g>
						<path style="fill:#84524D;" d="M480.936,831.214c0,55.84,2.707,103.327,7.424,183.989
							c5.418,92.656,7.894,137.734-26.456,151.45C271.924,1242.516,322.502,914.79,480.936,831.214z"/>
					</g>
					<g>
						<path style="fill:#84524D;" d="M444.061,1023.706c0,0,114.077-46.447,176.284-66.801
							c65.33-21.376,164.898-43.424,167.803-29.455c1.655,7.957-11.303,13.771-46.97,27.01c2.473,1.134,8.986,5.784,9.31,13.415
							c0.48,11.294-8.412,14.824-9.082,15.454c0.87,0.317,10.143,3.987,11.744,11.492c1.804,8.454-1.927,14.958-7.463,18.881
							c2.133,0.852,9.684,4.797,11.01,12.056c1.364,7.466-2.631,16.252-10.194,18.603c-13.874,4.313-55.349,16.342-74.821,24.656
							c-38.316,16.361-166.588,92.724-228.216,101.732C453.767,1117.832,444.061,1023.706,444.061,1023.706z"/>
						<g>
							<path style="fill:#363E44;" d="M729.007,1042.576c-0.477,0-0.898-0.341-0.983-0.826l-2.139-12.093
								c-0.097-0.544,0.267-1.063,0.81-1.159c0.542-0.096,1.063,0.267,1.158,0.811l2.139,12.093
								c0.097,0.544-0.267,1.063-0.811,1.159C729.123,1042.571,729.065,1042.576,729.007,1042.576z"/>
							<path style="fill:#363E44;" d="M723.313,1013.503c-0.489,0-0.917-0.359-0.989-0.857l-1.984-13.742
								c-0.078-0.547,0.301-1.054,0.848-1.133c0.543-0.081,1.053,0.301,1.133,0.847l1.984,13.742
								c0.078,0.547-0.301,1.054-0.848,1.133C723.409,1013.499,723.36,1013.503,723.313,1013.503z"/>
							<path style="fill:#363E44;" d="M719.429,982.557c-0.476,0-0.897-0.34-0.983-0.825c-0.404-2.274-0.754-4.327-1.103-6.382
								c-0.344-2.022-0.688-4.046-1.085-6.283c-0.097-0.544,0.266-1.063,0.81-1.16c0.549-0.097,1.064,0.266,1.159,0.81
								c0.398,2.243,0.743,4.271,1.088,6.298c0.349,2.05,0.696,4.098,1.1,6.367c0.097,0.544-0.266,1.063-0.81,1.16
								C719.546,982.552,719.486,982.557,719.429,982.557z"/>
							<path style="fill:#363E44;" d="M713.785,957.434c-0.446,0-0.854-0.301-0.968-0.754l-3.004-11.817
								c-0.137-0.535,0.187-1.08,0.723-1.216c0.526-0.136,1.08,0.187,1.215,0.723l3.004,11.817c0.137,0.535-0.188,1.079-0.723,1.216
								C713.95,957.424,713.867,957.434,713.785,957.434z"/>
						</g>
					</g>
				</g>
				<g>
					<g>
						<polygon style="fill:#D87355;" points="1019.903,926.706 906.294,926.706 981.217,751.422 1094.826,751.422 						"/>
						<path style="fill:#EFBC73;" d="M1006.921,772.571c0,4.241-3.438,7.679-7.678,7.679s-7.679-3.438-7.679-7.679
							c0-4.241,3.438-7.679,7.679-7.679S1006.921,768.33,1006.921,772.571z"/>
					</g>
					<g>
						<path style="fill:#84524D;" d="M1092.054,811.33c0,11.504-0.97,20.83-20.894,20.83c-19.924,0-51.257-9.326-51.257-20.83
							c0-11.503,31.333-20.829,51.257-20.829C1091.084,790.501,1092.054,799.826,1092.054,811.33z"/>
						<path style="fill:#84524D;" d="M1009.323,841.94c0-11.504,31.333-20.829,51.257-20.829c19.924,0,20.894,9.326,20.894,20.829
							H1009.323z"/>
						<path style="fill:#84524D;" d="M1081.474,841.94c0,11.504-0.97,20.829-20.894,20.829c-19.924,0-51.257-9.326-51.257-20.829
							H1081.474z"/>
						<path style="fill:#84524D;" d="M998.742,872.55c0-11.504,31.333-20.829,51.257-20.829c19.924,0,20.894,9.326,20.894,20.829
							H998.742z"/>
						<path style="fill:#84524D;" d="M1070.894,872.55c0,11.504-0.97,20.829-20.894,20.829c-19.924,0-51.257-9.326-51.257-20.829
							H1070.894z"/>
						<path style="fill:#84524D;" d="M1002.961,898.888c0-9.144,24.906-16.557,40.744-16.557c15.837,0,16.608,7.413,16.608,16.557
							H1002.961z"/>
						<path style="fill:#84524D;" d="M1060.313,898.888c0,9.144-0.771,16.557-16.608,16.557c-15.838,0-40.744-7.413-40.744-16.557
							H1060.313z"/>
					</g>
				</g>
			</g>
			<g>
				
					<ellipse transform="matrix(0.02 -0.9998 0.9998 0.02 -63.1805 1319.6268)" style="fill:#363E44;" cx="641.546" cy="692.042" rx="73.318" ry="73.317"/>
				<path style="fill:#84524D;" d="M692.187,728.587L692.187,728.587c-9.277-5.126-25.173-18.816-30.299-9.538l-60.148,96.189
					c-5.126,9.278,25.642,6.049,34.92,11.175l0,0c9.278,5.126,20.954,1.76,26.08-7.518l36.964-64.228
					C704.831,745.389,701.465,733.713,692.187,728.587z"/>
				<ellipse style="fill:#84524D;" cx="633.38" cy="822.669" rx="51.865" ry="15.616"/>
				<g>
					<path style="fill:#84524D;" d="M740.736,755.051c-8.322,15.574-57.103,8.878-57.103,8.878l-42.54-33.175
						c-11.084-22.231-2.048-49.239,20.183-60.323c22.231-11.084,49.238-2.047,60.322,20.184
						C721.598,690.615,749.212,739.188,740.736,755.051z"/>
					<path style="fill:#84524D;" d="M722.25,703.506c0,0,17.188,6.2,18.145,9.622c1.141,4.085-10.301,12.63-10.301,12.63
						S722.564,703.384,722.25,703.506z"/>
					<g>
						<path style="fill:#FFFFFF;" d="M685.065,719.895c0,0,4.932-6.985,13.056-11.035c1.728-0.862,5.364,14.595,3.332,14.63
							C692.522,723.643,685.065,719.895,685.065,719.895z"/>
						<g>
							<defs>
								<path id="SVGID_1_" d="M685.065,719.895c0,0,7.254-10.273,18.658-13.125c11.404-2.852,22.639,2.795,22.639,2.795
									s-7.254,10.273-18.657,13.125C696.3,725.543,685.065,719.895,685.065,719.895z"/>
							</defs>
							<clipPath id="SVGID_00000114075767970890990230000005774926403841261961_">
								<use xlink:href="#SVGID_1_"  style="overflow:visible;"/>
							</clipPath>
							
								<ellipse transform="matrix(0.9614 -0.2753 0.2753 0.9614 -168.8001 223.8103)" style="clip-path:url(#SVGID_00000114075767970890990230000005774926403841261961_);fill:#363E44;" cx="712.865" cy="713.211" rx="15.373" ry="15.373"/>
						</g>
					</g>
					<path style="fill:#363E44;" d="M720.794,739.358c-0.271,0-0.544-0.015-0.817-0.046c-2.74-0.311-5.117-2.2-6.055-4.812
						c-0.186-0.52,0.084-1.092,0.604-1.279c0.515-0.186,1.093,0.083,1.279,0.604c0.682,1.9,2.408,3.274,4.398,3.5
						c2.063,0.234,4.094-0.777,5.166-2.579c0.283-0.474,0.897-0.63,1.371-0.347c0.475,0.283,0.63,0.896,0.348,1.371
						C725.755,738.006,723.347,739.358,720.794,739.358z"/>
				</g>
				<path style="fill:#363E44;" d="M609.039,738.932c0,0,63.206,2.789,103.174-60.418c39.968-63.206-69.712-59.488-115.257-38.11
					C567.784,654.097,609.039,738.932,609.039,738.932z"/>
				<path style="fill:#FFFFFF;" d="M624.748,789.712c-1.971,0-3.262-0.2-3.412-0.225c-0.545-0.089-0.914-0.602-0.825-1.147
					c0.087-0.544,0.597-0.916,1.147-0.827c0.103,0.016,10.234,1.563,18.047-4.705c5.545-4.448,8.652-11.725,9.234-21.627
					c0.87-14.796-9.476-22.917-17.029-28.846c-4.362-3.424-7.514-5.897-6.938-8.704c0.55-2.685,4.529-4.785,13.737-7.249
					c34.661-9.274,54.746-49.979,54.945-50.389c0.241-0.497,0.838-0.704,1.336-0.464c0.497,0.241,0.704,0.839,0.463,1.336
					c-0.202,0.418-20.692,41.94-56.227,51.448c-7.81,2.09-11.946,4.013-12.296,5.718c-0.327,1.596,2.704,3.975,6.214,6.73
					c7.456,5.852,18.724,14.696,17.791,30.537c-0.617,10.502-3.98,18.268-9.997,23.084
					C635.269,788.921,628.666,789.712,624.748,789.712z"/>
				<path style="fill:#363E44;" d="M524.528,480.696c0,0-62.633,138.24,83.245,201.964c0,0-65.157-113.799,44.097-206.729
					L524.528,480.696z"/>
			</g>
		</g>
		<g>
			<g>
				<g>
					<path style="fill:#D87355;" d="M951.866,340.398c-53.274,0-96.462,43.188-96.462,96.463
						c0,53.276,96.462,170.841,96.462,170.841s96.461-117.566,96.461-170.841C1048.328,383.586,1005.14,340.398,951.866,340.398z"/>
					
						<ellipse transform="matrix(0.9999 -0.0172 0.0172 0.9999 -7.3873 16.4688)" style="fill:#FFFFFF;" cx="951.866" cy="436.861" rx="66.003" ry="66.005"/>
					<g>
						<path style="fill:#363E44;" d="M971.384,454.226c-0.256,0-0.513-0.098-0.708-0.293c-5.024-5.032-11.704-7.803-18.81-7.803
							c-7.106,0-13.785,2.771-18.81,7.803c-0.391,0.391-1.024,0.391-1.415,0.001c-0.391-0.39-0.391-1.023-0.001-1.414
							c5.402-5.41,12.585-8.39,20.226-8.39c7.641,0,14.823,2.98,20.226,8.39c0.39,0.391,0.39,1.024-0.001,1.414
							C971.896,454.128,971.64,454.226,971.384,454.226z"/>
						<path style="fill:#363E44;" d="M916.735,438.589c-0.256,0-0.512-0.097-0.707-0.292c-0.391-0.39-0.391-1.023-0.001-1.414
							c9.573-9.587,22.301-14.867,35.839-14.867s26.266,5.28,35.839,14.867c0.39,0.391,0.39,1.024-0.001,1.414
							c-0.391,0.39-1.024,0.39-1.415-0.001c-9.194-9.209-21.42-14.28-34.423-14.28c-13.003,0-25.229,5.071-34.423,14.28
							C917.248,438.491,916.991,438.589,916.735,438.589z"/>
						<path style="fill:#363E44;" d="M901.121,422.952c-0.256,0-0.512-0.097-0.707-0.292c-0.391-0.39-0.391-1.023-0.001-1.414
							c13.743-13.764,32.016-21.344,51.452-21.344c19.437,0,37.71,7.58,51.454,21.344c0.39,0.391,0.39,1.024-0.001,1.414
							c-0.391,0.39-1.025,0.39-1.415-0.001c-13.365-13.386-31.137-20.757-50.038-20.757c-18.901,0-36.671,7.372-50.036,20.757
							C901.634,422.854,901.377,422.952,901.121,422.952z"/>
						<path style="fill:#363E44;" d="M957.106,468.04c-0.272,0-0.544-0.111-0.741-0.329c-1.202-1.327-2.828-2.058-4.579-2.058
							c-1.683,0-3.261,0.671-4.442,1.889c-0.385,0.396-1.018,0.406-1.414,0.021c-0.396-0.385-0.406-1.018-0.021-1.414
							c1.563-1.61,3.649-2.496,5.878-2.496c2.289,0,4.499,0.99,6.062,2.716c0.371,0.409,0.34,1.042-0.07,1.413
							C957.586,467.955,957.346,468.04,957.106,468.04z"/>
					</g>
				</g>
				
					<ellipse transform="matrix(0.0585 -0.9983 0.9983 0.0585 247.0343 1562.4252)" style="fill:#FFFFFF;" cx="951.866" cy="650.243" rx="21.585" ry="21.585"/>
				
					<ellipse transform="matrix(0.0524 -0.9986 0.9986 0.0524 323.5782 1641.4926)" style="fill:#F7F1EB;" cx="1026.743" cy="650.243" rx="21.585" ry="21.585"/>
				
					<ellipse transform="matrix(0.0434 -0.9991 0.9991 0.0434 404.2281 1722.6357)" style="fill:#F7F1EB;" cx="1101.62" cy="650.243" rx="21.585" ry="21.585"/>
				
					<ellipse transform="matrix(0.0585 -0.9983 0.9983 0.0585 458.5194 1786.6708)" style="fill:#F7F1EB;" cx="1176.497" cy="650.243" rx="21.585" ry="21.585"/>
			</g>
			<path style="fill:#8B865C;" d="M1548.075,773.895L1548.075,773.895l-5.636-0.006c-0.553-0.001-1-0.449-0.999-1.001
				c0.001-0.552,0.448-0.999,1-0.999h0.001l4.634,0.005v-5.364c0-0.552,0.447-1,1-1s1,0.448,1,1v6.365
				c0,0.265-0.105,0.52-0.293,0.708C1548.595,773.79,1548.341,773.895,1548.075,773.895z M1530.44,773.877L1530.44,773.877
				l-12.001-0.012c-0.553-0.001-1-0.449-0.999-1.001c0.001-0.552,0.448-0.999,1-0.999h0.001l12,0.012
				c0.553,0.001,1,0.449,0.999,1.001C1531.439,773.43,1530.992,773.877,1530.44,773.877z M1506.44,773.853L1506.44,773.853
				l-12.001-0.012c-0.553-0.001-1-0.449-0.999-1.001c0.001-0.552,0.448-0.999,1-0.999h0.001l12,0.012c0.553,0,1,0.449,0.999,1.001
				C1507.439,773.406,1506.992,773.853,1506.44,773.853z M1482.44,773.828L1482.44,773.828l-12.001-0.012
				c-0.553,0-1-0.449-0.999-1.001c0.001-0.552,0.448-0.999,1-0.999h0.001l12,0.012c0.553,0.001,1,0.449,0.999,1.001
				C1483.439,773.381,1482.992,773.828,1482.44,773.828z M1458.44,773.803L1458.44,773.803l-12.001-0.012
				c-0.553-0.001-1-0.449-0.999-1.001c0.001-0.552,0.448-0.999,1-0.999h0.001l12,0.012c0.553,0.001,1,0.449,0.999,1.001
				C1459.439,773.356,1458.992,773.803,1458.44,773.803z M1434.44,773.779L1434.44,773.779l-12.001-0.012
				c-0.553,0-1-0.449-0.999-1.001c0.001-0.552,0.448-0.999,1-0.999h0.001l12,0.012c0.553,0,1,0.449,0.999,1.001
				C1435.439,773.331,1434.992,773.779,1434.44,773.779z M1410.44,773.754L1410.44,773.754l-12.001-0.012
				c-0.553,0-1-0.449-0.999-1.001c0.001-0.552,0.448-0.999,1-0.999h0.001l12,0.012c0.553,0.001,1,0.449,0.999,1.001
				C1411.439,773.307,1410.992,773.754,1410.44,773.754z M1386.44,773.729L1386.44,773.729l-12.001-0.012
				c-0.553-0.001-1-0.449-0.999-1.001c0.001-0.552,0.448-0.999,1-0.999h0.001l12,0.012c0.553,0,1,0.449,0.999,1.001
				C1387.439,773.282,1386.992,773.729,1386.44,773.729z M1362.44,773.705L1362.44,773.705l-12.001-0.012
				c-0.553,0-1-0.449-0.999-1.001c0.001-0.552,0.448-0.999,1-0.999h0.001l12,0.012c0.553,0.001,1,0.449,0.999,1.001
				C1363.439,773.258,1362.992,773.705,1362.44,773.705z M1338.44,773.68L1338.44,773.68l-12.001-0.012
				c-0.553-0.001-1-0.449-0.999-1.001c0.001-0.552,0.448-0.999,1-0.999h0.001l12,0.012c0.553,0.001,1,0.449,0.999,1.001
				C1339.439,773.233,1338.992,773.68,1338.44,773.68z M1314.44,773.655L1314.44,773.655l-12.001-0.012
				c-0.553-0.001-1-0.449-0.999-1.001c0.001-0.552,0.448-0.999,1-0.999h0.001l12,0.012c0.553,0.001,1,0.449,0.999,1.001
				C1315.439,773.208,1314.992,773.655,1314.44,773.655z M1290.44,773.63L1290.44,773.63l-12.001-0.012
				c-0.553-0.001-1-0.449-0.999-1.001c0.001-0.552,0.448-0.999,1-0.999h0.001l12,0.012c0.553,0.001,1,0.449,0.999,1.001
				C1291.439,773.183,1290.992,773.63,1290.44,773.63z M1266.44,773.606L1266.44,773.606l-12.001-0.012
				c-0.553,0-1-0.449-0.999-1.001c0.001-0.552,0.448-0.999,1-0.999h0.001l12,0.012c0.553,0.001,1,0.449,0.999,1.001
				C1267.439,773.159,1266.992,773.606,1266.44,773.606z M1242.44,773.581L1242.44,773.581l-9.986-0.01
				c-0.552-0.001-0.999-0.448-0.999-1v-2.015c0-0.552,0.447-1,1-1s1,0.448,1,1v1.016l8.986,0.009c0.553,0,1,0.449,0.999,1.001
				C1243.439,773.134,1242.992,773.581,1242.44,773.581z M1232.455,759.556c-0.553,0-1-0.448-1-1v-12c0-0.552,0.447-1,1-1
				s1,0.448,1,1v12C1233.455,759.109,1233.008,759.556,1232.455,759.556z M1548.075,755.53c-0.553,0-1-0.448-1-1v-12
				c0-0.552,0.447-1,1-1s1,0.448,1,1v12C1549.075,755.083,1548.628,755.53,1548.075,755.53z M1232.455,735.556c-0.553,0-1-0.448-1-1
				v-12c0-0.552,0.447-1,1-1s1,0.448,1,1v12C1233.455,735.109,1233.008,735.556,1232.455,735.556z M1548.075,731.53
				c-0.553,0-1-0.448-1-1v-12c0-0.552,0.447-1,1-1s1,0.448,1,1v12C1549.075,731.083,1548.628,731.53,1548.075,731.53z
				 M1232.455,711.556c-0.553,0-1-0.448-1-1v-12c0-0.552,0.447-1,1-1s1,0.448,1,1v12
				C1233.455,711.109,1233.008,711.556,1232.455,711.556z M1548.075,707.53c-0.553,0-1-0.448-1-1v-12c0-0.552,0.447-1,1-1
				s1,0.448,1,1v12C1549.075,707.083,1548.628,707.53,1548.075,707.53z M1232.455,687.556c-0.553,0-1-0.448-1-1v-12
				c0-0.552,0.447-1,1-1s1,0.448,1,1v12C1233.455,687.109,1233.008,687.556,1232.455,687.556z M1548.075,683.53
				c-0.553,0-1-0.448-1-1v-12c0-0.552,0.447-1,1-1s1,0.448,1,1v12C1549.075,683.083,1548.628,683.53,1548.075,683.53z
				 M1232.455,663.556c-0.553,0-1-0.448-1-1v-12c0-0.552,0.447-1,1-1s1,0.448,1,1v12
				C1233.455,663.109,1233.008,663.556,1232.455,663.556z M1548.075,659.53c-0.553,0-1-0.448-1-1v-12c0-0.552,0.447-1,1-1
				s1,0.448,1,1v12C1549.075,659.083,1548.628,659.53,1548.075,659.53z M1232.455,639.556c-0.553,0-1-0.448-1-1v-12
				c0-0.552,0.447-1,1-1s1,0.448,1,1v12C1233.455,639.109,1233.008,639.556,1232.455,639.556z M1548.075,635.53
				c-0.553,0-1-0.448-1-1v-12c0-0.552,0.447-1,1-1s1,0.448,1,1v12C1549.075,635.083,1548.628,635.53,1548.075,635.53z
				 M1232.455,615.556c-0.553,0-1-0.448-1-1v-12c0-0.552,0.447-1,1-1s1,0.448,1,1v12
				C1233.455,615.109,1233.008,615.556,1232.455,615.556z M1548.075,611.53c-0.553,0-1-0.448-1-1v-12c0-0.552,0.447-1,1-1
				s1,0.448,1,1v12C1549.075,611.083,1548.628,611.53,1548.075,611.53z M970.632,602.349c-0.551,0-0.998-0.445-1-0.996
				c-0.002-0.552,0.444-1.002,0.996-1.004l12-0.044c0.001,0,0.003,0,0.004,0c0.551,0,0.998,0.445,1,0.996
				c0.002,0.552-0.444,1.002-0.996,1.004l-12,0.044C970.634,602.349,970.633,602.349,970.632,602.349z M994.632,602.26
				c-0.551,0-0.998-0.445-1-0.996c-0.002-0.552,0.444-1.002,0.996-1.004l12-0.044c0.001,0,0.003,0,0.004,0
				c0.551,0,0.998,0.445,1,0.996c0.002,0.552-0.444,1.002-0.996,1.004l-12,0.044C994.634,602.26,994.633,602.26,994.632,602.26z
				 M1018.632,602.172c-0.551,0-0.998-0.445-1-0.996c-0.002-0.552,0.444-1.002,0.996-1.004l12-0.044c0.001,0,0.003,0,0.004,0
				c0.551,0,0.998,0.445,1,0.996c0.002,0.552-0.444,1.002-0.996,1.004l-12,0.044
				C1018.635,602.172,1018.633,602.172,1018.632,602.172z M1042.631,602.083c-0.551,0-0.998-0.445-1-0.996
				c-0.002-0.552,0.444-1.002,0.996-1.004l12-0.044c0.001,0,0.003,0,0.004,0c0.551,0,0.998,0.445,1,0.996
				c0.002,0.552-0.444,1.001-0.996,1.004l-12,0.044C1042.634,602.083,1042.632,602.083,1042.631,602.083z M1066.631,601.994
				c-0.551,0-0.998-0.445-1-0.996c-0.002-0.552,0.444-1.002,0.996-1.004l12-0.044c0.001,0,0.003,0,0.004,0
				c0.551,0,0.998,0.445,1,0.996c0.002,0.552-0.444,1.002-0.996,1.004l-12,0.044
				C1066.634,601.994,1066.632,601.994,1066.631,601.994z M1090.631,601.906c-0.551,0-0.998-0.445-1-0.996
				c-0.002-0.552,0.444-1.002,0.996-1.004l12-0.044c0.001,0,0.003,0,0.004,0c0.551,0,0.998,0.445,1,0.996
				c0.002,0.552-0.444,1.002-0.996,1.004l-12,0.044C1090.634,601.906,1090.632,601.906,1090.631,601.906z M1114.631,601.817
				c-0.551,0-0.998-0.445-1-0.996c-0.002-0.552,0.444-1.002,0.996-1.004l12-0.044c0.001,0,0.003,0,0.004,0
				c0.551,0,0.998,0.445,1,0.996c0.002,0.552-0.444,1.002-0.996,1.004l-12,0.044
				C1114.634,601.817,1114.632,601.817,1114.631,601.817z M1138.631,601.728c-0.551,0-0.998-0.445-1-0.996
				c-0.002-0.552,0.444-1.002,0.996-1.004l12-0.044c0.001,0,0.003,0,0.004,0c0.551,0,0.998,0.445,1,0.996
				c0.002,0.552-0.444,1.002-0.996,1.004l-12,0.044C1138.633,601.728,1138.632,601.728,1138.631,601.728z M1162.631,601.639
				c-0.551,0-0.998-0.445-1-0.996c-0.002-0.552,0.444-1.002,0.996-1.004l12-0.044c0.001,0,0.003,0,0.004,0
				c0.551,0,0.998,0.445,1,0.996c0.002,0.552-0.444,1.002-0.996,1.004l-12,0.044
				C1162.634,601.639,1162.632,601.639,1162.631,601.639z M1186.631,601.551c-0.551,0-0.998-0.445-1-0.996
				c-0.002-0.552,0.444-1.002,0.996-1.004l11.999-0.044c0.002,0,0.003,0,0.004,0c0.551,0,0.998,0.445,1,0.996
				c0.002,0.552-0.444,1.002-0.996,1.004l-11.999,0.044C1186.634,601.551,1186.632,601.551,1186.631,601.551z M1210.63,601.462
				c-0.551,0-0.998-0.445-1-0.996c-0.002-0.552,0.444-1.002,0.996-1.004l12-0.044c0.001,0,0.003,0,0.004,0
				c0.551,0,0.998,0.445,1,0.996c0.002,0.552-0.444,1.002-0.996,1.004l-12,0.044C1210.633,601.462,1210.631,601.462,1210.63,601.462
				z"/>
			<g>
				<g>
					<path style="fill:#D87355;" d="M1548.087,441.447c-24.261,0-43.917,19.656-43.917,43.895c0,24.261,43.917,77.764,43.917,77.764
						s43.894-53.503,43.894-77.764C1591.981,461.103,1572.325,441.447,1548.087,441.447z M1548.087,515.377
						c-16.593,0-30.056-13.442-30.056-30.035c0-16.571,13.463-30.035,30.056-30.035c16.571,0,30.034,13.464,30.034,30.035
						C1578.12,501.935,1564.657,515.377,1548.087,515.377z"/>
				</g>
				<g>
					<path style="fill:#D87355;" d="M1565.797,597.466c0,9.787-7.934,17.722-17.722,17.722c-9.787,0-17.722-7.934-17.722-17.722
						c0-9.788,7.934-17.722,17.722-17.722C1557.863,579.744,1565.797,587.679,1565.797,597.466z"/>
				</g>
			</g>
			<g>
				<g>
					<path style="fill:#363E44;" d="M1401.507,476.932h-317.393c-0.553,0-1-0.448-1-1s0.447-1,1-1h317.393c0.553,0,1,0.448,1,1
						S1402.06,476.932,1401.507,476.932z"/>
					<path style="fill:#363E44;" d="M1401.507,504.794h-227.899c-0.553,0-1-0.448-1-1s0.447-1,1-1h227.899c0.553,0,1,0.448,1,1
						S1402.06,504.794,1401.507,504.794z"/>
					<path style="fill:#363E44;" d="M1140.784,504.794h-67.688c-0.553,0-1-0.448-1-1s0.447-1,1-1h67.688c0.553,0,1,0.448,1,1
						S1141.337,504.794,1140.784,504.794z"/>
					<path style="fill:#363E44;" d="M1401.507,532.655h-92.485c-0.553,0-1-0.448-1-1c0-0.552,0.447-1,1-1h92.485
						c0.553,0,1,0.448,1,1C1402.507,532.207,1402.06,532.655,1401.507,532.655z"/>
					<path style="fill:#363E44;" d="M1247.528,532.655h-187.652c-0.553,0-1-0.448-1-1c0-0.552,0.447-1,1-1h187.652
						c0.553,0,1,0.448,1,1C1248.528,532.207,1248.081,532.655,1247.528,532.655z"/>
				</g>
			</g>
		</g>
	</g>
</g>
</svg>
